<svg width="27" height="22" viewBox="0 0 27 22" fill="none" xmlns="http://www.w3.org/2000/svg">
<path fill-rule="evenodd" clip-rule="evenodd" d="M14.1476 0.330692C15.1278 -0.453064 16.5798 0.244311 16.5798 1.49985V20.3258C16.5798 21.581 15.128 22.2794 14.1475 21.4949C14.1475 21.4949 14.1475 21.4949 14.1475 21.4949L7.79737 16.415C7.74188 16.3705 7.67235 16.346 7.60038 16.346H2.36843C1.54142 16.346 0.870972 15.6758 0.870972 14.8488V6.97685C0.870972 6.14989 1.54142 5.47969 2.36843 5.47969H7.60038C7.67235 5.47969 7.74208 5.45518 7.79777 5.41069C7.79781 5.41066 7.79774 5.41072 7.79777 5.41069L14.1476 0.330692ZM14.8852 1.25302L8.53552 6.33285C8.27002 6.54516 7.93992 6.66065 7.60038 6.66065H2.36843C2.19339 6.66065 2.05193 6.80236 2.05193 6.97685V14.8488C2.05193 15.0233 2.19339 15.165 2.36843 15.165H7.60038C7.93997 15.165 8.2702 15.2805 8.53593 15.4935L14.8852 20.5727C15.0922 20.7383 15.3989 20.5912 15.3989 20.3258V1.49985C15.3989 1.23496 15.0924 1.08743 14.8852 1.25302Z" fill="#908F9D"/>
<path fill-rule="evenodd" clip-rule="evenodd" d="M22.9004 4.78043C23.131 4.54987 23.5049 4.54992 23.7354 4.78055C27.1168 8.16283 27.1167 13.6454 23.7354 17.028C23.5049 17.2586 23.131 17.2587 22.9004 17.0281C22.6697 16.7976 22.6697 16.4237 22.9002 16.1931C25.8205 13.2717 25.8205 8.53659 22.9002 5.6155C22.6697 5.38487 22.6697 5.011 22.9004 4.78043Z" fill="#908F9D"/>
</svg>
