<svg width="151" height="144" viewBox="0 0 151 144" fill="none" xmlns="http://www.w3.org/2000/svg">
<circle cx="74.7059" cy="82.3849" r="58.7554" fill="url(#paint0_linear_225_2577)"/>
<circle cx="145.3" cy="29.3296" r="5.70015" fill="url(#paint1_linear_225_2577)"/>
<circle cx="9.37322" cy="10.0368" r="9.20794" fill="url(#paint2_linear_225_2577)"/>
<circle cx="4.55002" cy="120.094" r="4.38473" fill="url(#paint3_linear_225_2577)"/>
<circle cx="134.777" cy="141.579" r="2.19237" fill="url(#paint4_linear_225_2577)"/>
<circle cx="99.6987" cy="91.5928" r="2.19237" fill="white"/>
<circle cx="42.2588" cy="67.4768" r="3.50779" fill="white"/>
<circle cx="93.5603" cy="48.6224" r="1.31542" fill="white"/>
<circle cx="57.1667" cy="110.447" r="1.75389" fill="white"/>
<circle cx="76.4597" cy="68.3538" r="0.876946" fill="white"/>
<path d="M70.341 98.2733C69.0949 98.2733 67.849 97.7392 67.1369 96.6713L57.1687 83.8549C55.7447 82.0749 56.1007 79.5829 57.8808 78.1588C59.6608 76.7347 62.1528 77.0908 63.5769 78.8708L70.341 87.5931L85.2934 68.1906C86.7175 66.4106 89.2096 66.0545 90.9896 67.4785C92.7696 68.9026 93.1257 71.3947 91.7016 73.1747L73.5451 96.6713C72.6551 97.5613 71.5871 98.2733 70.341 98.2733Z" fill="white"/>
<defs>
<linearGradient id="paint0_linear_225_2577" x1="15.9504" y1="16.4139" x2="151.606" y2="37.4317" gradientUnits="userSpaceOnUse">
<stop stop-color="#054BAC"/>
<stop offset="1" stop-color="#006CFF"/>
<stop offset="1" stop-color="#054BAC"/>
</linearGradient>
<linearGradient id="paint1_linear_225_2577" x1="139.6" y1="22.9294" x2="152.76" y2="24.9685" gradientUnits="userSpaceOnUse">
<stop stop-color="#054BAC"/>
<stop offset="1" stop-color="#3187FD"/>
</linearGradient>
<linearGradient id="paint2_linear_225_2577" x1="0.165283" y1="-0.301941" x2="21.4247" y2="2.99189" gradientUnits="userSpaceOnUse">
<stop stop-color="#054BAC"/>
<stop offset="1" stop-color="#3187FD"/>
</linearGradient>
<linearGradient id="paint3_linear_225_2577" x1="0.165283" y1="115.17" x2="10.2888" y2="116.739" gradientUnits="userSpaceOnUse">
<stop stop-color="#054BAC"/>
<stop offset="1" stop-color="#3187FD"/>
</linearGradient>
<linearGradient id="paint4_linear_225_2577" x1="132.584" y1="139.117" x2="137.646" y2="139.901" gradientUnits="userSpaceOnUse">
<stop stop-color="#054BAC"/>
<stop offset="1" stop-color="#3187FD"/>
</linearGradient>
</defs>
</svg>
