<svg width="180" height="127" viewBox="0 0 180 127" fill="none" xmlns="http://www.w3.org/2000/svg">
<path d="M91.9292 126.58C97.343 126.58 101.732 122.192 101.732 116.778C101.732 111.364 97.343 106.975 91.9292 106.975C86.5154 106.975 82.1267 111.364 82.1267 116.778C82.1267 122.192 86.5154 126.58 91.9292 126.58Z" fill="#054BAC"/>
<path d="M150.49 126.03C155.974 124.383 161.804 122.665 166.153 118.75C170.04 115.251 172.664 109.909 171.054 104.662C169.447 99.4255 164.634 95.934 159.665 94.1975C156.847 93.2126 153.899 92.6661 150.951 92.2369C147.747 91.7703 144.529 91.388 141.313 91.0201C128.289 89.5304 115.216 88.6204 102.093 88.2901C95.6185 88.127 89.1448 88.1309 82.669 88.2249C76.8857 88.3089 70.7947 88.3068 65.4296 85.8488C61.2575 83.9373 57.4708 80.4598 56.3083 75.8899C54.9663 70.6148 57.4415 65.2427 60.9922 61.4223C62.8637 59.4085 65.0511 57.7136 67.3076 56.155C69.7555 54.4643 72.2888 52.8933 74.877 51.4268C79.9746 48.5399 85.3039 46.083 90.8097 44.0816C93.5257 43.094 96.2821 42.242 99.0624 41.4559C101.41 40.7922 103.765 40.1275 106.034 39.2232C110.42 37.475 114.592 34.5138 115.708 29.6591C116.765 25.058 114.982 20.0631 111.858 16.645C108.243 12.6906 102.793 10.9571 97.5677 10.6766C91.7014 10.3617 85.9703 11.8299 80.4566 13.6932C74.5757 15.6805 68.8217 17.9656 62.8167 19.5754C56.8618 21.1701 50.7917 22.2984 44.6616 22.9501C41.6607 23.2696 38.5691 23.6305 35.5503 23.3858C33.0203 23.1808 30.5032 22.4367 28.6387 20.6412C27.0399 19.1016 26.0875 16.9857 26.4149 14.7528C26.4744 14.3472 27.0905 14.5197 27.0314 14.9227C26.6328 17.6408 28.4804 20.1455 30.7572 21.4285C33.3886 22.9113 36.5906 22.9133 39.5202 22.7437C45.8724 22.3601 52.1817 21.448 58.3825 20.017C64.4755 18.6253 70.3509 16.6359 76.2197 14.5107C81.7934 12.4924 87.4918 10.5224 93.4465 10.0853C98.6133 9.70594 104.049 10.4587 108.55 13.1588C112.506 15.5319 115.415 19.4894 116.342 24.0307C117.247 28.4684 115.993 32.935 112.634 36.0318C109.156 39.2381 104.387 40.6089 99.9422 41.8714C94.3053 43.4727 88.7893 45.3445 83.45 47.7749C78.0381 50.2315 72.8477 53.1495 67.9365 56.4966C63.1958 59.7362 58.5174 63.8124 57.018 69.5918C56.3196 72.2839 56.4486 75.1392 57.6172 77.682C58.6563 79.9429 60.3676 81.8448 62.3611 83.3117C67.1176 86.8117 73.1125 87.5303 78.8579 87.6018C85.3109 87.6821 91.764 87.4643 98.219 87.5703C111.374 87.7862 124.502 88.5869 137.604 89.9725C140.886 90.3199 144.165 90.704 147.44 91.1247C150.385 91.5032 153.34 91.8792 156.236 92.5513C161.385 93.7464 166.395 96.0443 169.595 100.41C171.016 102.302 171.896 104.545 172.141 106.898C172.365 109.354 171.764 111.814 170.654 113.999C168.196 118.834 163.593 121.909 158.705 123.93C156.087 125.012 153.371 125.832 150.66 126.646C150.265 126.765 150.096 126.148 150.49 126.03L150.49 126.03Z" fill="#F2F2F2"/>
<path d="M26.8277 19.9248C29.6523 19.9248 31.942 17.635 31.942 14.8104C31.942 11.9858 29.6523 9.69604 26.8277 9.69604C24.0031 9.69604 21.7133 11.9858 21.7133 14.8104C21.7133 17.635 24.0031 19.9248 26.8277 19.9248Z" fill="#F2F2F2"/>
<path d="M62.3088 29.6206C65.1333 29.6206 67.4231 27.3308 67.4231 24.5063C67.4231 21.6817 65.1333 19.3919 62.3088 19.3919C59.4842 19.3919 57.1944 21.6817 57.1944 24.5063C57.1944 27.3308 59.4842 29.6206 62.3088 29.6206Z" fill="#F2F2F2"/>
<path d="M92.3554 10.2287C95.18 10.2287 97.4698 7.93894 97.4698 5.11436C97.4698 2.28978 95.18 0 92.3554 0C89.5309 0 87.2411 2.28978 87.2411 5.11436C87.2411 7.93894 89.5309 10.2287 92.3554 10.2287Z" fill="#F2F2F2"/>
<path d="M111.108 31.9647C113.932 31.9647 116.222 29.6749 116.222 26.8503C116.222 24.0257 113.932 21.736 111.108 21.736C108.283 21.736 105.994 24.0257 105.994 26.8503C105.994 29.6749 108.283 31.9647 111.108 31.9647Z" fill="#F2F2F2"/>
<path d="M85.7493 57.1103C88.5739 57.1103 90.8637 54.8205 90.8637 51.9959C90.8637 49.1714 88.5739 46.8816 85.7493 46.8816C82.9247 46.8816 80.6349 49.1714 80.6349 51.9959C80.6349 54.8205 82.9247 57.1103 85.7493 57.1103Z" fill="#F2F2F2"/>
<path d="M53.5717 69.2569C56.3963 69.2569 58.6861 66.9671 58.6861 64.1426C58.6861 61.318 56.3963 59.0282 53.5717 59.0282C50.7471 59.0282 48.4573 61.318 48.4573 64.1426C48.4573 66.9671 50.7471 69.2569 53.5717 69.2569Z" fill="#F2F2F2"/>
<path d="M87.6669 88.2227C90.4915 88.2227 92.7813 85.9329 92.7813 83.1083C92.7813 80.2837 90.4915 77.994 87.6669 77.994C84.8423 77.994 82.5526 80.2837 82.5526 83.1083C82.5526 85.9329 84.8423 88.2227 87.6669 88.2227Z" fill="#F2F2F2"/>
<path d="M124.32 98.8776C127.145 98.8776 129.434 96.5878 129.434 93.7632C129.434 90.9386 127.145 88.6489 124.32 88.6489C121.496 88.6489 119.206 90.9386 119.206 93.7632C119.206 96.5878 121.496 98.8776 124.32 98.8776Z" fill="#F2F2F2"/>
<path d="M167.153 96.5335C169.978 96.5335 172.268 94.2437 172.268 91.4192C172.268 88.5946 169.978 86.3048 167.153 86.3048C164.329 86.3048 162.039 88.5946 162.039 91.4192C162.039 94.2437 164.329 96.5335 167.153 96.5335Z" fill="#F2F2F2"/>
<path d="M90.8793 14.4914C75.5593 14.5996 63.0154 27.0492 62.7978 42.3681C62.7958 42.5096 62.7949 43.504 62.795 44.8047C62.7951 46.7119 63.5527 48.5408 64.9012 49.8894C66.2497 51.238 68.0786 51.9957 69.9858 51.9959H69.9858C70.9312 51.9957 71.8672 51.8093 72.7405 51.4471C73.6138 51.085 74.4072 50.5544 75.0753 49.8855C75.7434 49.2167 76.2732 48.4227 76.6344 47.5491C76.9956 46.6754 77.181 45.7391 77.1802 44.7937C77.1795 43.9089 77.179 43.2965 77.179 43.2589C77.1785 40.8914 77.7944 38.5645 78.9659 36.5072C80.1375 34.4499 81.8244 32.733 83.8607 31.5254C85.8971 30.3177 88.2128 29.661 90.5799 29.6198C92.9471 29.5786 95.2842 30.1543 97.3614 31.2902C99.4385 32.4262 101.184 34.0834 102.427 36.0986C103.669 38.1139 104.366 40.4179 104.448 42.784C104.53 45.1501 103.994 47.4968 102.894 49.5932C101.794 51.6896 100.167 53.4636 98.1735 54.7405L98.176 54.7436C98.176 54.7436 87.9413 61.3325 84.821 70.3712L84.8236 70.3718C84.2749 72.2235 83.9969 74.1448 83.9982 76.076C83.9982 76.8699 84.0449 83.8161 84.1351 89.4538C84.1667 91.3991 84.9617 93.254 86.3486 94.6183C87.7356 95.9826 89.6033 96.747 91.5488 96.7466H91.5488C92.5264 96.7465 93.4943 96.5532 94.3969 96.1777C95.2994 95.8021 96.1189 95.2519 96.8079 94.5585C97.497 93.8651 98.0422 93.0423 98.4121 92.1374C98.782 91.2325 98.9694 90.2634 98.9633 89.2859C98.932 84.1227 98.9151 78.1106 98.9151 77.6743C98.9151 72.1242 104.269 66.5943 108.667 62.9881C113.732 58.8355 117.376 53.1764 118.84 46.7928C119.164 45.4786 119.342 44.1327 119.372 42.7795C119.372 39.0473 118.634 35.3521 117.2 31.9066C115.765 28.4612 113.663 25.3336 111.014 22.7041C108.366 20.0747 105.223 17.9953 101.768 16.5857C98.3119 15.1762 94.6114 14.4644 90.8793 14.4914Z" fill="#054BAC"/>
<path d="M179.745 126.849H0.253975C0.186809 126.849 0.122461 126.822 0.0750355 126.775C0.0276101 126.727 0.000976562 126.663 0.000976562 126.595C0.000976562 126.528 0.0276101 126.464 0.0750355 126.416C0.122461 126.369 0.186809 126.342 0.253975 126.342H179.745C179.813 126.342 179.877 126.368 179.925 126.416C179.972 126.464 179.999 126.528 179.999 126.595C179.999 126.663 179.972 126.727 179.925 126.775C179.877 126.822 179.813 126.849 179.745 126.849Z" fill="#3F3D56"/>
<path d="M133.921 58.1749C137.452 58.1749 140.314 55.3126 140.314 51.7819C140.314 48.2512 137.452 45.389 133.921 45.389C130.391 45.389 127.529 48.2512 127.529 51.7819C127.529 55.3126 130.391 58.1749 133.921 58.1749Z" fill="black"/>
<path d="M121.958 123.901H119.628L118.422 114.124H121.959L121.958 123.901Z" fill="white" stroke="black" stroke-width="0.3"/>
<path d="M117.63 123.304H122.668V126.476H114.457C114.457 126.06 114.539 125.647 114.699 125.262C114.858 124.878 115.092 124.528 115.386 124.233C115.681 123.939 116.031 123.705 116.416 123.546C116.801 123.386 117.213 123.304 117.63 123.304Z" fill="black"/>
<path d="M142.203 123.901H139.873L138.667 114.124H142.203L142.203 123.901Z" fill="white" stroke="black" stroke-width="0.3"/>
<path d="M137.874 123.304H142.912V126.476H134.702C134.702 126.06 134.784 125.647 134.943 125.262C135.102 124.878 135.336 124.528 135.631 124.233C135.925 123.939 136.275 123.705 136.66 123.546C137.045 123.386 137.457 123.304 137.874 123.304Z" fill="black"/>
<path d="M138.034 52.9784C138.034 55.7861 135.758 58.0623 132.95 58.0623C130.142 58.0623 127.866 55.7861 127.866 52.9784C127.866 50.1706 130.142 47.8944 132.95 47.8944C135.758 47.8944 138.034 50.1706 138.034 52.9784Z" fill="white" stroke="black" stroke-width="0.3"/>
<path d="M136.07 75.0971L138.412 69.7164C138.98 68.4541 139.143 67.0465 138.878 65.6876C138.613 64.3288 137.932 63.0858 136.931 62.1301C136.725 61.9267 136.506 61.7367 136.276 61.5611C135.121 60.6571 133.697 60.1645 132.23 60.1611C131.243 60.1649 130.269 60.3815 129.374 60.7961C129.297 60.8302 129.223 60.8664 129.146 60.9027C128.999 60.973 128.854 61.0497 128.714 61.1285C127.796 61.6553 127.015 62.3903 126.434 63.2742C125.853 64.1581 125.488 65.1663 125.368 66.2173L124.334 74.8776C124.074 75.5574 114.8 100.106 118.044 118.848C118.078 119.048 118.176 119.232 118.322 119.373C118.469 119.514 118.656 119.604 118.858 119.63L122.146 120.078C122.386 120.111 122.63 120.051 122.828 119.912C123.026 119.772 123.164 119.563 123.214 119.326L128.731 93.0272C128.765 92.8638 128.853 92.7166 128.981 92.6093C129.109 92.5019 129.269 92.4404 129.436 92.4348C129.603 92.4291 129.767 92.4796 129.902 92.5781C130.036 92.6766 130.134 92.8175 130.18 92.9782L137.975 120.634C138.03 120.835 138.15 121.012 138.316 121.138C138.482 121.265 138.685 121.333 138.893 121.333C138.955 121.333 139.018 121.327 139.079 121.316L143.096 120.542C143.329 120.499 143.538 120.369 143.681 120.18C143.824 119.99 143.891 119.754 143.869 119.517C143.279 112.935 140.142 79.9622 136.07 75.0971Z" fill="black"/>
<path d="M112.759 57.3515L112.762 57.3224C112.821 56.8454 113.05 56.4053 113.407 56.0827C113.772 55.7537 114.244 55.5698 114.734 55.5657C115.225 55.5615 115.7 55.7376 116.07 56.0604C116.439 56.3832 116.678 56.8303 116.74 57.3171L116.743 57.3428L116.755 57.3658L119.832 63.4607L117.824 66.4373L115.006 59.6639L114.965 59.5654L114.858 59.5718C114.567 59.5894 114.276 59.543 114.005 59.4359C113.734 59.3288 113.49 59.1635 113.29 58.9518C113.09 58.7402 112.939 58.4872 112.847 58.2107C112.755 57.9342 112.725 57.6409 112.759 57.3515Z" fill="white" stroke="black" stroke-width="0.3"/>
<path d="M132.642 82.0273L132.641 82.0274C132.154 82.0888 131.662 81.9695 131.257 81.692C130.852 81.4146 130.563 80.9983 130.445 80.5221C130.327 80.0459 130.387 79.5428 130.615 79.1081C130.843 78.6735 131.222 78.3375 131.681 78.1639L131.705 78.1548L131.725 78.1381L136.935 73.7248L140.297 74.984L134.367 79.3032L134.281 79.3661L134.312 79.4682C134.397 79.7469 134.42 80.0408 134.379 80.3292C134.338 80.6177 134.234 80.8936 134.075 81.1376C133.915 81.3816 133.705 81.5877 133.457 81.7414C133.21 81.8951 132.931 81.9927 132.642 82.0273Z" fill="white" stroke="black" stroke-width="0.3"/>
<path d="M122.625 71.4392C122.389 71.439 122.154 71.4158 121.922 71.3699C121.363 71.2634 120.837 71.0207 120.393 70.6634C119.949 70.306 119.6 69.8449 119.376 69.3207L115.278 64.3229C115.191 64.2173 115.128 64.0943 115.093 63.9623C115.057 63.8302 115.051 63.6922 115.073 63.5574C115.096 63.4226 115.147 63.2942 115.223 63.1807C115.299 63.0671 115.398 62.9712 115.514 62.8993L118.43 61.0942C118.538 61.0275 118.658 60.9829 118.783 60.9627C118.908 60.9426 119.036 60.9475 119.159 60.977C119.282 61.0065 119.398 61.0601 119.5 61.1348C119.603 61.2094 119.689 61.3035 119.755 61.4118L122.644 66.1711L128.176 62.0825C128.617 61.8515 129.126 61.7867 129.61 61.9C130.094 62.0132 130.522 62.2969 130.814 62.6993C131.106 63.1016 131.244 63.5957 131.202 64.0913C131.161 64.5869 130.942 65.0509 130.586 65.3986L125.064 70.4355C124.416 71.0787 123.539 71.4395 122.625 71.4392Z" fill="black"/>
<path d="M137.574 78.9558C137.567 78.9558 137.559 78.9558 137.552 78.9556C137.417 78.9523 137.285 78.9209 137.164 78.8632C137.042 78.8056 136.934 78.723 136.846 78.621L134.254 75.5964C134.165 75.4934 134.1 75.3728 134.062 75.2426C134.023 75.1125 134.013 74.9757 134.032 74.8413C134.05 74.7069 134.097 74.5779 134.169 74.463C134.241 74.348 134.337 74.2497 134.45 74.1744L139.304 70.938L134.906 65.6505C134.651 65.224 134.557 64.7197 134.642 64.2297C134.727 63.7397 134.986 63.2967 135.371 62.9817C135.756 62.6668 136.241 62.5008 136.738 62.5141C137.236 62.5275 137.711 62.7192 138.079 63.0544L143.424 68.278C143.845 68.6623 144.166 69.143 144.36 69.6787C144.554 70.2145 144.615 70.7893 144.538 71.3539C144.461 71.9185 144.248 72.4559 143.918 72.9201C143.587 73.3843 143.149 73.7614 142.641 74.019L138.272 78.6547C138.182 78.7497 138.074 78.8254 137.954 78.8772C137.834 78.929 137.705 78.9557 137.574 78.9558Z" fill="black"/>
<path d="M131.619 67.661H131.619C131.584 67.661 131.549 67.6588 131.514 67.6543L131.513 67.6542C131.361 67.6357 131.217 67.574 131.099 67.4764C130.981 67.3787 130.893 67.2493 130.847 67.1034L130.846 67.1026L128.898 61.13C128.898 61.1299 128.898 61.1299 128.898 61.1298C128.861 61.0133 128.867 60.8872 128.915 60.7747C128.963 60.6623 129.05 60.571 129.16 60.5178L129.223 60.4882L129.223 60.4882L129.223 60.488C129.28 60.4607 129.336 60.4345 129.392 60.4096L129.392 60.4096L129.394 60.4086C130.282 59.9965 131.25 59.7815 132.229 59.7784C133.5 59.7808 134.742 60.154 135.804 60.8523C135.916 60.9274 135.995 61.0438 136.023 61.1763C136.051 61.309 136.025 61.4473 135.952 61.5615L135.952 61.5617L132.297 67.2871L132.297 67.2879C132.225 67.4023 132.125 67.4966 132.006 67.5619C131.888 67.6271 131.755 67.6612 131.619 67.661ZM131.619 67.811C131.577 67.811 131.536 67.8084 131.495 67.8031L131.619 67.811Z" fill="white" stroke="black" stroke-width="0.3"/>
<path d="M138.962 48.9279C140.117 48.9279 141.054 47.9913 141.054 46.836C141.054 45.6807 140.117 44.7441 138.962 44.7441C137.807 44.7441 136.87 45.6807 136.87 46.836C136.87 47.9913 137.807 48.9279 138.962 48.9279Z" fill="black"/>
<path d="M131.791 44.5367C130.321 44.5367 128.912 45.1205 127.873 46.1595C126.834 47.1986 126.25 48.6078 126.25 50.0773V52.4214H129.133L130.512 50.0773L130.926 52.4214H139.675L137.331 50.0773C137.331 48.6078 136.747 47.1986 135.708 46.1595C134.669 45.1205 133.26 44.5367 131.791 44.5367Z" fill="black"/>
<path d="M140.037 45.4031C140.268 44.6797 140.747 44.0611 141.389 43.6559C142.032 43.2507 142.796 43.085 143.549 43.1878C144.882 43.4107 145.936 44.4823 146.564 45.6792C147.192 46.876 147.482 48.2156 147.904 49.4996C148.327 50.7836 148.925 52.0746 149.991 52.9057C151.057 53.7369 152.693 53.9623 153.74 53.1073C153.62 53.9984 153.223 54.8293 152.605 55.4826C151.988 56.1359 151.18 56.5784 150.297 56.7476C149.414 56.9168 148.5 56.8041 147.685 56.4255C146.87 56.0468 146.194 55.4214 145.753 54.6376C145.201 53.6549 145.058 52.5031 144.894 51.3877C144.731 50.2723 144.518 49.1182 143.858 48.2039C143.199 47.2896 141.964 46.6924 140.917 47.1089L140.037 45.4031Z" fill="black"/>
<path d="M72.0161 48.5946C70.109 48.5944 68.28 47.8366 66.9315 46.4881C65.583 45.1395 64.8254 43.3105 64.8253 41.4034C64.8252 40.1027 64.8261 39.1082 64.8281 38.9668C64.8887 34.5116 66.0107 30.1351 68.101 26.2003C64.6666 30.9019 62.7782 36.5546 62.6971 42.3763C62.6951 42.5178 62.6942 43.5122 62.6943 44.8129C62.6944 46.7201 63.452 48.5491 64.8005 49.8976C66.149 51.2462 67.978 52.0039 69.8851 52.0042C71.4522 52.0036 72.9763 51.4915 74.2259 50.5457C75.4754 49.5999 76.3821 48.272 76.8082 46.7639C75.4915 47.9447 73.7846 48.5967 72.0161 48.5946Z" fill="black"/>
<path d="M91.3667 29.6439C93.5715 29.7492 95.7177 30.3881 97.6212 31.5055C99.5247 32.623 101.129 34.1858 102.295 36.0597C103.461 37.9335 104.156 40.0625 104.318 42.2638C104.481 44.4651 104.106 46.6729 103.228 48.6977C104.499 47.2049 105.433 45.4555 105.967 43.5689C106.5 41.6822 106.621 39.7027 106.32 37.7652C106.02 35.8277 105.305 33.9778 104.225 32.3417C103.144 30.7055 101.724 29.3215 100.06 28.2841C98.3962 27.2467 96.5283 26.5802 94.5837 26.3301C92.639 26.08 90.6633 26.2522 88.7912 26.8348C86.9191 27.4175 85.1946 28.397 83.7354 29.7066C82.2762 31.0161 81.1164 32.6249 80.3353 34.4233C81.6854 32.8351 83.3821 31.5783 85.2947 30.7496C87.2074 29.921 89.2847 29.5427 91.3667 29.6439Z" fill="black"/>
<path d="M93.5789 93.3451C91.6334 93.3456 89.7657 92.5812 88.3787 91.2169C86.9918 89.8525 86.1968 87.9977 86.1652 86.0524C86.075 80.4146 86.0283 73.4685 86.0283 72.6746C86.027 70.7434 86.305 68.8221 86.8537 66.9704L86.8511 66.9698C87.1751 66.0404 87.5664 65.1358 88.0219 64.2632C86.6236 66.1266 85.5108 68.188 84.7201 70.3793L84.7227 70.38C84.1741 72.2317 83.896 74.1529 83.8973 76.0842C83.8973 76.8781 83.944 83.8242 84.0342 89.462C84.0658 91.4072 84.8608 93.2621 86.2477 94.6264C87.6347 95.9908 89.5024 96.7551 91.4479 96.7547C93.052 96.7544 94.6128 96.2341 95.8961 95.2717C97.1795 94.3093 98.1162 92.9567 98.5658 91.4169C97.2026 92.6599 95.4236 93.3477 93.5789 93.3451Z" fill="black"/>
<path d="M30.6515 114.221L29.4455 123.998L27.1158 123.998L27.1152 114.221L30.6515 114.221Z" fill="white" stroke="black" stroke-width="0.3"/>
<path d="M34.6167 126.573L26.4059 126.574L26.4057 123.401L31.4442 123.401C32.2856 123.401 33.0925 123.735 33.6874 124.33C34.2824 124.925 34.6167 125.732 34.6167 126.573L34.6167 126.573Z" fill="black"/>
<path d="M21.2753 114.221L20.0693 123.998L17.7396 123.998L17.7389 114.221L21.2753 114.221Z" fill="white" stroke="black" stroke-width="0.3"/>
<path d="M25.2405 126.573L17.0297 126.574L17.0295 123.401L22.068 123.401C22.9093 123.401 23.7163 123.735 24.3112 124.33C24.9062 124.925 25.2404 125.732 25.2405 126.573L25.2405 126.573Z" fill="black"/>
<path d="M19.8727 121.049L17.3208 120.914C17.1892 120.908 17.0603 120.875 16.9416 120.817C16.8228 120.76 16.7166 120.68 16.629 120.582C16.5414 120.483 16.4743 120.369 16.4314 120.244C16.3885 120.119 16.3708 119.987 16.3793 119.856L19.4293 86.0872L33.4748 89.8772L34.828 89.5081L30.5962 119.403C30.5602 119.627 30.4485 119.833 30.2796 119.986C30.1108 120.139 29.8949 120.23 29.6675 120.243L26.9166 120.371C26.7791 120.379 26.6415 120.358 26.5124 120.31C26.3834 120.261 26.2658 120.187 26.167 120.091C26.0683 119.995 25.9905 119.879 25.9386 119.752C25.8868 119.624 25.862 119.487 25.8658 119.349L26.3642 101.407C26.3665 101.324 26.3377 101.243 26.2834 101.181C26.2291 101.118 26.1532 101.078 26.0708 101.068C25.9884 101.058 25.9053 101.08 25.838 101.129C25.7707 101.177 25.724 101.249 25.7072 101.33L20.9003 120.256C20.855 120.481 20.7331 120.683 20.5556 120.827C20.378 120.972 20.1557 121.051 19.9266 121.05C19.9088 121.05 19.8908 121.05 19.8727 121.049Z" fill="black"/>
<path d="M32.5189 53.2232C32.5189 56.0309 30.2428 58.3071 27.435 58.3071C24.6273 58.3071 22.3511 56.0309 22.3511 53.2232C22.3511 50.4154 24.6273 48.1393 27.435 48.1393C30.2428 48.1393 32.5189 50.4154 32.5189 53.2232Z" fill="white" stroke="black" stroke-width="0.3"/>
<path d="M18.7207 68.6002L19.2961 81.0168L19.5042 85.5342C19.5125 85.7309 19.5792 85.9206 19.6959 86.0791C19.8127 86.2376 19.974 86.3577 20.1593 86.424L33.6561 91.3132C33.7651 91.3537 33.8807 91.374 33.997 91.3729C34.1299 91.3736 34.2616 91.3474 34.3842 91.296C34.5068 91.2447 34.6178 91.1691 34.7106 91.0739C34.8033 90.9786 34.876 90.8657 34.9241 90.7418C34.9723 90.6178 34.9949 90.4855 34.9908 90.3526L34.4375 68.0269C34.4011 66.1952 33.7268 64.4336 32.5309 63.0457C31.3349 61.6579 29.6923 60.7307 27.886 60.4242C27.7555 60.4043 27.6227 60.3843 27.4898 60.3666C26.3698 60.2276 25.2329 60.3357 24.1592 60.6833C23.0854 61.0309 22.1009 61.6095 21.2748 62.3785C20.4195 63.1653 19.7473 64.1303 19.306 65.2054C18.8646 66.2804 18.6648 67.4393 18.7207 68.6002L18.7207 68.6002Z" fill="#CCCCCC"/>
<path d="M40.1036 88.8355C39.7844 88.7365 39.4928 88.5642 39.252 88.3324C39.0111 88.1006 38.8279 87.8157 38.7167 87.5005C38.6056 87.1853 38.5696 86.8484 38.6118 86.5168C38.654 86.1853 38.7731 85.8682 38.9596 85.5908L34.3826 79.5047L38.3322 79.2603L42.073 85.0772C42.4735 85.3868 42.7522 85.8276 42.8602 86.3221C42.9682 86.8167 42.8986 87.3334 42.6636 87.7818C42.4287 88.2302 42.0434 88.5815 41.5753 88.7742C41.1071 88.9669 40.5861 88.9886 40.1036 88.8355H40.1036Z" fill="#F1F1F1"/>
<path d="M36.8858 84.4894C36.7646 84.4402 36.6543 84.3674 36.5613 84.2753C36.4684 84.1831 36.3946 84.0735 36.3443 83.9527L29.4489 67.524C29.3136 67.2024 29.243 66.8572 29.2411 66.5083C29.2393 66.1593 29.3062 65.8134 29.4381 65.4903C29.57 65.1673 29.7643 64.8734 30.0098 64.6254C30.2554 64.3775 30.5474 64.1803 30.8691 64.0453C31.1909 63.9102 31.5361 63.8399 31.8851 63.8383C32.234 63.8368 32.5799 63.904 32.9028 64.0361C33.2258 64.1683 33.5196 64.3628 33.7673 64.6085C34.0151 64.8543 34.212 65.1464 34.3468 65.4683L41.2423 81.8972C41.3442 82.1407 41.3453 82.4148 41.2454 82.6592C41.1455 82.9037 40.9528 83.0985 40.7094 83.2009L37.6482 84.4857C37.5277 84.5367 37.3982 84.5633 37.2674 84.5639C37.1365 84.5646 37.0068 84.5392 36.8858 84.4894L36.8858 84.4894Z" fill="#CCCCCC"/>
<path d="M25.7524 83.9098L32.3753 71.2286C32.503 70.9847 32.7223 70.8015 32.9849 70.719C33.2476 70.6366 33.5323 70.6617 33.7764 70.7889L43.3896 75.8095C43.6335 75.9372 43.8167 76.1565 43.8992 76.4191C43.9816 76.6818 43.9565 76.9664 43.8293 77.2106L37.2064 89.8918C37.0787 90.1357 36.8594 90.319 36.5968 90.4014C36.3341 90.4838 36.0494 90.4587 35.8053 90.3315L26.1921 85.3109C25.9482 85.1832 25.765 84.964 25.6825 84.7013C25.6001 84.4386 25.6252 84.154 25.7524 83.9098Z" fill="black"/>
<path d="M30.0536 78.169L30.0539 78.1699C30.2226 78.6096 30.2311 79.0947 30.0779 79.54C29.9246 79.9854 29.6195 80.3626 29.216 80.6054C28.8124 80.8483 28.3363 80.9413 27.871 80.8681C27.4058 80.795 26.9811 80.5604 26.6715 80.2055L26.6545 80.186L26.632 80.1733L20.6811 76.8257L20.6909 73.2351L26.8044 77.2907L26.8934 77.3497L26.9782 77.285C27.2255 77.0966 27.5134 76.9686 27.8189 76.9113C28.1245 76.8539 28.4392 76.8688 28.7379 76.9547C29.0367 77.0405 29.3112 77.1951 29.5397 77.4059C29.7681 77.6167 29.9441 77.8781 30.0536 78.169Z" fill="white" stroke="black" stroke-width="0.3"/>
<path d="M22.1706 79.0061L16.9845 74.898C16.4234 74.7096 15.9165 74.3879 15.5071 73.9605C15.0978 73.533 14.7983 73.0127 14.6344 72.444C14.4704 71.8753 14.4469 71.2754 14.5659 70.6956C14.6848 70.1159 14.9427 69.5737 15.3173 69.1155L20.0262 62.9443C20.3534 62.5444 20.8136 62.2757 21.3226 62.1872C21.8317 62.0987 22.3556 62.1963 22.7986 62.4623C23.2416 62.7283 23.574 63.1448 23.7352 63.6357C23.8964 64.1266 23.8756 64.6591 23.6764 65.1359L19.9507 71.2305L25.426 73.8275C25.5533 73.8879 25.6664 73.9746 25.7577 74.0819C25.849 74.1892 25.9166 74.3147 25.9558 74.4501C25.995 74.5854 26.0051 74.7275 25.9853 74.867C25.9656 75.0066 25.9164 75.1403 25.8412 75.2594L23.631 78.7572C23.5562 78.8753 23.4576 78.9763 23.3413 79.0538C23.2251 79.1313 23.0938 79.1835 22.9561 79.2071C22.9507 79.2081 22.9452 79.2089 22.9397 79.2097C22.8044 79.2302 22.6663 79.2226 22.534 79.1876C22.4017 79.1526 22.278 79.0908 22.1706 79.0061Z" fill="#CCCCCC"/>
<path d="M23.4799 56.7279C23.4575 56.6622 23.4504 56.5922 23.4591 56.5233C23.4679 56.4544 23.4923 56.3885 23.5305 56.3305C23.5686 56.2725 23.6196 56.224 23.6794 56.1888C23.7392 56.1535 23.8063 56.1324 23.8755 56.1271C24.0173 56.1348 24.156 56.1712 24.2833 56.234C24.4106 56.2968 24.5239 56.3848 24.6163 56.4926C24.8057 56.711 25.0262 56.9003 25.2707 57.0545C25.5239 57.1822 25.8673 57.164 26.0116 56.9207C26.1472 56.6922 26.0543 56.3862 25.9723 56.1208C25.7635 55.4456 25.6466 54.7453 25.6249 54.0388C25.6013 53.2503 25.7125 52.4274 26.1491 51.8124C26.7125 51.0186 27.7199 50.7173 28.6733 50.7391C29.6267 50.761 30.5647 51.0553 31.5091 51.2413C31.8351 51.3056 32.2183 51.3384 32.4364 51.0857C32.6682 50.817 32.5831 50.3822 32.4844 50.0194C32.2285 49.0781 31.957 48.1048 31.3624 47.3446C30.7195 46.5546 29.8012 46.0376 28.7923 45.8976C27.8237 45.7776 26.8405 45.8893 25.9235 46.2233C24.4294 46.6942 23.1148 47.6101 22.1553 48.8484C21.1662 50.1653 20.7389 51.8202 20.9666 53.4513C21.1891 54.872 21.9419 56.1554 23.0733 57.043L23.4799 56.7279Z" fill="black"/>
<path d="M89.7695 124.189C88.377 123.583 87.1445 122.661 86.1692 121.497C85.194 120.332 84.5027 118.957 84.15 117.48C83.7972 116.002 83.7926 114.463 84.1366 112.984C84.4805 111.505 85.1636 110.125 86.1318 108.955C85.0092 109.775 84.0737 110.824 83.3875 112.033C82.7014 113.242 82.2801 114.582 82.1518 115.967C82.0235 117.351 82.191 118.746 82.6432 120.061C83.0955 121.375 83.8221 122.578 84.7749 123.59C85.7276 124.602 86.8848 125.4 88.1695 125.931C89.4542 126.462 90.8371 126.713 92.2264 126.668C93.6157 126.624 94.9796 126.284 96.2277 125.672C97.4757 125.06 98.5793 124.19 99.4651 123.118C98.0834 124.128 96.4612 124.759 94.7601 124.947C93.059 125.134 91.3383 124.873 89.7695 124.189Z" fill="black"/>
</svg>
