<svg width="15" height="21" viewBox="0 0 15 21" fill="none" xmlns="http://www.w3.org/2000/svg">
<path d="M7.32031 0C3.28186 0 0 3.28194 0 7.32031C0 8.68677 0.378297 10.0167 1.09809 11.1635L6.82407 20.5341C6.92176 20.6927 7.06817 20.7903 7.23901 20.8147C7.47074 20.8513 7.72707 20.7537 7.86124 20.5219L13.6036 11.0659C14.2868 9.94346 14.6406 8.63801 14.6406 7.32031C14.6406 3.28194 11.3588 0 7.32031 0ZM7.32031 10.9805C5.2707 10.9805 3.66015 9.32119 3.66015 7.32031C3.66015 5.30718 5.30718 3.66015 7.32031 3.66015C9.33344 3.66015 10.9805 5.30718 10.9805 7.32031C10.9805 9.30899 9.39436 10.9805 7.32031 10.9805Z" fill="#FD003A"/>
<path d="M7.32031 0V3.66016C9.33344 3.66016 10.9805 5.30718 10.9805 7.32031C10.9805 9.30899 9.39436 10.9805 7.32031 10.9805V20.8218C7.52849 20.8267 7.74257 20.7269 7.8612 20.5219L13.6036 11.0659C14.2868 9.94346 14.6406 8.63801 14.6406 7.32031C14.6406 3.28194 11.3588 0 7.32031 0Z" fill="#E50027"/>
</svg>
