<svg width="37" height="53" viewBox="0 0 37 53" fill="none" xmlns="http://www.w3.org/2000/svg">
<path fill-rule="evenodd" clip-rule="evenodd" d="M3.38063 51.5044C9.20179 52.3889 15.1286 52.4334 20.998 52.1122C23.3209 51.9382 25.651 51.907 27.9722 52.1293C29.3437 52.2313 35.3572 52.6911 35.8484 51.4624C35.5392 44.9187 34.9128 38.3191 32.9917 32.0257C32.2014 29.791 31.5227 27.9363 29.9806 26.0871C29.4947 25.5822 28.4465 24.5233 27.8458 24.1778C27.3255 23.8788 27.1081 23.9855 26.8092 23.4801C26.5125 22.9219 26.2934 21.9897 25.872 21.5959C25.4426 21.1948 24.8065 21.3382 24.0182 21.4675C24.163 19.5093 23.2595 19.0105 22.0148 18.6382C19.8267 17.8028 17.666 18.2225 17.1153 20.8871C16.0941 20.8871 15.5206 21.3266 14.9006 21.7491C14.6471 21.9216 14.8234 22.3615 14.5205 22.4971C13.9605 22.6966 12.9706 22.6479 12.4312 22.8934C9.97867 24.0099 7.79424 25.6293 6.35968 27.9939C3.14355 33.0427 0.934294 43.6779 1.3166 49.6619C1.1491 49.9247 1.38073 50.3016 1.4396 50.584C1.51392 50.8299 1.75456 50.9933 2.00573 50.9653C2.3562 51.3424 2.89831 51.4263 3.38063 51.5044Z" fill="white"/>
<path fill-rule="evenodd" clip-rule="evenodd" d="M27.4753 24.0298C27.4394 24.01 27.4711 23.959 27.5069 23.9758C29.2332 24.7859 30.5576 26.2074 31.4894 27.8497C32.4545 29.5504 33.0043 31.481 33.4784 33.3682L33.4957 33.4365C34.0013 35.4553 34.4311 37.495 34.8181 39.5395C35.2102 41.6101 35.5246 43.6934 35.7777 45.7854C35.903 46.8198 36.0145 47.856 36.1016 48.8943C36.1451 49.4131 36.1847 49.9323 36.2202 50.4518C36.2343 50.6595 36.2478 50.8673 36.2592 51.0752L36.2674 51.2311C36.2746 51.3726 36.2912 51.5145 36.2565 51.6542C36.2263 51.7744 36.1626 51.8832 36.1065 51.9937C35.9958 52.212 35.6921 52.1761 35.5727 51.9937L35.5381 51.9406C35.459 51.8182 35.3932 51.7046 35.3683 51.5523C35.3443 51.4047 35.3434 51.2501 35.3327 51.1012C35.3129 50.8272 35.296 50.5528 35.2766 50.2787C35.2363 49.7014 35.1908 49.1246 35.1406 48.5482C35.0412 47.4106 34.9345 46.2736 34.8035 45.1389C34.5709 43.1225 34.279 41.1113 33.9348 39.1107C33.5984 37.1565 33.1733 35.2221 32.7297 33.2902L32.6837 33.0902C31.9072 29.7171 30.7103 25.8326 27.4753 24.0298ZM9.08716 37.2383C9.09986 37.2045 9.15448 37.1967 9.16372 37.2383C9.28001 37.7622 9.2915 38.3017 9.30928 38.8378C9.32679 39.3669 9.32607 39.8984 9.31837 40.4276C9.28994 42.3729 9.23657 44.3166 9.1904 46.2618C9.16733 47.2347 9.14567 48.2078 9.12905 49.1809C9.12276 49.5458 9.11749 49.9106 9.1131 50.2757L9.10772 50.757C9.10505 50.9698 9.09948 51.1801 9.07354 51.3926C9.05641 51.5325 9.01997 51.666 8.9428 51.7858C8.88803 51.8708 8.80997 51.914 8.7339 51.9718L8.71966 51.983C8.6226 52.0595 8.5204 52.0602 8.42429 51.983L8.39639 51.9608C8.30456 51.8889 8.22522 51.8328 8.16661 51.7193C8.08507 51.5614 8.07202 51.3897 8.05816 51.2157C8.03714 50.9519 8.05108 50.684 8.0538 50.4195C8.05924 49.8885 8.06658 49.3578 8.0759 48.827C8.11007 46.8804 8.17762 44.9333 8.30072 42.9903C8.35872 42.0749 8.43737 41.1567 8.54286 40.2451L8.56294 40.0743C8.59493 39.806 8.62412 39.5331 8.657 39.2592C8.16613 38.9139 7.73464 38.4948 7.36667 38.0193C7.33959 37.9842 7.3842 37.9353 7.41689 37.9691C7.79287 38.3586 8.22395 38.6691 8.70121 38.9131C8.77941 38.3398 8.88693 37.7698 9.08716 37.2383ZM17.288 19.8862C17.2948 19.8809 17.3053 19.8786 17.3116 19.8862C17.4173 20.0092 17.3958 20.1973 17.3992 20.3534L17.3996 20.3677C17.4072 20.5957 17.4086 20.823 17.4078 21.0512L17.4055 21.7774C17.4051 21.8771 17.397 21.9811 17.4021 22.0815L17.4049 22.1205C17.4603 22.1773 17.486 22.2593 17.4673 22.3418C17.4639 22.4474 17.4086 22.5356 17.3281 22.591L17.5008 22.8363L17.6738 23.0814C18.03 23.5869 18.3904 24.0883 18.766 24.5801C19.1488 25.0814 19.5573 25.5639 19.9848 26.0279C20.1936 26.2546 20.406 26.4782 20.6234 26.6967C20.7118 26.7855 20.8023 26.8722 20.8917 26.9597L20.9809 27.0479C21.0334 27.1004 21.0997 27.1525 21.1347 27.2191C21.1551 27.2585 21.1598 27.3556 21.1672 27.3716C21.2332 27.5167 21.1205 27.7478 20.9337 27.6755L20.9421 27.6698C20.9763 27.6462 20.9544 27.6458 20.8767 27.6688C20.8276 27.6685 20.7816 27.6574 20.7388 27.635L20.7259 27.6281C20.6656 27.5973 20.6116 27.5378 20.5625 27.4901L20.5503 27.4785C20.4379 27.3733 20.3309 27.2617 20.2232 27.1516C19.9985 26.9219 19.779 26.6874 19.5662 26.4466C19.1421 25.9663 18.7399 25.4663 18.3592 24.9508C17.9711 24.4259 17.6107 23.874 17.3007 23.2995C17.183 23.0814 17.075 22.8591 16.9717 22.6343C16.7702 22.5697 16.7236 22.3555 16.7376 22.1142C16.6633 21.9413 16.5965 21.7645 16.5568 21.5842C16.5515 21.5595 16.5832 21.5361 16.6022 21.5578C16.6667 21.631 16.7262 21.7088 16.7835 21.7888C16.8181 21.6196 16.8618 21.464 16.8824 21.3646L16.9717 20.9266C16.4689 20.9004 15.9178 21.1071 15.571 21.4688C15.5525 21.5631 15.4799 21.6306 15.4093 21.7188C15.3285 21.8194 15.2581 21.9324 15.2056 22.0505C15.0889 22.3124 15.1547 22.6984 14.9286 22.8905C14.905 22.9106 14.8787 22.9245 14.8517 22.9331C14.9588 23.4593 14.9101 24.0393 14.9078 24.5733V24.6204C14.9082 25.2178 14.8884 25.816 14.8652 26.4132L14.8417 27.0042C14.8114 27.7923 14.7915 28.5809 14.8681 29.3646C15.2176 29.055 15.5791 28.7593 15.953 28.4778C16.1989 28.2926 16.4497 28.114 16.7049 27.9421L16.9124 27.8035C17.161 27.6367 17.4156 27.465 17.6879 27.3457C18.0439 27.1896 18.3824 27.2432 18.7259 27.4032C19.0682 27.5629 19.4004 27.7481 19.7362 27.921C20.0776 28.0969 20.4199 28.2711 20.7618 28.4459C20.9883 28.5617 21.3203 28.6663 21.4865 28.8796C21.497 28.8323 21.5095 28.7853 21.5238 28.7385C21.5073 28.667 21.5137 28.5898 21.5537 28.5162C22.112 27.4899 22.6287 26.4392 23.1416 25.3897C23.4013 24.8587 23.648 24.3213 23.9083 23.7905L24.1611 23.2735C24.2033 23.1873 24.2457 23.1012 24.2883 23.0154C24.352 22.8867 24.4184 22.7593 24.483 22.6309C24.5104 22.5767 24.5446 22.5229 24.5711 22.4683L24.5836 22.4407C24.5842 22.4394 24.6456 22.2466 24.5981 22.265L24.5941 22.2669C24.5699 22.2806 24.5507 22.2502 24.5663 22.2308C24.6331 22.1479 24.7264 22.2213 24.7645 22.2979C24.8698 22.5088 24.677 22.8399 24.6028 23.0417L24.5988 23.0531C24.3687 23.7046 24.108 24.3441 23.841 24.9814C23.3291 26.203 22.7793 27.406 22.2305 28.6109L22.224 28.6315C22.341 28.5419 22.4659 28.4605 22.5728 28.3812C22.8428 28.1813 23.1205 27.991 23.3979 27.8014C23.9066 27.4538 24.4288 27.1293 24.9598 26.8173L25.0661 26.7551C25.3314 26.6005 25.5942 26.4753 25.9091 26.5217C26.2014 26.5647 26.4735 26.722 26.7377 26.8496L26.765 26.8627L27.5816 27.251C27.4943 26.9028 27.3998 26.5562 27.3011 26.211C27.1087 25.5376 26.8972 24.8699 26.6677 24.2083C26.4535 23.5899 26.2217 22.9783 25.9766 22.3717L25.9028 22.1895C25.803 21.9398 25.7037 21.6675 25.4181 21.5905C25.1326 21.5135 24.8052 21.6276 24.5444 21.4648C24.5207 21.4501 24.5237 21.411 24.5524 21.4039L24.7133 21.3632C25.0155 21.2881 25.3698 21.2124 25.6556 21.2856C25.9665 21.3653 26.2238 21.6262 26.3748 21.8976C26.5424 22.1996 26.6608 22.5375 26.7879 22.8595L26.8082 22.9101C26.9543 23.2746 27.0948 23.6409 27.2294 24.0098C27.4983 24.7471 27.7429 25.4933 27.9646 26.2462C28.0713 26.609 28.1725 26.9736 28.27 27.3389C28.2978 27.4441 28.344 27.5715 28.382 27.7044C28.4252 27.7468 28.4663 27.794 28.5049 27.848C28.5688 27.9374 28.523 28.0423 28.4435 28.0958C28.4404 28.1872 28.4201 28.2732 28.3714 28.347C28.1818 28.6349 27.6807 28.5607 27.7009 28.1737C27.7041 28.1144 27.7273 28.0579 27.7621 28.01L27.761 28.0024L27.7573 27.9881C27.6702 27.9465 27.5828 27.8999 27.4907 27.8544L26.6338 27.4309C26.3855 27.3081 26.1105 27.1185 25.8344 27.0717C25.5771 27.0282 25.3057 27.22 25.0847 27.3357L25.0703 27.3431C24.5359 27.6171 24.0053 27.9003 23.477 28.1857C23.219 28.3251 22.9645 28.4704 22.7074 28.6113C22.4927 28.7294 22.2607 28.8985 22.0192 28.9652C21.9161 29.0453 21.7935 29.0346 21.695 28.974C21.74 29.2529 21.7372 29.5388 21.7511 29.824C21.7697 30.2051 21.7724 30.5872 21.7786 30.9688L21.7811 31.1118C21.7973 31.9554 21.806 32.7992 21.8094 33.643C21.8207 36.6478 21.7874 39.6533 21.7798 42.6581C21.7758 44.1677 21.7459 45.6786 21.7066 47.1877C21.69 47.8271 21.6554 48.4657 21.6179 49.1043L21.5972 49.4525C21.5533 50.1873 21.5276 50.9303 21.3916 51.6552C21.3738 51.7497 21.214 51.7522 21.1982 51.6552C21.0731 50.8785 21.0661 50.0846 21.0421 49.2988L21.037 49.1417C21.0081 48.2978 20.9944 47.4547 20.9974 46.6104C21.0079 43.6044 21.0862 40.6005 21.1501 37.5956C21.1821 36.0857 21.2036 34.5752 21.2536 33.0658C21.2785 32.3105 21.3068 31.5559 21.3403 30.8009C21.3553 30.4639 21.3696 30.127 21.3922 29.7907L21.4021 29.6464C21.4091 29.5523 21.4148 29.4593 21.4215 29.3672C21.1176 29.4783 20.8396 29.2727 20.5661 29.132C20.2508 28.9698 19.9357 28.8072 19.6204 28.6454L19.3049 28.4837L18.6732 28.1614C18.3889 28.0161 18.1698 27.8716 17.8665 28.0421C16.7738 28.6552 15.7697 29.4711 14.8599 30.3274C14.6853 30.4917 14.3166 30.4476 14.2725 30.1724C14.0837 28.9966 14.1985 27.8039 14.2949 26.6248L14.3304 26.1869C14.3735 25.6639 14.4204 25.1411 14.4828 24.6204C14.5108 24.3873 14.5387 24.1545 14.5695 23.9221L14.5931 23.7476C14.6317 23.472 14.6568 23.198 14.7388 22.9338C14.7129 22.9253 14.688 22.9116 14.6658 22.8905C14.419 22.6564 14.538 22.25 14.6505 21.9714C14.7618 21.6964 14.9312 21.4564 15.1435 21.2499C15.1899 21.2048 15.2551 21.1757 15.3207 21.1742C15.8355 20.833 16.4003 20.6628 16.9879 20.849C17.0046 20.7701 17.0212 20.6912 17.0391 20.6126L17.0571 20.5339C17.1028 20.3388 17.1197 20.0165 17.288 19.8862ZM22.5638 50.6969C22.7236 50.6528 22.8985 50.6992 23.0155 50.8162C23.1326 50.9333 23.1788 51.1083 23.1349 51.268C23.1127 51.3469 23.0731 51.415 23.0155 51.473C22.9617 51.5266 22.8989 51.5645 22.8274 51.5875L22.8107 51.5926L22.7846 51.6033C22.7044 51.6248 22.6243 51.6248 22.5444 51.6033C22.4678 51.5818 22.4014 51.5432 22.3448 51.4871C22.289 51.4308 22.2501 51.3642 22.2286 51.2876C22.2071 51.2075 22.2071 51.1273 22.2286 51.0474L22.2396 51.0212C22.2617 50.9426 22.3014 50.8742 22.359 50.8162C22.417 50.7587 22.4851 50.7188 22.5638 50.6969ZM32.0487 34.773C32.0749 34.7429 32.1175 34.7815 32.1012 34.8135C31.8524 35.3016 31.575 35.786 31.3025 36.2616C31.3243 36.3934 31.346 36.5242 31.3709 36.6516C31.477 37.1948 31.6071 37.7282 31.6919 38.2766C31.9966 40.2475 32.1548 42.2401 32.2906 44.2287C32.4269 46.2247 32.4442 48.2213 32.4646 50.2211C32.4665 50.3944 32.3332 50.5959 32.1546 50.6285C32.0728 50.6435 32.0116 50.6406 31.93 50.6285C31.7442 50.6011 31.628 50.3881 31.6199 50.2211C31.5668 49.1035 31.4951 47.9872 31.412 46.8713C31.2648 44.893 31.1747 42.9093 31.0558 40.9289L31.014 40.2367C30.9691 39.4867 30.928 38.7361 30.9145 37.9851C30.9056 37.4874 30.9322 36.9901 30.916 36.493C30.9008 36.034 30.8542 35.535 30.9554 35.0841C30.9592 35.0672 30.9858 35.063 30.9936 35.0793C31.0986 35.3007 31.1652 35.5414 31.2167 35.7871C31.4877 35.4441 31.7636 35.1006 32.0487 34.773ZM14.2973 22.6514C14.3353 22.6484 14.3338 22.7056 14.2973 22.7098C13.7654 22.7716 13.2517 22.9882 12.7495 23.1721L12.7065 23.1877C12.1991 23.372 11.7045 23.5861 11.2285 23.8413C10.2979 24.3403 9.44325 24.9837 8.68765 25.7204C5.67091 28.6611 4.29611 32.9017 3.28871 36.8867C2.72899 39.1008 2.33096 41.3524 2.07298 43.6211C1.9454 44.7431 1.85522 45.8693 1.80264 46.9974C1.77573 47.5755 1.75875 48.1542 1.75167 48.7329C1.74802 49.0293 1.74694 49.3258 1.7473 49.6223C1.74749 49.7581 1.77172 49.9292 1.73541 50.061C1.70173 50.1833 1.60673 50.2909 1.53646 50.3927C1.4532 50.5134 1.30352 50.5071 1.21909 50.3927L1.18794 50.351C1.09789 50.2316 1.00979 50.1173 0.996929 49.961C0.983157 49.7936 0.99288 49.6211 0.992247 49.453C0.990813 49.114 0.99501 48.7753 1.00178 48.4364C1.01483 47.7872 1.04042 47.1383 1.07842 46.49C1.15559 45.1744 1.28262 43.8613 1.4645 42.5562C1.78782 40.2361 2.27241 37.9381 2.90717 35.6833C3.50603 33.5563 4.21546 31.4355 5.22611 29.4652C6.16448 27.6359 7.39551 25.9341 9.01986 24.6556C9.77525 24.061 10.5975 23.5656 11.4841 23.1923C11.9312 23.0042 12.4008 22.8507 12.8783 22.7629C13.3505 22.6765 13.8207 22.6885 14.2973 22.6514ZM22.6553 46.9371C22.7397 46.9365 22.8337 46.955 22.9061 47.0016L23.0029 47.0765C23.029 47.11 23.055 47.144 23.0811 47.1777C23.1414 47.2566 23.1494 47.3842 23.1368 47.4781C23.134 47.5407 23.1155 47.5991 23.0811 47.6531L23.0075 47.7484C22.9366 47.8062 22.8776 47.8474 22.792 47.8752C22.7472 47.8897 22.704 47.8927 22.661 47.8904L22.6466 47.8895L22.6553 47.8908L22.6403 47.8891C22.6262 47.8878 22.6123 47.8864 22.5981 47.8845C22.5886 47.8832 22.5789 47.8824 22.5695 47.8811C22.5602 47.8805 22.5513 47.88 22.5418 47.8809C22.433 47.8912 22.3235 47.8294 22.2461 47.7584C22.1765 47.6945 22.1141 47.5588 22.1238 47.4627L22.128 47.4224C22.1352 47.3547 22.1413 47.3279 22.17 47.26C22.1978 47.1938 22.2369 47.1351 22.29 47.0858C22.3915 46.9913 22.5159 46.9382 22.6553 46.9371ZM22.3183 41.9767C22.4627 41.8191 22.711 41.8075 22.8902 41.9028C22.9339 41.9262 22.974 41.9634 23.0126 41.9946C23.1096 42.073 23.1475 42.2145 23.153 42.3337C23.1583 42.4516 23.0961 42.5916 23.0126 42.6731L22.9923 42.6927C22.9423 42.7414 22.8708 42.7836 22.8008 42.7964C22.6882 42.8171 22.5935 42.8165 22.4887 42.7722C22.3984 42.7342 22.3208 42.6731 22.2679 42.59L22.2594 42.576C22.2556 42.5701 22.2523 42.5642 22.2491 42.5581L22.2445 42.549C22.1441 42.3559 22.1711 42.1371 22.3183 41.9767ZM22.3931 36.9903C22.4583 36.9698 22.5235 36.9669 22.5886 36.9814C22.6329 36.9816 22.6741 36.9928 22.7122 37.0149C22.7538 37.0265 22.7901 37.0476 22.8204 37.078C22.8573 37.0997 22.8866 37.129 22.9084 37.1659C22.9518 37.2134 22.9811 37.2689 22.9963 37.3328L23.0138 37.4631L22.9963 37.5937L22.9468 37.7107C22.9333 37.7284 22.9196 37.7461 22.9056 37.7639C22.8839 37.8008 22.8544 37.8303 22.8175 37.8522C22.7934 37.8761 22.766 37.894 22.7352 37.9062C22.626 37.9847 22.4807 38.0102 22.3512 37.9745C22.2744 37.953 22.2078 37.914 22.1512 37.8579C22.0949 37.8012 22.0561 37.7345 22.0346 37.6578L22.0257 37.5964C22.0144 37.5141 22.0125 37.4686 22.0359 37.364C22.046 37.318 22.0757 37.253 22.0911 37.2258C22.1576 37.1092 22.2658 37.0293 22.3931 36.9903ZM28.0534 33.4028C28.2404 33.4015 28.4277 33.4017 28.6148 33.4039L28.7553 33.4057C28.9902 33.4095 29.1916 33.3853 29.3764 33.5483C29.5105 33.6668 29.4512 33.8653 29.3241 33.9545C29.1311 34.0897 28.8892 34.0218 28.6675 34.0068C28.4336 33.9912 28.1997 33.9781 27.9656 33.9676C27.5122 33.9473 27.0587 33.9343 26.6051 33.9324C26.1523 33.9305 25.6988 33.9347 25.2462 33.9421C24.7856 33.9495 24.306 33.9925 23.8479 33.9448C23.7851 33.9383 23.7708 33.8554 23.833 33.8339C24.2645 33.6846 24.7502 33.6361 25.2024 33.5791C25.6691 33.5201 26.1356 33.4783 26.6051 33.4513C27.0872 33.4237 27.5702 33.4062 28.0534 33.4028ZM22.3923 31.9355L22.4077 31.936C22.4902 31.9362 22.5671 31.9556 22.6391 31.9942L22.6544 32.0026L22.7534 32.0792C22.8139 32.1401 22.8559 32.212 22.8791 32.2949L22.8966 32.4248C22.8991 32.4921 22.885 32.555 22.8544 32.6132C22.8348 32.6739 22.801 32.7262 22.7534 32.7705C22.7091 32.8182 22.6566 32.8519 22.596 32.8717C22.5422 32.8998 22.4847 32.9141 22.4233 32.9141L22.4077 32.9137C22.3195 32.9135 22.2373 32.8911 22.1611 32.8471L22.0622 32.7705C22.0017 32.7096 21.9597 32.6376 21.9365 32.5548L21.919 32.4248C21.9165 32.3576 21.9304 32.2947 21.9612 32.2365C21.9808 32.1758 22.0146 32.1235 22.0622 32.0792C22.1065 32.0315 22.1588 31.9978 22.2196 31.9779C22.2733 31.9497 22.3309 31.9355 22.3923 31.9355ZM23.8412 20.4502C23.9464 20.2975 24.1373 20.4333 24.1101 20.5558C24.1173 20.9004 24.1348 21.2347 24.2132 21.5722C24.2491 21.7268 24.2961 21.8814 24.3687 22.0229L24.399 22.0826C24.4929 22.2679 24.5657 22.443 24.4393 22.6463C24.3798 22.7423 24.2721 22.8144 24.1554 22.8093C23.6379 22.787 23.5668 22.0663 23.5354 21.6639C23.5029 21.2497 23.6037 20.7944 23.8412 20.4502Z" fill="black"/>
<path fill-rule="evenodd" clip-rule="evenodd" d="M29.1898 11.236C29.0211 8.4634 28.1216 5.31997 25.4747 3.95866C19.6397 1.61592 11.9676 7.51563 11.5614 13.5427C11.4198 15.6058 12.5648 17.8601 14.6573 18.4336C15.1225 19.0502 15.8261 19.4267 16.5204 19.7536C24.7914 24.0465 30.1342 20.5569 29.1898 11.236Z" fill="white"/>
<path fill-rule="evenodd" clip-rule="evenodd" d="M31.0742 9.5113C30.7818 8.69915 30.4731 7.89325 30.1483 7.09356C29.8319 6.31531 29.5462 5.5202 29.1532 4.77882C26.8069 0.350793 22.5402 0.350794 20.3345 0.929365C19.1908 0.436379 17.0484 0.575427 15.8575 1.02029C13.9294 1.74048 11.579 4.57354 10.7754 5.84643C9.00122 8.6568 7.89398 12.3973 9.0725 15.645C9.22655 16.0693 9.42298 16.4624 9.64418 16.8412C9.50483 17.0302 9.34448 17.209 9.16684 17.3849C8.63893 17.9073 8.11102 18.4127 7.65496 19.0019C7.20177 19.5876 6.82607 20.2104 6.54639 20.8971C6.019 22.1921 5.99361 23.6585 6.69084 24.8941C7.29744 25.9691 8.37203 26.7699 9.58268 26.8463C9.64483 26.8549 9.70709 26.8627 9.7696 26.869C9.93 27.1333 10.1256 27.3767 10.3488 27.5889C11.0328 28.2397 12.6631 28.5736 13.593 28.5949C13.6407 28.6332 13.6888 28.6716 13.737 28.7096C14.3059 29.1576 14.9029 29.6095 15.5563 29.9282C15.9986 30.1444 16.5788 30.3249 17.0404 30.1688C17.2499 30.3089 17.5934 30.2793 17.8009 30.1648C18.1424 29.9767 18.42 29.638 18.5887 29.2913C18.9982 28.4491 18.8998 27.5279 18.7947 26.6284C18.6787 25.6348 18.5674 24.6408 18.4541 23.6473C18.3655 22.8703 18.273 22.0805 18.0367 21.332C17.9146 20.9441 17.7548 20.5715 17.5479 20.2212C17.5533 20.1918 17.5523 20.1623 17.5439 20.1347C17.4762 19.9145 17.3363 19.7991 17.1706 19.6494C17.149 19.6302 17.1277 19.6106 17.1069 19.5906C17.024 19.4961 16.9352 19.4081 16.8403 19.3337C16.8038 19.2968 16.7677 19.2592 16.7317 19.2219C16.4318 18.9077 16.1483 18.5774 15.8967 18.2233C15.6525 17.8801 15.4319 17.5218 15.222 17.1567C15.0086 16.7853 14.8673 16.3758 14.6545 16.0071C14.6361 15.9755 14.5897 15.9693 14.564 15.9955C14.498 16.0638 14.4557 16.1395 14.4636 16.2193L14.4307 16.2241C14.4182 16.1039 14.3073 16.0058 14.1567 16.0322C13.9312 16.0712 13.7459 16.086 13.5507 16.0111C13.585 15.7833 13.6166 15.5551 13.6478 15.3265C13.7049 14.9058 13.7579 14.4835 13.8033 14.0615C13.9134 14.0877 14.0226 14.1256 14.1295 14.1737C14.2819 14.242 14.4258 14.3338 14.5488 14.4466C14.6699 14.558 14.7538 14.7081 14.9017 14.7858C15.0719 14.8745 15.2773 14.7278 15.2273 14.5352C15.1263 14.1461 14.5537 13.9234 14.1995 13.8498C14.0778 13.8243 13.9535 13.8137 13.8292 13.8162C13.8573 13.5452 13.8822 13.2742 13.9027 13.0028C13.9125 12.8743 13.9214 12.7461 13.9299 12.6172C14.2053 12.5339 14.5003 12.5088 14.7867 12.5481C14.8812 12.6236 14.9757 12.698 15.067 12.7733C15.357 13.0131 15.6457 13.2542 15.9309 13.4999C15.9568 13.5216 15.9821 13.5435 16.0081 13.5657C16.1774 13.7116 16.3885 13.5672 16.3601 13.3607C16.1274 11.6696 17.163 10.3243 18.3755 9.28217C19.7174 8.12815 22.1574 7.99376 23.7533 5.9948C24.4885 6.14448 26.1295 6.58898 26.8069 7.66857C27.755 9.18144 27.6312 10.5369 27.7033 12.2531C27.7756 13.9706 27.9591 15.762 27.5692 17.4554C27.2098 19.0169 26.236 20.3509 24.7255 20.9642C24.6882 20.9794 24.6502 20.9941 24.6125 21.0085C23.8313 21.3031 22.9791 21.3864 22.1574 21.2312C21.248 21.0593 20.4887 20.643 19.7322 20.1307C19.6885 20.1018 19.6246 20.1615 19.6577 20.2051C20.6549 21.5273 22.6136 21.9689 24.1673 21.6199C24.24 21.6034 24.3122 21.5857 24.3839 21.5661C24.0363 22.5658 24.1063 23.6633 24.5589 24.6368C24.8312 25.2225 25.2465 25.7293 25.7522 26.1292C26.3096 26.5696 27.0012 26.9251 27.388 27.5435C27.7421 28.11 27.6371 28.7465 27.0305 29.0736C26.8778 29.1565 26.819 29.4246 26.9704 29.5422C27.0284 29.5867 27.0862 29.6323 27.1454 29.6768C27.485 29.933 28.4176 30.4145 28.5686 30.4323C29.9098 30.5915 30.8116 29.6064 31.3897 28.4443C32.0681 27.0804 31.8918 25.4182 31.144 24.1193C30.5444 23.077 29.3631 22.0501 29.8328 20.7311C30.0002 20.26 30.343 19.8584 30.6758 19.4954C31.0554 19.0823 31.4635 18.6955 31.8275 18.2676C32.1894 17.8428 32.5102 17.3805 32.6893 16.8473C32.9508 16.0683 32.8206 15.2257 32.6243 14.4479C32.2031 12.7782 31.6565 11.1307 31.0742 9.5113Z" fill="black"/>
</svg>
