<svg width="52" height="53" viewBox="0 0 52 53" fill="none" xmlns="http://www.w3.org/2000/svg">
<path fill-rule="evenodd" clip-rule="evenodd" d="M28.6733 19.7025C31.0508 19.5322 34.3101 20.0037 34.9977 22.7154C35.211 23.7023 35.6311 24.1354 36.337 24.7807C40.8178 30.5179 25.1844 31.4824 24.3807 25.8879C22.6876 26.5047 20.8446 26.6353 19.1506 27.2588C18.2317 27.5984 17.3986 28.134 16.6002 28.6944C13.3445 31.0076 10.1349 33.3869 6.89085 35.7167C8.14621 36.2949 10.533 38.5029 9.56043 39.9867C9.33387 40.2757 8.99758 40.4749 8.70009 40.6863L8.54324 40.7983C8.20575 41.0401 7.63765 41.4527 7.32351 41.6766L7.26558 41.7188C7.24287 41.7354 7.21724 41.7538 7.19409 41.7704C9.45954 45.0838 12.1109 48.1411 15.0518 50.8707C15.3023 51.1037 15.1997 51.6242 14.8373 51.685L14.4055 51.7484C13.0113 51.9514 11.5906 52.1343 10.1856 52.024C8.81722 51.8751 7.99265 50.6633 7.05722 49.7856C5.18926 47.8756 3.4504 45.8382 1.86658 43.6858L1.8336 43.6403C1.34066 42.9664 0.686383 42.2777 0.638499 41.4076C0.551168 41.146 0.780993 40.7711 1.00182 40.5928L1.07721 40.4839C2.26161 38.78 3.60208 37.1366 5.2815 35.9023C5.27525 35.7184 5.36023 35.5253 5.52851 35.4034L12.5472 30.322C14.3582 29.0754 16.0414 27.6101 18.0043 26.6034C20.0114 25.6366 22.2766 25.5986 24.3333 24.7918C24.3769 24.2103 25.599 24.0618 25.5604 24.1516C26.85 23.3731 27.5138 22.4465 27.7185 21.595C27.9234 20.7438 27.6688 19.9672 28.6733 19.7025ZM46.03 37.9455C48.2002 34.6786 50.2689 38.293 51.1724 40.4716C52.2399 43.4528 50.0292 47.1198 48.6012 49.69C48.0752 50.4036 47.3834 51.909 46.4562 52.0183C44.1203 52.0086 41.781 51.8442 39.4439 51.7952C37.9345 51.4206 40.0521 49.1518 41.5147 49.9804C41.9578 50.1463 42.1793 50.6496 42.6113 50.8111C42.7688 50.8447 42.7797 50.7744 42.8437 50.6178L42.8529 50.5957C42.967 50.3244 43.0777 50.0515 43.1901 49.7793C44.1419 47.435 45.1479 45.1113 46.1481 42.7886C46.3618 42.2844 46.0621 41.869 45.6724 41.5688C45.3742 41.323 44.0917 40.7235 45.3 40.9873C44.8348 39.907 45.3939 38.8106 46.03 37.9455ZM40.6418 33.4735C40.8507 33.4473 41.1191 33.6581 41.1512 33.8622C41.4178 35.5538 41.1208 37.2263 40.7647 38.881L40.6993 39.1841C40.568 39.7877 40.4212 40.4032 40.0938 40.9321C39.7595 41.472 39.2539 41.879 38.6736 42.1263C36.8114 42.8685 34.4957 42.1345 33.126 40.7467C32.2497 39.5459 33.0201 38.0375 33.1671 36.7213C33.028 36.3667 32.9768 35.9567 32.8965 35.5909L32.8867 35.5473L32.5744 34.1832C32.5054 33.8825 32.7246 33.4708 33.0849 33.5121C35.5957 33.8003 38.1337 33.7873 40.6418 33.4735Z" fill="white"/>
<path fill-rule="evenodd" clip-rule="evenodd" d="M49.4113 37.5179C49.4037 37.4841 49.444 37.4586 49.4702 37.4837C49.9119 37.9097 50.224 38.4541 50.5665 38.9585C50.8926 39.439 51.2474 39.9008 51.4907 40.431C51.7166 40.9238 51.8623 41.4238 51.9057 41.9655C51.9492 42.5032 51.8929 43.0422 51.7982 43.5718C51.6115 44.6151 51.2128 45.6032 50.7751 46.5628C50.3494 47.4957 49.8685 48.4021 49.3608 49.292L49.1787 49.6097C48.9566 49.9966 48.7322 50.3825 48.4919 50.7573C48.1928 51.2237 47.92 51.705 47.5255 52.0943C47.2455 52.3711 46.7178 52.0943 46.8453 51.6983C46.9007 51.5259 46.9443 51.3636 47.0301 51.2036C47.0953 51.0817 47.1689 50.9635 47.2379 50.8433C47.3761 50.6032 47.5131 50.362 47.6513 50.1216C47.9416 49.6168 48.2473 49.1213 48.5349 48.6148C49.0338 47.7362 49.5048 46.8411 49.9213 45.9203L49.9702 45.8114C50.3536 44.9585 50.7166 44.0751 50.885 43.1525C51.0622 42.1805 50.9035 41.2642 50.5585 40.3506C50.3798 39.8781 50.1791 39.4163 49.9704 38.9562L49.9304 38.8683C49.7288 38.4292 49.5151 37.9925 49.4113 37.5179ZM27.9598 20.7044C27.9638 20.6872 27.9929 20.686 27.9956 20.7044C28.1198 21.5299 27.8436 22.403 27.3939 23.0896C27.1486 23.4646 26.8459 23.8033 26.4892 24.0755L26.4613 24.0965C26.097 24.3689 25.6048 24.6321 25.1524 24.4553C25.1382 24.4499 25.125 24.4438 25.1126 24.4366C25.1635 24.5155 25.2105 24.5986 25.2583 24.6814C25.4005 24.9282 25.528 25.1841 25.6669 25.433C25.915 25.8785 26.2105 26.277 26.584 26.6259C28.0776 28.0206 30.1749 28.352 32.1444 28.336L32.2834 28.3348C33.1485 28.3287 34.28 28.3729 34.948 27.7465C35.3068 27.4101 35.5044 26.9317 35.683 26.4827C35.8586 26.0425 35.9785 25.5882 36.1243 25.1405C35.82 24.9318 35.5408 24.677 35.3215 24.379C35.0929 24.0688 34.9201 23.7196 34.8204 23.3467L34.8056 23.2911C34.7286 22.9938 34.651 22.6005 34.7751 22.3197C34.7894 22.2874 34.8425 22.2895 34.8576 22.3197C34.9245 22.4541 34.9373 22.6056 34.9786 22.7492C35.0264 22.9164 35.0805 23.0825 35.1518 23.2408C35.2896 23.5476 35.4716 23.8391 35.6902 24.0946C35.8705 24.306 36.0658 24.5 36.2891 24.6631C36.4208 24.4358 36.726 24.4052 36.9816 24.4801C37.3243 24.5803 37.6624 24.7089 37.9927 24.8448L38.0588 24.872C38.3853 25.0075 38.7544 25.1321 39.0602 25.3171C39.2458 25.4056 39.4239 25.4947 39.5914 25.5736C40.4259 25.9657 41.248 26.382 42.0666 26.8061L42.2419 26.8971C42.5848 27.0758 42.9246 27.2562 43.2228 27.5053C43.5265 27.7589 43.762 28.1055 43.9837 28.4304C44.4901 29.1732 44.9673 29.9375 45.4679 30.6843C46.4789 32.1914 47.49 33.6984 48.507 35.2019C48.753 35.5658 49.0302 35.9209 49.2509 36.3003C49.4623 36.6629 49.4566 37.0351 49.4153 37.4399L49.4075 37.5141C49.3287 38.2566 49.1928 38.9694 48.7765 39.6061C48.1211 40.6069 47.0886 41.23 45.9966 41.6591C46.13 41.7585 46.2552 41.8657 46.4144 41.934C46.6589 42.0387 46.9198 42.0928 47.1845 42.1144C47.4667 42.1371 47.7847 42.0666 48.0135 42.2585C48.1051 42.335 48.1079 42.5196 48.0135 42.5961C47.7937 42.7757 47.5095 42.7243 47.2417 42.6941L47.2256 42.6924C46.977 42.6649 46.7321 42.6188 46.4985 42.5276C46.441 42.5049 46.3837 42.4795 46.3284 42.4516C46.3303 42.4567 46.3311 42.4623 46.3303 42.4686C46.2902 42.774 46.2038 43.0628 46.1126 43.3545L46.0545 43.5395C45.9366 43.9172 45.8179 44.2939 45.6956 44.6705C45.4631 45.3878 45.2095 46.0983 44.9551 46.8078L44.7355 47.4202C44.5101 48.0483 44.2817 48.6756 44.0292 49.2932C43.8733 49.6745 43.7165 50.0556 43.56 50.4364C43.4071 50.8083 43.28 51.2099 43.0905 51.5641C42.9344 51.8556 42.5091 51.6469 42.5773 51.3473C42.6668 50.9542 42.8356 50.5642 42.9646 50.1816C43.0957 49.7932 43.2243 49.4046 43.3576 49.017C43.5894 48.344 43.8463 47.68 44.1047 47.0167L44.3605 46.359C44.6116 45.7147 44.8655 45.0709 45.1369 44.4348L45.1667 44.3652C45.4486 43.6999 45.7399 42.9518 46.2522 42.4363C46.2587 42.4292 46.2682 42.4256 46.2774 42.4246C46.1516 42.3564 46.0337 42.2736 45.9301 42.1757L45.9251 42.1704C45.884 42.127 45.7147 41.9131 45.6602 41.7851C45.5893 41.8103 45.5184 41.8346 45.4475 41.8585C45.324 41.9003 45.2217 41.8701 45.1493 41.804L45.0117 41.8894C44.8647 41.9791 44.7066 42.0643 44.544 42.0687C44.3394 42.0741 44.1785 41.9611 44.0692 41.7944C43.9709 41.6455 43.9124 41.4846 43.7878 41.351C43.6653 41.2199 43.5237 41.1092 43.3788 41.0037L43.2081 40.8794C42.8952 40.6508 42.5917 40.4198 42.3399 40.1181C42.2132 39.9656 42.0433 39.7846 41.9663 39.6015C41.9512 39.5663 41.942 39.5329 41.9401 39.5006C41.9233 39.6149 41.9059 39.7297 41.8887 39.8442C41.6469 41.4536 41.4515 43.0741 41.389 44.7016C41.3584 45.5044 41.3447 46.308 41.3806 47.1111C41.3982 47.5123 41.4276 47.913 41.4678 48.3128C41.4878 48.5131 41.5085 48.7131 41.5331 48.9126L41.5385 48.9587C41.5456 49.0198 41.5502 49.0789 41.545 49.1351C41.7398 49.2312 41.852 49.4742 41.9301 49.6638C41.9894 49.8083 41.9433 49.9488 41.8476 50.0503C41.9619 50.1546 42.0639 50.2768 42.1492 50.4169C42.1666 50.4452 42.1293 50.4675 42.1073 50.4496C41.9668 50.3381 41.8155 50.2462 41.6578 50.1757C41.575 50.2072 41.4846 50.2156 41.4013 50.1927C41.311 50.1678 41.2329 50.1076 41.1767 50.0308C40.7288 49.9572 40.2632 50.0472 39.8599 50.3278C39.7762 50.3863 39.7005 50.4524 39.6281 50.5241C39.6158 50.5367 39.603 50.5526 39.59 50.5681L39.6781 50.6019C39.7145 50.6157 39.7443 50.6264 39.7559 50.6287C39.8326 50.6445 39.9106 50.6529 39.9884 50.6596L40.1055 50.6692C40.5543 50.7063 41.0016 50.7187 41.4192 50.9066C41.5068 50.9461 41.4762 51.0813 41.3934 51.104C41.0886 51.1866 40.7862 51.1803 40.4758 51.1581L40.4094 51.1531C40.1208 51.131 39.8112 51.1323 39.5298 51.0526C39.5971 51.2369 39.5054 51.4777 39.224 51.5152C38.3792 51.6279 37.5288 51.5748 36.683 51.5001C35.8288 51.4249 34.975 51.3535 34.1185 51.3089C31.3481 51.1629 28.5734 51.191 25.8007 51.2306L24.2336 51.2533C22.9839 51.2709 21.7341 51.2845 20.4845 51.2751L19.8996 51.2697C19.6524 51.2671 19.4051 51.2642 19.1581 51.2569L19.01 51.252C18.7158 51.2413 18.3264 51.2856 18.0707 51.1115C17.8598 50.9679 17.8129 50.7047 17.94 50.4922C17.9768 50.4312 18.0273 50.3767 18.08 50.3234C18.1881 49.3993 18.2488 48.4707 18.3109 47.5425C18.5262 44.2943 18.4004 41.0631 17.9037 37.8476C16.5709 38.2551 15.2585 38.7662 13.9798 39.3144C13.2881 39.6109 12.6 39.9186 11.9199 40.2412C11.2992 40.536 10.6758 40.9043 10.0125 41.0958C9.95218 41.1493 9.86787 41.1749 9.79311 41.1512L9.7834 41.1476H9.78296C9.71473 41.1635 9.63896 41.1539 9.56453 41.1092C9.54945 41.1 9.53439 41.0908 9.51933 41.0813L9.49673 41.0671C9.26324 40.9198 9.02839 40.7386 8.86313 40.5169C8.66243 40.7032 8.44664 40.8737 8.2344 41.0467C8.004 41.2346 7.7745 41.4234 7.54676 41.614C7.45637 41.6897 7.35667 41.7621 7.27691 41.8493L7.26534 41.8621C7.26347 41.8642 7.26171 41.8663 7.26009 41.8684C7.60523 42.0918 7.90742 42.4309 8.17813 42.7255C8.46883 43.042 8.7495 43.3683 9.02785 43.6961L9.29732 44.0141C11.2028 46.265 13.1278 48.5976 15.5948 50.2521C15.9847 50.5136 15.613 51.1505 15.2257 50.8831C14.4929 50.3783 13.7994 49.8175 13.1335 49.2276C11.9664 48.1945 10.9164 47.0354 9.93316 45.8276C9.43559 45.2162 8.95264 44.59 8.47942 43.9596L8.31882 43.7458C8.10479 43.4606 7.8919 43.1746 7.6881 42.8822L7.64546 42.8208C7.46667 42.5628 7.27656 42.2728 7.16127 41.9756C7.11698 42.0205 7.0669 42.058 6.99379 42.0865C6.86885 42.1352 6.71555 42.0328 6.68497 41.911C6.61054 41.6153 6.86751 41.4393 7.07665 41.2824C7.33054 41.0926 7.5893 40.9095 7.84849 40.7275L7.94108 40.6621C8.26521 40.432 8.59104 40.1961 8.94421 40.0142C8.95484 40.0002 8.9677 39.9868 8.98232 39.9752C8.99916 39.962 9.01556 39.949 9.0324 39.9362C8.61058 39.2519 8.14802 38.594 7.63183 37.9726C7.24369 37.5051 6.83163 37.0586 6.39564 36.6358L6.19978 36.446C5.90352 36.16 5.59548 35.8695 5.26668 35.6208L5.16374 35.7376C5.02631 35.893 4.8875 36.0473 4.74075 36.1935C4.45186 36.4806 4.16697 36.7738 3.88338 37.0666C3.41247 37.5542 2.9575 38.0565 2.50395 38.5596L2.27724 38.8113C1.80492 39.3356 1.29893 39.8502 0.869587 40.4104L0.848145 40.4389C0.660703 40.6904 0.527273 40.9687 0.614373 41.2881C0.698415 41.5962 0.898229 41.8692 1.07046 42.1352L1.08758 42.1618C1.79074 43.2576 2.54397 44.3253 3.35081 45.3471C4.96671 47.3936 6.80992 49.3331 9.00935 50.756C9.31418 50.9532 9.02929 51.4435 8.724 51.2441C7.43953 50.4041 6.25961 49.3954 5.17408 48.3119C4.17761 47.3176 3.2746 46.2229 2.42833 45.0992C2.01582 44.551 1.6206 43.9912 1.24177 43.4189C0.874461 42.8635 0.449549 42.2923 0.18326 41.6797C0.0437019 41.3573 -0.00770608 41.0085 0.106608 40.669C0.211443 40.3569 0.418768 40.0977 0.634452 39.854L0.654694 39.8312C1.1505 39.2741 1.65516 38.7236 2.16426 38.1783C2.67513 37.6314 3.20948 37.1039 3.75491 36.592C4.18335 36.1891 4.62998 35.834 5.10762 35.505C5.06463 35.4746 5.02166 35.4452 4.9778 35.4169C4.84442 35.3301 4.81076 35.1443 4.92772 35.0264C5.24719 34.7036 5.61538 34.423 5.96187 34.1292C6.28752 33.853 6.61318 33.5766 6.93886 33.3C7.60169 32.7379 8.26454 32.1754 8.92739 31.613C10.1179 30.6027 11.3018 29.5856 12.4884 28.5709C12.9832 28.1479 13.4825 27.7303 13.9806 27.3113L14.8656 26.5664L15.2984 26.2027C15.5202 26.0169 15.7467 25.8332 15.9989 25.6916C16.5923 25.3582 17.3057 25.2139 17.9594 25.0371L18.0029 25.0253C18.7362 24.8246 19.4735 24.6357 20.2148 24.4673C20.9569 24.2989 21.7023 24.1456 22.4506 24.0067C23.1231 23.8817 23.8117 23.7746 24.4975 23.7586C24.6678 23.6938 24.8813 23.6712 25.0488 23.7404C25.1178 23.7691 25.1902 23.8113 25.2543 23.8645C25.5897 23.7464 25.9206 23.6902 26.234 23.4908C26.5469 23.2918 26.8237 23.0302 27.0567 22.7421C27.5384 22.1456 27.7905 21.4408 27.9598 20.7044ZM35.6698 40.9075C35.4039 40.8888 35.1646 40.9987 34.9272 41.1157C35.061 41.1738 35.1948 41.2315 35.3286 41.2885L36.2191 41.669C36.5133 41.7944 36.8248 41.9034 37.1043 42.058C37.1245 42.0691 37.1404 42.0825 37.1524 42.0981C37.443 41.9118 37.7505 41.7457 38.0451 41.5687C38.1125 41.5284 38.1802 41.4882 38.2479 41.4477C37.8971 41.5651 37.5374 41.6241 37.1563 41.5138C36.648 41.3672 36.2067 40.9452 35.6698 40.9075ZM36.3982 40.0157L36.3504 39.9832C36.0926 39.8062 35.7848 39.5787 35.4716 39.7376C35.3242 39.8127 35.2032 39.9337 35.0579 40.0142C34.9117 40.0958 34.7508 40.1583 34.5877 40.1961C34.3171 40.2586 34.0069 40.2678 33.7158 40.2074L33.7202 40.601C33.9404 40.6921 34.1592 40.7852 34.3781 40.8791C34.5203 40.8305 34.6571 40.7722 34.8009 40.708L34.8978 40.6646C35.1749 40.54 35.4544 40.4568 35.7606 40.4962C36.337 40.5702 36.7725 40.9987 37.3237 41.1415C37.9994 41.317 38.6091 40.8127 39.2475 40.6881C39.3528 40.6673 39.4614 40.6552 39.5692 40.6533L39.6051 40.6531L39.621 40.6436C39.7584 40.5631 39.9641 40.4859 40.0597 40.3502C40.1638 40.2032 40.1728 39.9566 40.2068 39.7838C40.2103 39.7666 40.2139 39.7487 40.217 39.7315C40.1568 39.7315 40.0956 39.7345 40.0335 39.7462C39.8387 39.7821 39.6552 39.8511 39.4736 39.9283C39.1303 40.0742 38.7943 40.2403 38.4327 40.3374C38.0787 40.4326 37.7088 40.4779 37.344 40.4251C36.9884 40.3737 36.6929 40.2133 36.3982 40.0157ZM36.4536 38.6317L36.4003 38.5974C36.2594 38.5074 36.0979 38.4143 35.9253 38.4474C35.7711 38.4772 35.6388 38.5999 35.5044 38.6756C35.2097 38.8419 34.8792 38.9327 34.5421 38.9558C34.2615 38.9749 33.9704 38.9407 33.7007 38.8574L33.71 39.7288C33.8087 39.7603 33.9111 39.7829 34.0189 39.7909C34.3458 39.8152 34.6648 39.7368 34.9391 39.5564L35.0778 39.4643C35.3152 39.3081 35.5381 39.1844 35.8523 39.2412C36.1633 39.298 36.4242 39.4975 36.6786 39.6711L36.7203 39.6992C37.0123 39.8922 37.3084 40.0166 37.6666 40.0197C38.0535 40.0226 38.4359 39.915 38.796 39.7825C39.1535 39.6512 39.4935 39.4939 39.8758 39.4457C39.9928 39.431 40.1355 39.4266 40.2697 39.4497C40.2875 39.3507 40.3043 39.2523 40.3202 39.1535C40.3548 38.9411 40.3844 38.7293 40.4102 38.517C39.7317 38.3344 39.1053 38.9252 38.4753 39.1074C38.1097 39.2129 37.7119 39.2116 37.3464 39.1097C37.0081 39.0151 36.7421 38.8192 36.4536 38.6317ZM36.4552 37.1641C36.3103 37.1362 36.1673 37.2031 36.0442 37.2719C35.73 37.4462 35.4588 37.6886 35.1029 37.7803C34.6453 37.8981 34.1447 37.7966 33.69 37.6039C33.6919 37.873 33.694 38.142 33.6963 38.4111C33.7817 38.4434 33.8696 38.4696 33.9591 38.4904C34.2771 38.563 34.6143 38.5533 34.9276 38.4615C35.247 38.3679 35.492 38.1154 35.8124 38.0366C36.14 37.9556 36.4487 38.1131 36.7128 38.292L36.7923 38.3463C37.0938 38.551 37.3866 38.7291 37.7641 38.7639C38.1634 38.8006 38.5103 38.6756 38.8671 38.5099L38.9501 38.4715C39.4016 38.2639 39.9878 38.0277 40.4385 38.2639C40.4739 37.9288 40.4997 37.5936 40.5169 37.2581C40.4549 37.235 40.3907 37.2182 40.3167 37.2178C40.1399 37.217 39.9543 37.2727 39.7894 37.3308C39.4293 37.4581 39.0938 37.6477 38.7372 37.7838C38.3992 37.9132 38.0246 37.9806 37.6641 37.9227C37.33 37.869 37.0792 37.6943 36.8483 37.455L36.8147 37.4195C36.7136 37.3118 36.6052 37.1933 36.4552 37.1641ZM36.7199 35.92C36.5528 35.8317 36.3495 35.7497 36.1562 35.7755C35.972 35.7999 35.8491 35.9249 35.7357 36.0587L35.6742 36.1319C35.471 36.3722 35.2711 36.5742 34.9582 36.6731C34.6338 36.7751 34.2901 36.735 33.9883 36.5857C33.8811 36.5326 33.7813 36.4666 33.6812 36.4013L33.6865 37.1083C33.8868 37.2079 34.0906 37.2981 34.3144 37.3526C34.7273 37.4531 35.0782 37.3787 35.4314 37.1509L35.4685 37.1268C35.7344 36.9521 36.0071 36.744 36.3357 36.7245C36.6564 36.7052 36.8969 36.8831 37.1081 37.1008L37.1329 37.1266C37.399 37.4074 37.6681 37.5445 38.0642 37.512C38.4482 37.4808 38.8075 37.3111 39.1594 37.1649L39.1913 37.1517C39.513 37.0196 39.8838 36.8835 40.237 36.934C40.3217 36.946 40.4312 36.9722 40.5285 37.0179C40.5427 36.6872 40.5494 36.356 40.5507 36.0247C40.35 35.8504 40.0375 35.8217 39.7865 35.893C39.393 36.0046 39.0709 36.2927 38.6951 36.4492C38.3618 36.588 38.0145 36.619 37.6748 36.4878C37.3237 36.3521 37.0485 36.0937 36.7199 35.92ZM40.5285 34.5273C39.9406 34.5476 39.3654 34.9301 38.8041 35.0761C38.1769 35.2389 37.6651 35.017 37.1064 34.7705L37.0343 34.7389C36.7478 34.6128 36.4397 34.4998 36.122 34.5512C35.8124 34.6017 35.5385 34.7733 35.2722 34.9285L35.2212 34.9578C34.7361 35.234 34.2422 35.4232 33.6758 35.376C33.6789 35.5539 33.6777 35.7311 33.6781 35.9049C33.7712 35.9582 33.8605 36.0184 33.9457 36.0733L33.9763 36.0926C34.2462 36.2617 34.5245 36.3726 34.8465 36.2684C35.1575 36.1673 35.3036 35.8965 35.5174 35.6736C35.7137 35.4687 35.9697 35.3443 36.2568 35.3561C36.5656 35.3685 36.8577 35.5046 37.1127 35.6709C37.368 35.8372 37.6148 36.0519 37.9134 36.1354C38.5833 36.3214 39.1571 35.6128 39.7907 35.5025C40.0566 35.4559 40.35 35.5148 40.5507 35.6753C40.5484 35.2932 40.54 34.9102 40.5285 34.5273ZM35.4677 34.3668C35.3848 34.37 35.302 34.3735 35.2191 34.3771C34.9125 34.3903 34.6059 34.4054 34.2993 34.4226C34.087 34.4341 33.8261 34.4994 33.6179 34.4346C33.6127 34.456 33.6055 34.4763 33.5961 34.4962C33.6275 34.6531 33.647 34.8154 33.659 34.9794C33.8513 35.0002 34.0468 34.9931 34.2364 34.9536C34.6915 34.8593 35.061 34.5721 35.4677 34.3668ZM40.5197 34.2351C39.4 34.3123 38.2719 34.2859 37.1503 34.31L37.0158 34.3131C37.0104 34.3131 37.0051 34.3138 36.9999 34.3138C37.1284 34.3635 37.256 34.4205 37.3833 34.4788L37.5101 34.5371C37.8107 34.6753 38.1165 34.7884 38.4526 34.764C38.8129 34.7378 39.1523 34.5906 39.4891 34.4719C39.8102 34.3584 40.1801 34.2821 40.5228 34.3318C40.5218 34.2995 40.5209 34.2676 40.5197 34.2351Z" fill="black"/>
<path fill-rule="evenodd" clip-rule="evenodd" d="M31.2383 3.99194C33.7541 3.99194 37.4364 5.67258 37.7135 7.28952C38.0398 9.19507 38.7646 16.3604 38.3699 18.7051C37.9754 21.05 36.4367 22.7823 33.0339 22.7823C29.6312 22.7823 27.0912 20.926 26.5082 20.2887C25.925 19.6511 25.2184 17.6678 25.2184 17.6678C25.2184 17.6678 23.3554 17.3517 23.3466 15.866C23.338 14.3804 24.2826 13.9213 24.2826 13.9213C24.2826 13.9213 23.7728 7.75783 24.8442 6.23132C25.9157 4.70481 28.7224 3.99194 31.2383 3.99194Z" fill="white"/>
<path fill-rule="evenodd" clip-rule="evenodd" d="M38.834 11.841C38.9718 13.3387 39.0236 14.8494 39.0502 16.3529C39.0758 17.7773 38.9506 19.2632 38.1392 20.4813C37.4299 21.5469 36.3496 22.3203 35.1466 22.7379C34.4621 22.9759 33.7039 23.064 32.981 23.0858C32.6075 23.097 32.233 23.0808 31.8617 23.0424C31.815 23.0374 31.768 23.0332 31.721 23.029C31.4066 23.0011 31.0948 22.9732 30.8656 22.7356C30.7934 22.6607 30.7943 22.5068 30.9012 22.4581C31.1044 22.3654 31.2422 22.3558 31.4652 22.3864C31.6499 22.4116 31.8351 22.4315 32.0211 22.4443C32.42 22.4724 32.8214 22.4732 33.2201 22.4426C33.9531 22.3864 34.7027 22.1792 35.3681 21.8655C36.4117 21.3726 37.308 20.565 37.7919 19.5052C38.3466 18.2918 38.3187 16.8885 38.2927 15.5819L38.2916 15.5283C38.2629 14.0789 38.2092 12.6339 38.0834 11.1894C38.0358 10.6429 37.9678 10.0994 37.8999 9.55568C37.8806 9.40263 37.8615 9.24953 37.8428 9.09637C37.798 8.72581 37.7392 8.35697 37.6669 7.9909C37.6451 7.88033 37.6197 7.77065 37.5941 7.66111C37.575 7.57871 37.5559 7.49637 37.5385 7.41378C37.5087 7.41861 37.4785 7.42131 37.4475 7.42261C37.2623 7.42886 37.0599 7.38365 36.9226 7.252C36.8697 7.28791 36.8028 7.31051 36.7223 7.3145C36.2296 7.33883 35.7322 7.32798 35.2358 7.31716C34.9646 7.31125 34.6936 7.30534 34.4239 7.30519C33.6584 7.30475 32.8923 7.30519 32.1262 7.30741C32.0094 7.30772 31.8926 7.30819 31.7758 7.30863C31.1269 7.3111 30.4769 7.3136 29.8289 7.29632C29.6915 7.29265 29.5533 7.29026 29.4147 7.28786C28.8342 7.27782 28.2453 7.26765 27.6782 7.16245C27.442 8.00197 27.4504 8.92438 27.9426 9.67437C28.0817 9.88579 27.9689 10.1349 27.7877 10.267C27.6025 10.4018 27.2694 10.6085 26.9844 10.6297C26.9735 10.6545 26.9622 10.6793 26.9511 10.704C26.9345 10.7411 26.9177 10.778 26.9016 10.8149C26.7657 11.1249 26.6432 11.4368 26.5574 11.765C26.5132 11.9341 26.4752 12.1061 26.4431 12.2791C26.4459 12.3093 26.4486 12.3396 26.4517 12.3698C26.4517 12.3729 26.4521 12.3759 26.4526 12.3795C26.4545 12.3919 26.4566 12.4061 26.458 12.4141C26.462 12.4354 26.466 12.4567 26.47 12.478C26.4821 12.5435 26.4945 12.609 26.5075 12.6743C26.5488 12.8848 26.5807 13.0971 26.6034 13.3103C26.6445 13.7003 26.6405 14.2074 26.2602 14.4383C26.057 14.5621 25.8133 14.5493 25.5984 14.4662C25.4786 14.4201 25.3735 14.3578 25.2653 14.2936C25.2433 14.2804 25.2209 14.2672 25.1982 14.254C25.1634 14.2336 25.1277 14.2148 25.0921 14.1961C25.0474 14.1724 25.0028 14.1491 24.96 14.1223C24.9386 14.1091 24.9182 14.0931 24.8991 14.0763C24.7553 14.1068 24.6148 14.164 24.5359 14.203C24.3245 14.3081 24.1389 14.4601 23.9812 14.6348C23.6458 15.0067 23.5452 15.5306 23.5922 16.0169C23.636 16.4693 23.8136 16.9892 24.1712 17.2904C24.3268 17.4214 24.5208 17.4982 24.7259 17.4959C24.827 17.495 24.9201 17.4739 25.0174 17.4481C25.0592 17.4372 25.1049 17.4323 25.1506 17.4275C25.2108 17.4212 25.2708 17.4149 25.3211 17.3948C25.4526 17.3422 25.6147 17.503 25.5612 17.6351C25.5493 17.6645 25.5388 17.6928 25.5287 17.7203C25.5048 17.7855 25.4828 17.8451 25.4472 17.8998C25.8142 18.499 26.216 19.0797 26.6436 19.6369C26.9146 19.9897 27.2195 20.3032 27.5257 20.618C27.6549 20.7508 27.7843 20.8837 27.9116 21.0203C28.101 21.2233 28.1798 21.623 27.8372 21.7098C27.536 21.787 27.3019 21.5106 27.1161 21.2914C27.0914 21.2621 27.0673 21.2336 27.0442 21.2073C26.2311 20.2823 25.6166 19.2202 25.3289 18.0212C25.1993 18.1133 25.0504 18.1634 24.8935 18.1852C24.581 18.2282 24.2652 18.1666 23.9913 18.0084C22.9546 17.4095 22.7038 15.7913 23.1893 14.777C23.3065 14.5329 23.4793 14.3148 23.6903 14.1456C23.6737 14.1139 23.667 14.0766 23.6777 14.0365C23.6966 13.9665 23.7171 13.8972 23.7388 13.8282C23.7151 13.8178 23.6979 13.7962 23.7012 13.7639C23.7176 13.595 23.7337 13.4263 23.7499 13.2575L23.7587 13.1654C23.7568 13.0739 23.7539 12.9825 23.7511 12.891C23.7448 12.6811 23.7385 12.471 23.7411 12.2598C23.7434 12.0351 23.7511 11.8105 23.7587 11.5859C23.7675 11.3276 23.7763 11.0693 23.7773 10.8109C23.7803 9.97383 23.7985 9.13724 23.817 8.30068C23.8356 7.4529 23.8541 6.60513 23.8566 5.75691C23.8593 4.93286 23.861 4.10758 23.8394 3.28402C23.839 3.27819 23.839 3.27246 23.8388 3.26674C23.8388 3.2616 23.8386 3.25646 23.8386 3.25122C23.8359 3.15015 23.8294 3.04383 23.8228 2.93473C23.7864 2.3323 23.745 1.64464 24.2903 1.2836C24.3962 1.21359 24.5284 1.21271 24.6435 1.25793C24.9751 1.02698 25.3905 0.915681 25.788 0.851422C26.3739 0.756795 26.9637 0.700065 27.5538 0.643314C27.7264 0.626725 27.899 0.610115 28.0716 0.592561C28.4695 0.552232 28.8883 0.536754 29.2887 0.545625C29.4971 0.550176 29.7068 0.542647 29.917 0.535118C30.1152 0.528009 30.3138 0.520899 30.5118 0.523898C30.9742 0.531427 31.4404 0.548729 31.9047 0.586836C31.9154 0.585745 31.9263 0.584739 31.9372 0.583753C31.9484 0.582746 31.9595 0.581761 31.9704 0.580628C32.6736 0.51316 33.3762 0.548834 34.0791 0.584529C34.2492 0.59317 34.4195 0.601831 34.5898 0.609004C35.4218 0.644027 36.3003 0.730014 37.0476 1.12845C37.1436 1.1796 37.225 1.23775 37.2944 1.30256C37.3917 1.31625 37.4846 1.34387 37.5679 1.39028C37.8084 1.34165 38.0769 1.44945 38.1339 1.72865C38.2168 2.13778 38.2482 2.55039 38.1985 2.96533C38.1979 2.97055 38.1973 2.97592 38.1966 2.98141C38.1962 2.98615 38.1956 2.991 38.195 2.9959C38.2954 3.38083 38.2887 3.8012 38.2052 4.18084C38.2405 4.66054 38.2606 5.1416 38.2633 5.62185C38.2637 5.69454 38.2648 5.7675 38.2658 5.84061C38.2696 6.10173 38.2734 6.36479 38.2493 6.62357C38.222 6.91477 38.1023 7.14521 37.9137 7.3664C37.8781 7.40806 37.8181 7.41498 37.7682 7.40487C37.7552 7.40227 37.7441 7.3987 37.7338 7.39451C37.8269 7.594 37.9039 7.80343 37.9794 8.00831C37.9959 8.05375 38.0127 8.09897 38.0293 8.14381C38.1757 8.53653 38.3174 8.93591 38.4179 9.34281C38.6217 10.1632 38.756 10.9992 38.834 11.841ZM24.7146 15.5538C24.6724 15.5249 24.6301 15.4955 24.5841 15.4739C24.5785 15.4712 24.3356 15.3924 24.3826 15.4964C24.3985 15.531 24.3568 15.5696 24.3272 15.539C24.2429 15.4534 24.2899 15.3506 24.3702 15.2743C24.5149 15.1365 24.7312 15.1684 24.909 15.2013C25.1561 15.2468 25.3964 15.355 25.6047 15.4939C25.8288 15.6432 26.1057 15.8502 26.1499 16.1333C26.1902 16.3936 25.9316 16.6803 25.6653 16.5062C25.5212 16.4118 25.4203 16.2713 25.319 16.1304C25.2469 16.0301 25.1745 15.9292 25.0862 15.8449C24.982 15.7455 24.8694 15.6583 24.7502 15.5784C24.7383 15.5704 24.7265 15.5622 24.7146 15.5538Z" fill="black"/>
</svg>
