<svg width="15" height="18" viewBox="0 0 15 18" fill="none" xmlns="http://www.w3.org/2000/svg">
<path d="M4.2927 17.999V11.1234C3.96167 11.0737 3.6546 11.0488 3.35657 10.9805C2.40411 10.7656 1.55158 10.2189 0.941162 9.43176C0.330743 8.64462 -0.000670907 7.66454 0.00222245 6.65496C-0.00277806 5.25974 0.00222245 3.86451 0.00222245 2.4693V2.24348H2.14844V2.54181C2.14844 3.86763 2.14844 5.19347 2.14844 6.51929C2.12857 6.8347 2.17393 7.15086 2.28151 7.44666C2.38909 7.74246 2.55643 8.01105 2.77228 8.2345C2.98813 8.45796 3.24757 8.63112 3.53322 8.74241C3.81888 8.8537 4.12416 8.90057 4.4287 8.87985C5.28746 8.87985 6.14626 8.87985 7.00502 8.87985C8.22114 8.87985 9.43752 8.87985 10.6543 8.87985C11.6812 8.8586 12.6809 9.22321 13.4683 9.90622C14.2558 10.5892 14.7778 11.5444 14.9378 12.5952C14.9782 12.8346 14.9982 13.0772 14.9978 13.3203C15.0028 14.7238 14.9978 16.1283 14.9978 17.5318C14.9978 17.5908 14.9908 17.6499 14.9848 17.7266H12.8506V17.4438C12.8506 16.0569 12.8596 14.671 12.8506 13.2851C12.8471 12.7327 12.6434 12.2019 12.2797 11.7978C11.9161 11.3938 11.4191 11.146 10.8874 11.1037C10.8394 11.1037 10.7874 11.1037 10.7044 11.1037V18L4.2927 17.999ZM7.33903 6.65287C6.61073 6.61166 5.91725 6.31665 5.3713 5.81571C4.82535 5.31478 4.45893 4.63734 4.33165 3.89352C4.18979 3.02959 4.38173 2.14257 4.866 1.42396C5.35027 0.705355 6.08802 0.212822 6.91992 0.0527885C6.97495 0.0387486 7.02906 0.0211416 7.08193 0H7.88206C8.24432 0.096151 8.59956 0.218683 8.94516 0.366675C9.60205 0.705505 10.1258 1.26882 10.428 1.96146C10.7301 2.65409 10.792 3.43354 10.6033 4.16802C10.4234 4.88468 10.0175 5.51857 9.44997 5.96896C8.88246 6.41935 8.18595 6.66045 7.47101 6.65395L7.33903 6.65287Z" fill="black"/>
</svg>
