<svg width="21" height="21" viewBox="0 0 21 21" fill="none" xmlns="http://www.w3.org/2000/svg">
<path d="M13.2336 19.655C8.90647 17.8495 2.29974 11.3739 0.544676 7.07704C-0.181559 5.47327 -0.181559 4.16201 0.544676 3.16344C0.8271 2.69945 2.46116 0.762823 3.92372 0.823342C4.3611 0.883735 4.76396 1.09409 5.06351 1.41846C5.97187 2.34912 6.73674 3.40973 7.33299 4.56547C7.40401 5.14416 7.25254 5.72821 6.90931 6.19949C6.63697 6.67356 5.90066 7.56119 6.10239 8.0857C7.31132 10.7882 9.50951 12.925 12.2452 14.057C12.7495 14.2486 13.6472 13.5224 14.1212 13.25C14.3505 13.0756 14.612 12.9483 14.8908 12.8756C15.1695 12.8028 15.4599 12.7861 15.7452 12.8264C16.8966 13.4412 17.9532 14.2192 18.8821 15.1362C19.2064 15.4316 19.417 15.8314 19.4772 16.2659C19.5276 17.7587 17.4599 19.4735 17.127 19.6853C16.6297 20.0383 16.0321 20.2222 15.4224 20.2098C14.6606 20.1899 13.9129 20.0004 13.2336 19.655ZM14.9685 8.04534C14.8387 7.3577 14.5045 6.72518 14.0097 6.23035C13.5149 5.73552 12.8824 5.40137 12.1947 5.27153C11.9719 5.22516 11.7758 5.09405 11.6479 4.90586C11.5199 4.71767 11.47 4.48712 11.5088 4.26287C11.5528 4.0388 11.6834 3.84111 11.8723 3.71271C12.0611 3.5843 12.2929 3.53554 12.5174 3.57699C13.5425 3.77465 14.4847 4.27544 15.222 5.01453C15.9593 5.75363 16.4578 6.69701 16.653 7.72258C16.6918 7.94683 16.6419 8.17736 16.5139 8.36555C16.3859 8.55374 16.1899 8.68486 15.9671 8.73124H15.7956C15.5997 8.73016 15.4102 8.66123 15.2594 8.53617C15.1086 8.41112 15.0059 8.23766 14.9685 8.04534ZM18.4484 7.96465C18.2806 6.38292 17.5768 4.90617 16.4539 3.77961C15.331 2.65305 13.8566 1.94446 12.2754 1.77148C12.1566 1.76082 12.0414 1.7255 11.9371 1.6678C11.8328 1.61009 11.7416 1.53127 11.6695 1.43635C11.5973 1.34143 11.5458 1.23249 11.5181 1.11652C11.4905 1.00056 11.4873 0.880091 11.5088 0.762825C11.5376 0.53651 11.6533 0.330301 11.8316 0.187898C11.9199 0.116605 12.0217 0.0637928 12.1309 0.0326037C12.2401 0.00141468 12.3543 -0.00752299 12.467 0.00633144C14.4394 0.221311 16.2788 1.10519 17.679 2.51091C19.0792 3.91663 19.9559 5.75942 20.1631 7.73266C20.1846 7.84916 20.1818 7.96885 20.1547 8.08419C20.1277 8.19952 20.0769 8.30799 20.0059 8.40276C19.9348 8.49754 19.8448 8.57654 19.7417 8.63481C19.6385 8.69308 19.5245 8.72935 19.4066 8.74132H19.3058C19.0923 8.74001 18.8868 8.66007 18.7287 8.51678C18.5705 8.37349 18.4707 8.1769 18.4484 7.96465Z" fill="white"/>
</svg>
