<svg width="22" height="21" viewBox="0 0 22 21" fill="none" xmlns="http://www.w3.org/2000/svg">
<path d="M10.8999 20.2073C9.15966 20.2106 7.44881 19.7585 5.93731 18.8961C5.60946 18.6559 5.22244 18.5094 4.81771 18.4724C4.68754 18.472 4.55813 18.4925 4.43441 18.533L2.4171 19.1382C2.34052 19.1534 2.26168 19.1534 2.18509 19.1382C2.08838 19.1375 1.99303 19.1155 1.90584 19.0736C1.81865 19.0318 1.74177 18.9711 1.68077 18.8961C1.62153 18.8122 1.58253 18.7157 1.56678 18.6142C1.55103 18.5127 1.55897 18.409 1.58999 18.3111L2.2658 16.0517C2.32228 15.9046 2.34525 15.7468 2.33303 15.5898C2.32082 15.4327 2.27373 15.2804 2.19519 15.1439C1.3301 13.6017 0.862148 11.8686 0.833496 10.1006C0.839563 7.46713 1.86219 4.93771 3.68802 3.03997C4.62755 2.07772 5.75003 1.31307 6.98943 0.791008C8.22882 0.268942 9.56011 0 10.905 0C12.2498 0 13.5811 0.268942 14.8205 0.791008C16.0599 1.31307 17.1824 2.07772 18.1219 3.03997C19.0259 3.96443 19.7449 5.05313 20.2401 6.2475C20.7444 7.46606 21.0048 8.7717 21.0067 10.0905C21.0191 11.5382 20.7234 12.9719 20.1392 14.2966C19.5999 15.5029 18.8169 16.5847 17.8395 17.4739C15.9496 19.2209 13.4736 20.1962 10.8999 20.2073ZM15.5297 8.85993C15.2743 8.85993 15.0247 8.93565 14.8124 9.07752C14.6001 9.21939 14.4346 9.42102 14.3369 9.65693C14.2391 9.89285 14.2136 10.1524 14.2634 10.4029C14.3132 10.6533 14.4362 10.8834 14.6167 11.0639C14.7973 11.2445 15.0273 11.3675 15.2778 11.4173C15.5282 11.4671 15.7878 11.4415 16.0237 11.3438C16.2597 11.2461 16.4613 11.0806 16.6031 10.8683C16.745 10.656 16.8207 10.4064 16.8207 10.151C16.8207 9.80859 16.6847 9.4802 16.4426 9.23808C16.2005 8.99595 15.8721 8.85993 15.5297 8.85993ZM10.8596 8.85993C10.5296 8.87302 10.2176 9.01406 9.98982 9.25317C9.76201 9.49228 9.63622 9.81068 9.6391 10.1409C9.63711 10.3963 9.71088 10.6465 9.85109 10.8599C9.9913 11.0733 10.1916 11.2403 10.4268 11.3399C10.6619 11.4394 10.9213 11.467 11.1721 11.4192C11.4229 11.3713 11.6539 11.2502 11.8359 11.071C12.0179 10.8919 12.1426 10.6628 12.1944 10.4127C12.2462 10.1627 12.2227 9.90291 12.1268 9.66624C12.0309 9.42957 11.867 9.22665 11.6558 9.08313C11.4446 8.93961 11.1956 8.86193 10.9403 8.85993H10.8596ZM6.22983 8.85993C5.97447 8.85993 5.72486 8.93565 5.51255 9.07752C5.30023 9.21939 5.13475 9.42102 5.03703 9.65693C4.93931 9.89285 4.91374 10.1524 4.96355 10.4029C5.01337 10.6533 5.13634 10.8834 5.3169 11.0639C5.49746 11.2445 5.72749 11.3675 5.97794 11.4173C6.22838 11.4671 6.48799 11.4415 6.7239 11.3438C6.95982 11.2461 7.16148 11.0806 7.30334 10.8683C7.44521 10.656 7.52091 10.4064 7.52091 10.151C7.52091 9.80859 7.38488 9.4802 7.14275 9.23808C6.90063 8.99595 6.57224 8.85993 6.22983 8.85993Z" fill="white"/>
</svg>
