<svg width="24" height="24" viewBox="0 0 28 28" fill="none" xmlns="http://www.w3.org/2000/svg">
<path d="M13.659 27.3945C10.4893 27.3856 7.42082 26.2777 4.97656 24.2597C2.53231 22.2416 0.863618 19.4383 0.254941 16.3276C-0.353736 13.2169 0.135282 9.99131 1.63863 7.20081C3.14199 4.4103 5.56661 2.22756 8.49919 1.02466C11.4318 -0.178234 14.6908 -0.326818 17.7206 0.604231C20.7505 1.53528 23.3637 3.48833 25.1148 6.13046C26.8658 8.77258 27.6463 11.9402 27.3232 15.0934C27.0001 18.2466 25.5935 21.1902 23.343 23.4223C20.7681 25.9761 17.2856 27.4046 13.659 27.3945ZM18.3572 8.35528H18.1654L11.1524 10.5469C11.0118 10.5931 10.884 10.6717 10.7793 10.7764C10.6746 10.8811 10.596 11.0089 10.5497 11.1495L8.35817 18.1762C8.33022 18.2679 8.32309 18.3647 8.33731 18.4595C8.35153 18.5542 8.38673 18.6447 8.44035 18.7241C8.50237 18.8 8.57939 18.8623 8.6666 18.9071C8.75381 18.9519 8.84932 18.9782 8.94715 18.9844C9.00584 18.9969 9.06653 18.9969 9.12522 18.9844L16.1108 16.7928C16.2549 16.7531 16.3861 16.6767 16.4918 16.571C16.5974 16.4654 16.6738 16.3342 16.7135 16.1901L18.9325 9.17712C18.9596 9.08547 18.9655 8.98884 18.9497 8.89457C18.934 8.8003 18.897 8.71085 18.8416 8.63298C18.7861 8.55512 18.7137 8.49089 18.6298 8.44515C18.5459 8.39941 18.4527 8.37335 18.3572 8.36897V8.35528Z" fill="black"/>
</svg>
