<svg width="42" height="42" viewBox="0 0 42 42" fill="none" xmlns="http://www.w3.org/2000/svg">
<circle cx="21" cy="21" r="20.5" stroke="white" stroke-linecap="round" stroke-dasharray="2 4"/>
<path fill-rule="evenodd" clip-rule="evenodd" d="M21 38.4999C30.665 38.4999 38.5 30.6649 38.5 20.9999C38.5 11.3349 30.665 3.49988 21 3.49988C11.335 3.49988 3.5 11.3349 3.5 20.9999C3.5 30.6649 11.335 38.4999 21 38.4999ZM11.897 19.6814C11.4622 25.6876 16.2599 30.8431 22.3599 30.8527C22.5124 30.8409 22.674 30.8327 22.8413 30.8241C23.1234 30.8096 23.4215 30.7944 23.7194 30.7603C27.8828 30.2859 31.5946 26.9649 32.5236 22.8609C32.5896 22.5697 32.5324 22.3212 32.2905 22.1423C32.1829 22.0588 32.0521 22.0109 31.916 22.0052C31.78 21.9996 31.6456 22.0364 31.5315 22.1107C31.3565 22.2225 31.1885 22.3449 31.0285 22.4774C28.0126 24.7879 23.4378 24.3926 20.8208 21.64C18.0439 18.7223 18.0292 14.3162 20.2591 11.5415C20.4879 11.257 20.5766 10.9541 20.3552 10.6366C20.1337 10.3191 19.8155 10.3023 19.4694 10.4013C15.2546 11.6016 12.213 15.3281 11.897 19.6814Z" fill="white"/>
</svg>
