<svg width="151" height="144" viewBox="0 0 151 144" fill="none" xmlns="http://www.w3.org/2000/svg">
    <circle cx="74.7059" cy="82.3849" r="58.7554" fill="url(#paint0_linear_56_2)"/>
    <circle cx="145.3" cy="29.3296" r="5.70015" fill="url(#paint1_linear_56_2)"/>
    <circle cx="9.37322" cy="10.0368" r="9.20794" fill="url(#paint2_linear_56_2)"/>
    <circle cx="4.55002" cy="120.094" r="4.38473" fill="url(#paint3_linear_56_2)"/>
    <circle cx="134.777" cy="141.579" r="2.19237" fill="url(#paint4_linear_56_2)"/>
    <circle cx="99.6987" cy="91.5928" r="2.19237" fill="white"/>
    <circle cx="42.2588" cy="67.4768" r="3.50779" fill="white"/>
    <circle cx="93.5602" cy="48.6224" r="1.31542" fill="white"/>
    <circle cx="57.1669" cy="110.447" r="1.75389" fill="white"/>
    <circle cx="76.4598" cy="68.3538" r="0.876946" fill="white"/>
    <path d="M73.0769 96.1538C81.956 96.1538 89.1538 88.956 89.1538 80.0769C89.1538 71.1979 81.956 64 73.0769 64C64.1979 64 57 71.1979 57 80.0769C57 88.956 64.1979 96.1538 73.0769 96.1538Z" stroke="white" stroke-width="5" stroke-linecap="round" stroke-linejoin="round"/>
    <path d="M92.8077 102L84.0385 93.2308" stroke="white" stroke-width="5" stroke-linecap="round" stroke-linejoin="round"/>
    <defs>
        <linearGradient id="paint0_linear_56_2" x1="15.9504" y1="16.4139" x2="151.606" y2="37.4317" gradientUnits="userSpaceOnUse">
            <stop stop-color="#054BAC"/>
            <stop offset="1" stop-color="#006CFF"/>
            <stop offset="1" stop-color="#054BAC"/>
        </linearGradient>
        <linearGradient id="paint1_linear_56_2" x1="139.6" y1="22.9294" x2="152.76" y2="24.9685" gradientUnits="userSpaceOnUse">
            <stop stop-color="#054BAC"/>
            <stop offset="1" stop-color="#3187FD"/>
        </linearGradient>
        <linearGradient id="paint2_linear_56_2" x1="0.165283" y1="-0.301941" x2="21.4247" y2="2.99189" gradientUnits="userSpaceOnUse">
            <stop stop-color="#054BAC"/>
            <stop offset="1" stop-color="#3187FD"/>
        </linearGradient>
        <linearGradient id="paint3_linear_56_2" x1="0.165283" y1="115.17" x2="10.2888" y2="116.739" gradientUnits="userSpaceOnUse">
            <stop stop-color="#054BAC"/>
            <stop offset="1" stop-color="#3187FD"/>
        </linearGradient>
        <linearGradient id="paint4_linear_56_2" x1="132.584" y1="139.117" x2="137.646" y2="139.901" gradientUnits="userSpaceOnUse">
            <stop stop-color="#054BAC"/>
            <stop offset="1" stop-color="#3187FD"/>
        </linearGradient>
    </defs>
</svg>
