<svg width="24" height="24" viewBox="0 0 26 28" fill="none" xmlns="http://www.w3.org/2000/svg">
<path d="M13.9273 27.2165H12.0234C11.2736 27.2386 10.5456 26.9628 9.99882 26.4493C9.452 25.9359 9.13091 25.2267 9.10587 24.477V24.4085C9.07782 23.7422 8.79504 23.112 8.31586 22.6482C7.83668 22.1843 7.1977 21.9221 6.5308 21.9156C6.09828 21.9012 5.6706 22.0105 5.29803 22.2307C4.85211 22.5011 4.34024 22.6433 3.81873 22.6416C3.32012 22.6489 2.82817 22.5266 2.39113 22.2864C1.95409 22.0463 1.58699 21.6967 1.32584 21.2719L0.367031 19.6282C0.126594 19.2117 0 18.7393 0 18.2585C0 17.7776 0.126594 17.3052 0.367031 16.8887C0.633757 16.4343 1.02297 16.064 1.4902 15.8203C1.85584 15.6122 2.15865 15.3094 2.36682 14.9437C2.69992 14.3659 2.79038 13.6795 2.61836 13.0351C2.44634 12.3907 2.02587 11.8407 1.44911 11.5057C1.12326 11.3316 0.836011 11.0933 0.604627 10.8053C0.373242 10.5173 0.202512 10.1854 0.102704 9.82967C0.00289719 9.47395 -0.0239318 9.10171 0.0238473 8.73535C0.0716265 8.36899 0.193019 8.01608 0.380721 7.69786V7.62939L1.32584 6.0131C1.71935 5.36117 2.35112 4.88796 3.0874 4.69366C3.82369 4.49936 4.60668 4.59924 5.27063 4.97211C5.64937 5.17697 6.07282 5.28518 6.5034 5.28715C6.95944 5.2841 7.40751 5.16726 7.80696 4.9472C8.2064 4.72715 8.54459 4.41085 8.79084 4.027C9.01099 3.66446 9.12047 3.24553 9.10587 2.82163C9.07992 2.30767 9.21912 1.79889 9.50311 1.36973C9.77672 0.959819 10.1446 0.621518 10.576 0.383187C11.0074 0.144856 11.4897 0.0134464 11.9823 0H13.9273C14.4237 0.00420008 14.9113 0.131546 15.3464 0.370605C15.7815 0.609664 16.1505 0.952962 16.4202 1.36973C16.6903 1.80397 16.8195 2.3111 16.79 2.82163C16.7736 3.2476 16.8884 3.66834 17.1188 4.027C17.365 4.41085 17.7032 4.72715 18.1027 4.9472C18.5021 5.16726 18.9502 5.2841 19.4062 5.28715C19.8368 5.28518 20.2602 5.17697 20.639 4.97211C21.3 4.59638 22.0821 4.49493 22.8172 4.68958C23.5522 4.88423 24.1816 5.35944 24.5701 6.0131L25.5015 7.62939C25.6975 7.93904 25.8294 8.28487 25.8893 8.6464C25.9492 9.00793 25.936 9.3778 25.8505 9.73414C25.7649 10.0905 25.6087 10.426 25.3911 10.7209C25.1736 11.0158 24.899 11.264 24.5838 11.4509H24.4742C24.19 11.6164 23.9414 11.8366 23.7427 12.0986C23.5439 12.3607 23.399 12.6595 23.3162 12.9778C23.2335 13.2961 23.2145 13.6276 23.2605 13.9532C23.3064 14.2789 23.4163 14.5922 23.5839 14.8752C23.7787 15.2462 24.079 15.5512 24.4468 15.7519C24.9093 16.007 25.3003 16.3744 25.5837 16.8202C25.8164 17.2393 25.9384 17.7107 25.9384 18.19C25.9384 18.6693 25.8164 19.1407 25.5837 19.5597L24.5975 21.2034C24.4089 21.5311 24.1574 21.8183 23.8572 22.0482C23.5571 22.2782 23.2144 22.4464 22.8489 22.5432C22.4834 22.64 22.1023 22.6634 21.7277 22.6121C21.3531 22.5608 20.9924 22.4358 20.6664 22.2444V22.2444C20.2938 22.0242 19.8661 21.9149 19.4336 21.9293C18.7643 21.9322 18.1219 22.1929 17.6398 22.6572C17.1577 23.1214 16.873 23.7535 16.8448 24.4222C16.8414 24.7987 16.7627 25.1706 16.6133 25.5162C16.4639 25.8617 16.2469 26.1739 15.975 26.4342C15.7031 26.6946 15.3819 26.898 15.0302 27.0323C14.6786 27.1667 14.3036 27.2293 13.9273 27.2165V27.2165ZM12.9822 9.65658C11.9419 9.6456 10.9397 10.0474 10.1952 10.774C9.45063 11.5006 9.02444 12.4927 9.01 13.5329C9.00938 14.0444 9.11219 14.5508 9.31226 15.0216C9.51234 15.4923 9.80555 15.9178 10.1743 16.2724C10.908 16.9884 11.8886 17.3954 12.9137 17.4092C13.9395 17.4239 14.9292 17.0313 15.6661 16.3176C16.4029 15.6038 16.8268 14.6271 16.8448 13.6014C16.8584 13.0804 16.7644 12.5621 16.5688 12.079C16.3732 11.5959 16.0802 11.1583 15.708 10.7935C14.9598 10.0655 13.9575 9.65774 12.9137 9.65658H12.9822Z" fill="black"/>
</svg>
