<svg width="24" height="24" viewBox="0 0 28 28" fill="none" xmlns="http://www.w3.org/2000/svg">
<path d="M7.43064 27.3397C6.43449 27.4402 5.42846 27.318 4.48539 26.9818C3.54231 26.6456 2.68579 26.104 1.97784 25.396C1.26988 24.6881 0.728208 23.8315 0.392036 22.8885C0.0558642 21.9454 -0.0663946 20.9394 0.034112 19.9432V9.80724C-0.0532642 8.81272 0.077849 7.81112 0.418266 6.8726C0.758683 5.93408 1.30017 5.08134 2.00481 4.3741C2.70944 3.66685 3.56018 3.12221 4.49744 2.77832C5.43469 2.43444 6.4358 2.29963 7.43064 2.38333H18.4569C18.4024 2.72304 18.3749 3.06656 18.3748 3.41062C18.3747 4.88678 18.9602 6.30268 20.0027 7.34776C21.0452 8.39284 22.4597 8.98178 23.9358 8.98541C24.2754 8.98586 24.6144 8.95837 24.9494 8.90323V19.9432C25.0499 20.9394 24.9277 21.9454 24.5915 22.8885C24.2553 23.8315 23.7137 24.6881 23.0057 25.396C22.2978 26.104 21.4412 26.6456 20.4982 26.9818C19.5551 27.318 18.5491 27.4402 17.5529 27.3397H7.43064ZM9.88244 12.2728C9.61106 12.32 9.36694 12.4664 9.19758 12.6837L5.17059 17.8886L5.0884 18.0119C4.95754 18.2351 4.9145 18.4991 4.96768 18.7523C5.02086 19.0056 5.16644 19.2299 5.37605 19.3816C5.55942 19.5143 5.77978 19.5862 6.00612 19.5871C6.15777 19.5862 6.30691 19.5483 6.44058 19.4767C6.57426 19.4051 6.68842 19.3019 6.77316 19.1762L10.2112 14.752L14.1149 17.6832L14.2382 17.7654C14.4532 17.8828 14.7035 17.9183 14.9427 17.8654C15.1819 17.8126 15.3939 17.6748 15.5394 17.4777L19.4979 12.3686C19.6053 12.2223 19.672 12.0502 19.6912 11.8698C19.7105 11.6893 19.6816 11.507 19.6075 11.3413C19.5341 11.1771 19.4177 11.0357 19.2707 10.932C19.1236 10.8283 18.9513 10.7663 18.772 10.7524H18.6624C18.4973 10.7507 18.3342 10.7884 18.1865 10.8622C18.0389 10.936 17.9109 11.0439 17.8132 11.177L14.4984 15.4505L10.6495 12.4097C10.4626 12.2607 10.2311 12.1788 9.99203 12.1769L9.88244 12.2728ZM20.8403 3.30104C20.8403 2.64816 21.0339 2.00994 21.3966 1.46709C21.7593 0.924234 22.2749 0.50113 22.878 0.251281C23.4812 0.00143347 24.145 -0.0639425 24.7853 0.063429C25.4256 0.1908 26.0138 0.505199 26.4755 0.966858C26.9372 1.42852 27.2515 2.0167 27.3789 2.65704C27.5063 3.29738 27.4409 3.96112 27.1911 4.5643C26.9412 5.16749 26.5181 5.68304 25.9753 6.04576C25.4324 6.40849 24.7942 6.60209 24.1413 6.60209C23.7015 6.60585 23.2654 6.52131 22.8588 6.35348C22.4522 6.18565 22.0835 5.93793 21.7744 5.62501C21.4653 5.31208 21.2222 4.94031 21.0594 4.53171C20.8965 4.12311 20.8174 3.686 20.8266 3.24625L20.8403 3.30104Z" fill="black"/>
</svg>
