<svg width="42" height="42" viewBox="0 0 42 42" fill="none" xmlns="http://www.w3.org/2000/svg">
<circle cx="21" cy="21" r="20.5" stroke="white" stroke-linecap="round" stroke-dasharray="2 4"/>
<path d="M21.0038 38.9998C16.8394 39.0006 12.8035 37.5575 9.58381 34.9163C6.36413 32.2751 4.15983 28.5992 3.34658 24.515C2.53334 20.4307 3.16144 16.1909 5.12383 12.5178C7.08622 8.84475 10.2616 5.96577 14.1087 4.37142C17.9558 2.77706 22.2367 2.56599 26.2221 3.77416C30.2074 4.98233 33.6505 7.53499 35.9647 10.9972C38.2789 14.4594 39.321 18.6169 38.9135 22.7613C38.506 26.9058 36.674 30.7807 33.7297 33.7258C30.3549 37.1017 25.7773 38.9987 21.0038 38.9998ZM21.0038 26.2739C20.6913 26.2739 20.3858 26.3663 20.1257 26.5396C19.8656 26.7129 19.6626 26.9592 19.5422 27.2476C19.4218 27.536 19.3894 27.8535 19.449 28.1603C19.5087 28.4671 19.6578 28.7493 19.8775 28.9716C20.0972 29.1938 20.3778 29.346 20.6839 29.4092C20.99 29.4723 21.3079 29.4435 21.5976 29.3264C21.8873 29.2092 22.136 29.009 22.3122 28.7509C22.4884 28.4928 22.5843 28.1883 22.5878 27.8758C22.5879 27.4571 22.4241 27.055 22.1314 26.7556C21.8387 26.4562 21.4404 26.2833 21.0218 26.2739H21.0038ZM21.0038 12.5939C20.5866 12.6031 20.189 12.7729 19.8939 13.068C19.5988 13.3631 19.429 13.7607 19.4198 14.1779V22.1339C19.3962 22.3549 19.4192 22.5783 19.4876 22.7898C19.556 23.0012 19.6681 23.1959 19.8166 23.3612C19.9652 23.5265 20.1468 23.6587 20.3498 23.7492C20.5528 23.8397 20.7726 23.8865 20.9948 23.8865C21.217 23.8865 21.4368 23.8397 21.6398 23.7492C21.8428 23.6587 22.0244 23.5265 22.173 23.3612C22.3215 23.1959 22.4336 23.0012 22.502 22.7898C22.5704 22.5783 22.5934 22.3549 22.5698 22.1339V14.1779C22.5652 13.7623 22.3994 13.3648 22.1072 13.0692C21.815 12.7737 21.4193 12.6033 21.0038 12.5939Z" fill="white"/>
</svg>
