<svg width="275" height="269" viewBox="0 0 275 269" fill="none" xmlns="http://www.w3.org/2000/svg">
<path d="M138.376 192.605L196.212 289.799C196.212 289.799 59.2949 152.28 49.2042 129.724C39.1135 107.168 58.1077 51.3726 58.1077 51.3726L100.251 74.5219L138.376 192.605Z" fill="#A6A6A6"/>
<path d="M14.1836 35.9397L1.71865 37.1269C1.71865 37.1269 -4.81065 51.3726 15.3708 52.5598L14.1836 35.9397Z" fill="#B1B1B1"/>
<path d="M14.1836 57.9019L1.71865 59.0891C1.71865 59.0891 -4.81065 73.3348 15.3708 74.522L14.1836 57.9019Z" fill="#B1B1B1"/>
<path d="M14.1836 81.6447L1.71865 82.8318C1.71865 82.8318 -4.81065 97.0775 15.3708 98.2647L14.1836 81.6447Z" fill="#B1B1B1"/>
<path d="M17.7451 105.388L5.28011 106.575C5.28011 106.575 -1.24919 120.82 18.9323 122.008L17.7451 105.388Z" fill="#B1B1B1"/>
<path d="M8.11499 41.6628H9.06081V15.7525C9.0608 13.7832 9.44869 11.8332 10.2023 10.0137C10.9559 8.19433 12.0605 6.54116 13.4531 5.14864C14.8456 3.75612 16.4987 2.65151 18.3182 1.89788C20.1376 1.14425 22.0876 0.756364 24.0569 0.756363H78.9513C80.9206 0.756359 82.8707 1.14424 84.6901 1.89787C86.5095 2.65149 88.1627 3.75609 89.5552 5.14861C90.9477 6.54113 92.0523 8.19428 92.8059 10.0137C93.5596 11.8331 93.9475 13.7831 93.9475 15.7525V157.898C93.9475 159.867 93.5596 161.817 92.806 163.637C92.0523 165.456 90.9477 167.109 89.5552 168.502C88.1627 169.894 86.5095 170.999 84.6901 171.753C82.8707 172.506 80.9207 172.894 78.9513 172.894H24.057C20.0798 172.894 16.2654 171.314 13.4531 168.502C10.6408 165.69 9.06083 161.875 9.06082 157.898V60.1061H8.11499V41.6628Z" fill="#585858"/>
<path d="M23.4518 4.65776H30.6174C30.2878 5.46564 30.1621 6.34217 30.2511 7.21012C30.3401 8.07807 30.6412 8.9108 31.1279 9.63497C31.6146 10.3591 32.2719 10.9525 33.0419 11.3628C33.8119 11.7731 34.671 11.9877 35.5435 11.9878H66.9918C67.8643 11.9877 68.7234 11.7731 69.4934 11.3628C70.2634 10.9525 70.9207 10.3591 71.4074 9.63497C71.8941 8.91081 72.1952 8.07807 72.2842 7.21012C72.3732 6.34216 72.2475 5.46563 71.9179 4.65775H78.6106C81.5807 4.65774 84.4292 5.83763 86.5294 7.93783C88.6296 10.038 89.8095 12.8865 89.8095 15.8567V157.794C89.8095 159.264 89.5198 160.721 88.957 162.079C88.3942 163.438 87.5693 164.673 86.5294 165.713C85.4895 166.753 84.2549 167.577 82.8962 168.14C81.5375 168.703 80.0812 168.993 78.6106 168.993H23.4518C21.9812 168.993 20.5249 168.703 19.1662 168.14C17.8075 167.577 16.5729 166.753 15.533 165.713C14.4931 164.673 13.6681 163.438 13.1053 162.079C12.5425 160.721 12.2529 159.264 12.2529 157.794V15.8567C12.2529 14.386 12.5425 12.9298 13.1053 11.571C13.6681 10.2123 14.4931 8.97776 15.533 7.93784C16.5729 6.89793 17.8075 6.07302 19.1662 5.51022C20.5249 4.94742 21.9812 4.65776 23.4518 4.65776Z" fill="white"/>
<path d="M62.8489 44.4216H39.2136V50.125H62.8489V44.4216Z" fill="#808080"/>
<path d="M63.9742 68.9288H38.0884V74.6323H63.9742V68.9288Z" fill="#E5E5E5"/>
<path d="M79.9187 81.1804H22.1441V86.8838H79.9187V81.1804Z" fill="#E5E5E5"/>
<path d="M79.9187 93.4322H22.1441V99.1356H79.9187V93.4322Z" fill="#E5E5E5"/>
<path d="M274.291 301.753L127.853 135.956L125.478 87.2835L100.548 45.7335L93.4254 27.9263C93.4254 27.9263 76.8054 29.707 90.4575 63.5406L96.0965 81.6446C91.0134 92.5927 88.38 104.518 88.38 116.589V158.074C88.38 167.842 214.93 311.051 220.349 319.178L274.291 301.753Z" fill="#B1B1B1"/>
<path opacity="0.2" d="M95.3798 49.2544L100.336 46.8187L100.167 46.4748L95.5877 48.7255L88.6751 30.6021L88.3174 30.7388L95.3798 49.2544Z" fill="black"/>
<path opacity="0.2" d="M1.78535 36.9465L1.65295 37.3059L8.99487 40.0105L9.12727 39.651L1.78535 36.9465Z" fill="black"/>
<path opacity="0.2" d="M1.78535 59.159L1.65295 59.5184L8.99487 62.223L9.12727 61.8636L1.78535 59.159Z" fill="black"/>
<path opacity="0.2" d="M1.78535 82.9034L1.65295 83.2628L8.99487 85.9673L9.12727 85.6079L1.78535 82.9034Z" fill="black"/>
<path opacity="0.2" d="M5.63156 106.655L5.46588 107L9.04035 108.715L9.20603 108.37L5.63156 106.655Z" fill="black"/>
<path d="M51.0607 148.356C60.2043 148.356 67.6166 140.944 67.6166 131.8C67.6166 122.657 60.2043 115.244 51.0607 115.244C41.9172 115.244 34.5048 122.657 34.5048 131.8C34.5048 140.944 41.9172 148.356 51.0607 148.356Z" fill="#2BC25F"/>
<path d="M48.4829 138.789L43.528 132.418L46.4094 130.176L48.7555 133.193L56.6819 124.826L59.3325 127.337L48.4829 138.789Z" fill="white"/>
</svg>
