<svg width="119" height="113" viewBox="0 0 119 113" fill="none" xmlns="http://www.w3.org/2000/svg">
<path d="M110.76 63.188L106.96 63.358C106.96 63.228 106.98 63.101 106.984 62.963C107.057 62.8821 107.107 62.7823 107.126 62.6749C107.146 62.5674 107.135 62.4566 107.095 62.355C106.345 59.732 106.933 56.885 105.776 54.322C105.738 54.3025 105.698 54.2855 105.658 54.271C105.758 54.109 105.858 53.939 105.946 53.765C105.982 53.733 106.025 53.706 106.061 53.67C106.046 53.8758 106.091 54.0817 106.191 54.262H108.166C112.392 54.262 115.303 51.746 115.413 48.006C115.513 44.649 112.313 41.975 108.185 41.967C103.051 41.967 97.9401 42.034 92.8171 41.967C88.0221 41.88 85.5731 37.622 87.6831 33.333C88.8281 30.963 90.8431 30.323 93.2121 30.106C94.9501 29.944 96.3721 29.178 96.5341 27.254C96.6721 25.754 94.9541 24.454 93.0431 24.414C92.4594 24.3666 91.8728 24.3666 91.2891 24.414C88.0621 24.884 85.4041 23.66 82.7581 21.949C75.7551 17.417 67.8831 15.569 59.7121 15.221C50.9739 14.6918 42.2811 16.8306 34.7861 21.354C31.3687 23.4432 27.3608 24.3547 23.3761 23.949C21.8412 23.804 20.2944 24.0446 18.8761 24.649C18.0495 25.0719 17.3323 25.6809 16.781 26.428C16.2297 27.1751 15.8593 28.04 15.6989 28.9545C15.5386 29.8691 15.5927 30.8084 15.857 31.6985C16.1213 32.5886 16.5886 33.4052 17.2221 34.084C17.7351 34.641 19.0701 34.902 18.1221 36.3C15.3033 40.2944 13.1582 44.7238 11.7721 49.412L10.1571 49.53C7.08007 49.783 4.44207 51.975 4.44207 55.245C4.46247 56.654 4.99458 58.0074 5.93918 59.053C6.88379 60.0987 8.17642 60.7651 9.57607 60.928V61.228C9.46132 64.1956 9.58673 67.1676 9.95107 70.115C9.75799 73.019 10.0679 75.9345 10.8671 78.733C10.7741 78.7922 10.6765 78.8437 10.5751 78.887C9.46808 78.2761 8.21957 77.968 6.95548 77.9936C5.69138 78.0192 4.45639 78.3778 3.37507 79.033C-0.664925 81.533 -1.30493 87.493 2.69607 90.364C5.54807 92.414 9.95907 92.449 13.3321 92.793C14.8174 92.943 16.3037 93.047 17.7911 93.105C18.0804 93.1445 18.372 93.1656 18.6641 93.168C18.8198 93.172 18.9756 93.164 19.1301 93.144H21.0691C22.0801 97.038 24.2691 100.905 27.4401 103.018H26.8121C24.7461 103.046 23.1471 104.361 23.1941 105.98C23.2411 107.599 24.6471 108.705 26.7491 108.717C29.8221 108.737 32.8981 108.776 35.9711 108.717C37.7171 108.682 39.4531 108.988 41.0821 109.617C48.8803 112.597 57.3256 113.472 65.5691 112.153C73.5691 110.834 81.0631 108.089 87.4141 102.793C88.7022 101.692 90.368 101.136 92.0591 101.241C95.4241 101.367 98.7931 101.241 102.159 101.288C103.336 101.344 104.487 100.931 105.359 100.139C109.044 96.839 108.021 91.845 103.195 89.558C103.084 89.2531 102.952 88.956 102.8 88.669L102.01 87.089C102.181 86.9015 102.341 86.7038 102.488 86.497C105.05 83.0378 106.815 79.0551 107.658 74.834C108.685 74.7947 109.71 74.7197 110.735 74.609C113.804 74.281 116.45 72.239 116.45 68.898C116.445 67.3888 115.844 65.9426 114.779 64.8736C113.713 63.8045 112.269 63.1988 110.76 63.188ZM85.3761 81.751C85.3131 81.751 85.2851 81.715 85.3051 81.66C85.1191 82.091 85.4351 80.416 85.3761 81.767V81.751Z" fill="#E2E2E2" fill-opacity="0.48"/>
<path d="M80 15H36C32.6863 15 30 17.6863 30 21V99C30 102.314 32.6863 105 36 105H80C83.3137 105 86 102.314 86 99V21C86 17.6863 83.3137 15 80 15Z" fill="white"/>
<path d="M80 15.5H36C32.9624 15.5 30.5 17.9624 30.5 21V99C30.5 102.038 32.9624 104.5 36 104.5H80C83.0376 104.5 85.5 102.038 85.5 99V21C85.5 17.9624 83.0376 15.5 80 15.5Z" stroke="#585858" stroke-width="2"/>
<path d="M78 28.5H38C37.1716 28.5 36.5 29.1716 36.5 30V94C36.5 94.8284 37.1716 95.5 38 95.5H78C78.8284 95.5 79.5 94.8284 79.5 94V30C79.5 29.1716 78.8284 28.5 78 28.5Z" stroke="#585858" stroke-width="2"/>
<path d="M51 21.348H65.609" stroke="#585858" stroke-width="2" stroke-linecap="round"/>
<path d="M19.0385 61.162C19.0855 61.2977 19.0964 61.4432 19.0704 61.5844C19.0443 61.7256 18.9821 61.8577 18.8898 61.9677C18.7976 62.0777 18.6783 62.1619 18.5438 62.2122C18.4093 62.2624 18.2641 62.2769 18.1223 62.2543L16.2414 61.9229L14.3587 61.5869C14.2155 61.5626 14.0811 61.5011 13.969 61.4087C13.8569 61.3162 13.771 61.196 13.7199 61.06C13.6687 60.924 13.6541 60.7769 13.6776 60.6335C13.701 60.4901 13.7617 60.3554 13.8534 60.2427L15.0832 58.7794L16.3129 57.3161C16.4069 57.2047 16.5285 57.12 16.6655 57.0705C16.8025 57.0209 16.9501 57.0082 17.0936 57.0337C17.2371 57.0592 17.3713 57.122 17.4828 57.2158C17.5944 57.3095 17.6793 57.431 17.7291 57.5679L18.4008 59.3548L19.0385 61.162Z" fill="#808080"/>
<path d="M80.9831 7.05748C80.819 6.92664 80.6947 6.75115 80.6224 6.54808C80.55 6.34502 80.5321 6.12133 80.5703 5.89882C80.6085 5.67631 80.7015 5.46259 80.8403 5.27847C80.9791 5.09434 81.159 4.94611 81.3623 4.84823L84.0834 3.58971L86.8103 2.33555C87.0169 2.2385 87.2398 2.19666 87.4568 2.21422C87.6739 2.23177 87.8775 2.30813 88.0473 2.43562C88.2171 2.56311 88.3473 2.73728 88.4247 2.94081C88.5022 3.14433 88.5242 3.37007 88.4887 3.5955L87.9777 6.55726L87.4667 9.51901C87.4273 9.74475 87.3315 9.96124 87.1889 10.1468C87.0463 10.3323 86.8619 10.4803 86.6542 10.576C86.4465 10.6717 86.2228 10.7117 86.0055 10.692C85.7882 10.6722 85.5849 10.5935 85.4161 10.4637L83.1849 8.78868L80.9831 7.05748Z" fill="#808080"/>
<path d="M5.5 37C6.88071 37 8 35.8807 8 34.5C8 33.1193 6.88071 32 5.5 32C4.11929 32 3 33.1193 3 34.5C3 35.8807 4.11929 37 5.5 37Z" stroke="#D0D0D0" stroke-width="2" stroke-miterlimit="10"/>
<path d="M96.5 59C97.8807 59 99 57.8807 99 56.5C99 55.1193 97.8807 54 96.5 54C95.1193 54 94 55.1193 94 56.5C94 57.8807 95.1193 59 96.5 59Z" stroke="#B1B1B1" stroke-width="0.5" stroke-miterlimit="10"/>
<path d="M27.7201 13.5317L24.9001 13.2399L25.1835 10.5015C25.2157 10.3875 25.2226 10.2679 25.2037 10.151C25.1848 10.0342 25.1405 9.92282 25.074 9.82484C25.0075 9.72687 24.9204 9.64461 24.8188 9.58385C24.7172 9.52309 24.6035 9.48528 24.4857 9.47309C24.3679 9.4609 24.2489 9.47462 24.137 9.51328C24.0251 9.55194 23.923 9.61461 23.8378 9.6969C23.7527 9.77918 23.6866 9.8791 23.6441 9.98963C23.6016 10.1002 23.5839 10.2186 23.592 10.3368L23.3086 13.0751L20.4797 12.7823C20.3658 12.7502 20.2462 12.7433 20.1293 12.7622C20.0124 12.7811 19.9011 12.8254 19.8031 12.8919C19.7051 12.9584 19.6229 13.0455 19.5621 13.1471C19.5013 13.2487 19.4635 13.3624 19.4513 13.4802C19.4392 13.598 19.4529 13.717 19.4915 13.8289C19.5302 13.9408 19.5929 14.0429 19.6751 14.1281C19.7574 14.2132 19.8573 14.2793 19.9679 14.3218C20.0784 14.3642 20.1969 14.382 20.315 14.3738L23.13 14.6652L22.8304 17.5597C22.8436 17.7505 22.9237 17.9305 23.0566 18.068C23.1895 18.2056 23.3666 18.2917 23.5569 18.3114C23.7471 18.3311 23.9382 18.283 24.0964 18.1757C24.2546 18.0683 24.3699 17.9085 24.4219 17.7245L24.7194 14.8498L27.5374 15.1415C27.7281 15.1283 27.9082 15.0482 28.0457 14.9153C28.1832 14.7824 28.2694 14.6052 28.2891 14.415C28.3088 14.2248 28.2607 14.0337 28.1533 13.8755C28.0459 13.7172 27.8861 13.6019 27.7021 13.55L27.7201 13.5317Z" fill="#B3B3B3"/>
<path d="M99.5814 74.2043L98.2362 74.3583L98.087 73.0559C98.0656 72.9635 98.0109 72.8823 97.9335 72.8277C97.8561 72.773 97.7612 72.7488 97.6671 72.7596C97.5729 72.7704 97.486 72.8154 97.4229 72.8862C97.3598 72.9569 97.325 73.0484 97.325 73.1431L97.4742 74.4456L96.1379 74.5987C96.0456 74.6201 95.9644 74.6747 95.9097 74.7522C95.8551 74.8296 95.8308 74.9245 95.8416 75.0186C95.8524 75.1128 95.8975 75.1997 95.9682 75.2628C96.0389 75.3259 96.1304 75.3607 96.2252 75.3607L97.5614 75.2076L97.7179 76.5737C97.7179 76.6281 97.7294 76.6819 97.7517 76.7315C97.7739 76.7812 97.8064 76.8255 97.847 76.8617C97.8876 76.8979 97.9354 76.9251 97.9872 76.9416C98.0391 76.958 98.0938 76.9633 98.1478 76.9571C98.2019 76.951 98.254 76.9334 98.3008 76.9057C98.3476 76.8779 98.388 76.8406 98.4193 76.7962C98.4507 76.7517 98.4723 76.7012 98.4827 76.6478C98.4932 76.5944 98.4922 76.5394 98.4799 76.4864L98.3235 75.1204L99.6597 74.9673C99.7521 74.9459 99.8333 74.8913 99.8879 74.8138C99.9425 74.7364 99.9668 74.6415 99.956 74.5474C99.9452 74.4532 99.9002 74.3663 99.8294 74.3032C99.7587 74.2401 99.6672 74.2053 99.5724 74.2053L99.5814 74.2043Z" fill="#B2B2B2"/>
<path d="M62.917 48H52.917C52.3647 48 51.917 48.4477 51.917 49C51.917 49.5523 52.3647 50 52.917 50H62.917C63.4693 50 63.917 49.5523 63.917 49C63.917 48.4477 63.4693 48 62.917 48Z" fill="white"/>
<path d="M82.769 39.5L82.6805 39.3789L82.6805 39.379L82.6804 39.379L82.68 39.3793L82.6785 39.3804L82.6726 39.3847L82.6499 39.4013L82.5672 39.4613C82.4978 39.5115 82.4032 39.5796 82.3024 39.6511C82.0972 39.7968 81.8773 39.9489 81.7854 40.0004L76.3918 43.0222C75.8354 43.3339 75.1321 42.9009 75.1503 42.2202C75.1504 42.2199 75.1504 42.2195 75.1504 42.2191L75.4189 36.0065L75.419 36.0065L75.419 36L75.4189 35.4521V35.452V25C75.4189 23.426 76.6949 22.15 78.2689 22.15H115.269C116.843 22.15 118.119 23.426 118.119 25V36.6582C118.119 38.2321 116.843 39.508 115.269 39.5082C115.269 39.5082 115.269 39.5082 115.269 39.5082L82.7698 39.35L82.7204 39.3498L82.6805 39.3789L82.769 39.5Z" fill="#B1B1B1" stroke="#585858" stroke-width="0.3"/>
<path d="M91.1284 30.2027L88.3188 30.5821L90.3286 32.7456L88.4624 34.0274L87.0576 31.4229L85.6528 34.0274L83.7764 32.7456L85.7964 30.5821L82.9868 30.2027L83.7148 28.1314L86.2988 29.2388L85.8579 26.2959H88.2573L87.8164 29.2388L90.3799 28.1314L91.1284 30.2027ZM100.895 30.2027L98.0855 30.5821L100.095 32.7456L98.229 34.0274L96.8243 31.4229L95.4195 34.0274L93.543 32.7456L95.563 30.5821L92.7535 30.2027L93.4815 28.1314L96.0655 29.2388L95.6246 26.2959H98.024L97.583 29.2388L100.147 28.1314L100.895 30.2027ZM110.662 30.2027L107.852 30.5821L109.862 32.7456L107.996 34.0274L106.591 31.4229L105.186 34.0274L103.31 32.7456L105.33 30.5821L102.52 30.2027L103.248 28.1314L105.832 29.2388L105.391 26.2959H107.791L107.35 29.2388L109.913 28.1314L110.662 30.2027Z" fill="#585858"/>
<path d="M70 38L51 48.6875L57.072 50.9364L66.4375 42.1563L59.3138 51.7667L59.3196 51.7689L59.3125 51.7667V57L62.7177 53.0274L67.0313 54.625L70 38Z" fill="#585858"/>
<path d="M60 70L69 75.0625L66.1238 76.1278L61.6875 71.9688L65.0619 76.5211L65.0591 76.5221L65.0625 76.5211V79L63.4495 77.1182L61.4062 77.875L60 70Z" fill="#D0D0D0"/>
<path d="M58.3807 58.0001C55.7694 59.149 50.0533 62.2257 48.0795 65.3408C45.6122 69.2347 54.4256 77.5156 47.1084 79.2353C41.2545 80.611 40.5211 85.6121 40.8861 87.9407" stroke="#585858" stroke-width="0.75" stroke-dasharray="2 1"/>
<path d="M65.8486 79.0001C66.5496 79.3085 68.0841 80.1344 68.6139 80.9707C69.2763 82.016 66.9103 84.239 68.8747 84.7006C70.4461 85.0699 70.643 86.4124 70.545 87.0375" stroke="#D0D0D0" stroke-width="0.25" stroke-dasharray="1 0"/>
</svg>
