<svg width="117" height="101" viewBox="0 0 117 101" fill="none" xmlns="http://www.w3.org/2000/svg">
<path d="M110.76 51.188L106.96 51.358C106.96 51.228 106.98 51.101 106.984 50.963C107.057 50.8821 107.107 50.7823 107.126 50.6749C107.146 50.5674 107.135 50.4566 107.095 50.355C106.345 47.732 106.933 44.885 105.776 42.322C105.738 42.3025 105.698 42.2855 105.658 42.271C105.758 42.109 105.858 41.939 105.946 41.765C105.982 41.733 106.025 41.706 106.061 41.67C106.046 41.8758 106.091 42.0817 106.191 42.262H108.166C112.392 42.262 115.303 39.746 115.413 36.006C115.513 32.649 112.313 29.975 108.185 29.967C103.051 29.967 97.9401 30.034 92.8171 29.967C88.0221 29.88 85.5731 25.622 87.6831 21.333C88.8281 18.963 90.8431 18.323 93.2121 18.106C94.9501 17.944 96.3721 17.178 96.5341 15.254C96.6721 13.754 94.9541 12.454 93.0431 12.414C92.4594 12.3666 91.8728 12.3666 91.2891 12.414C88.0621 12.884 85.4041 11.66 82.7581 9.94901C75.7551 5.41701 67.8831 3.56901 59.7121 3.22101C50.9739 2.69178 42.2811 4.83061 34.7861 9.35401C31.3687 11.4432 27.3608 12.3547 23.3761 11.949C21.8412 11.804 20.2944 12.0446 18.8761 12.649C18.0495 13.0719 17.3323 13.6809 16.781 14.428C16.2297 15.1751 15.8593 16.04 15.6989 16.9545C15.5386 17.8691 15.5927 18.8084 15.857 19.6985C16.1213 20.5886 16.5886 21.4052 17.2221 22.084C17.7351 22.641 19.0701 22.902 18.1221 24.3C15.3033 28.2944 13.1582 32.7238 11.7721 37.412L10.1571 37.53C7.08007 37.783 4.44207 39.975 4.44207 43.245C4.46247 44.654 4.99458 46.0074 5.93918 47.053C6.88379 48.0987 8.17642 48.7651 9.57607 48.928V49.228C9.46132 52.1956 9.58673 55.1676 9.95107 58.115C9.75799 61.019 10.0679 63.9345 10.8671 66.733C10.7741 66.7922 10.6765 66.8437 10.5751 66.887C9.46808 66.2761 8.21957 65.968 6.95548 65.9936C5.69138 66.0192 4.45639 66.3778 3.37507 67.033C-0.664925 69.533 -1.30493 75.493 2.69607 78.364C5.54807 80.414 9.95907 80.449 13.3321 80.793C14.8174 80.943 16.3037 81.047 17.7911 81.105C18.0804 81.1445 18.372 81.1656 18.6641 81.168C18.8198 81.172 18.9756 81.164 19.1301 81.144H21.0691C22.0801 85.038 24.2691 88.905 27.4401 91.018H26.8121C24.7461 91.046 23.1471 92.361 23.1941 93.98C23.2411 95.599 24.6471 96.705 26.7491 96.717C29.8221 96.737 32.8981 96.776 35.9711 96.717C37.7171 96.6818 39.4531 96.9875 41.0821 97.617C48.8803 100.597 57.3256 101.472 65.5691 100.153C73.5691 98.834 81.0631 96.089 87.4141 90.793C88.7022 89.6922 90.368 89.1356 92.0591 89.241C95.4241 89.367 98.7931 89.241 102.159 89.288C103.336 89.344 104.487 88.9308 105.359 88.139C109.044 84.839 108.021 79.845 103.195 77.558C103.084 77.2531 102.952 76.956 102.8 76.669L102.01 75.089C102.181 74.9015 102.341 74.7038 102.488 74.497C105.05 71.0378 106.815 67.0551 107.658 62.834C108.685 62.7947 109.71 62.7197 110.735 62.609C113.804 62.281 116.45 60.239 116.45 56.898C116.445 55.3888 115.844 53.9426 114.779 52.8736C113.713 51.8045 112.269 51.1988 110.76 51.188ZM85.3761 69.751C85.3131 69.751 85.2851 69.715 85.3051 69.66C85.1191 70.091 85.4351 68.416 85.3761 69.767V69.751Z" fill="#E2E2E2" fill-opacity="0.48"/>
<path d="M79.9171 3.16998H35.9171C32.6034 3.16998 29.9171 5.85627 29.9171 9.16998V87.17C29.9171 90.4837 32.6034 93.17 35.9171 93.17H79.9171C83.2308 93.17 85.9171 90.4837 85.9171 87.17V9.16998C85.9171 5.85627 83.2308 3.16998 79.9171 3.16998Z" fill="white"/>
<path d="M79.9171 3.66998H35.9171C32.8795 3.66998 30.4171 6.13242 30.4171 9.16998V87.17C30.4171 90.2076 32.8795 92.67 35.9171 92.67H79.9171C82.9547 92.67 85.4171 90.2076 85.4171 87.17V9.16998C85.4171 6.13242 82.9547 3.66998 79.9171 3.66998Z" stroke="#585858" stroke-width="2"/>
<path d="M77.9171 16.67H37.9171C37.0887 16.67 36.4171 17.3416 36.4171 18.17V82.17C36.4171 82.9984 37.0887 83.67 37.9171 83.67H77.9171C78.7455 83.67 79.4171 82.9984 79.4171 82.17V18.17C79.4171 17.3416 78.7455 16.67 77.9171 16.67Z" stroke="#585858" stroke-width="2"/>
<path d="M50.9171 9.51797H65.5261" stroke="#747474" stroke-width="2" stroke-linecap="round"/>
<path d="M52.8794 37.3727L50.0698 37.7521L52.0796 39.9156L50.2134 41.1974L48.8086 38.5929L47.4038 41.1974L45.5273 39.9156L47.5474 37.7521L44.7378 37.3727L45.4658 35.3014L48.0498 36.4088L47.6089 33.4659H50.0083L49.5674 36.4088L52.1309 35.3014L52.8794 37.3727ZM62.436 37.3727L59.6265 37.7521L61.6362 39.9156L59.77 41.1974L58.3652 38.5929L56.9604 41.1974L55.084 39.9156L57.104 37.7521L54.2944 37.3727L55.0225 35.3014L57.6064 36.4088L57.1655 33.4659H59.5649L59.124 36.4088L61.6875 35.3014L62.436 37.3727ZM71.9927 37.3727L69.1831 37.7521L71.1929 39.9156L69.3267 41.1974L67.9219 38.5929L66.5171 41.1974L64.6406 39.9156L66.6606 37.7521L63.8511 37.3727L64.5791 35.3014L67.1631 36.4088L66.7222 33.4659H69.1216L68.6807 36.4088L71.2441 35.3014L71.9927 37.3727Z" fill="#747474"/>
<path d="M57.9171 72.17C65.0968 72.17 70.9171 66.3497 70.9171 59.17C70.9171 51.9903 65.0968 46.17 57.9171 46.17C50.7374 46.17 44.9171 51.9903 44.9171 59.17C44.9171 66.3497 50.7374 72.17 57.9171 72.17Z" fill="#B5B5B5"/>
<path d="M57.9171 71.67C64.8207 71.67 70.4171 66.0735 70.4171 59.17C70.4171 52.2664 64.8207 46.67 57.9171 46.67C51.0136 46.67 45.4171 52.2664 45.4171 59.17C45.4171 66.0735 51.0136 71.67 57.9171 71.67Z" stroke="#747474"/>
<path d="M18.5171 50.148C18.5133 50.2915 18.4723 50.4316 18.3982 50.5546C18.3242 50.6776 18.2195 50.7794 18.0944 50.8499C17.9693 50.9204 17.8281 50.9572 17.6845 50.9569C17.5409 50.9566 17.3999 50.9191 17.2751 50.848L15.6311 49.876L13.9871 48.899C13.8615 48.8258 13.7574 48.721 13.685 48.5951C13.6125 48.4691 13.5745 48.3263 13.5745 48.181C13.5745 48.0357 13.6125 47.8929 13.685 47.7669C13.7574 47.641 13.8615 47.5362 13.9871 47.463L15.6531 46.526L17.3191 45.589C17.4462 45.5178 17.5898 45.4813 17.7355 45.4831C17.8812 45.4849 18.0239 45.525 18.1492 45.5994C18.2745 45.6737 18.378 45.7797 18.4495 45.9067C18.5209 46.0337 18.5576 46.1773 18.5561 46.323V48.232L18.5171 50.148Z" fill="#747474"/>
<path d="M97.7951 8.524C99.8728 8.524 101.557 6.83969 101.557 4.762C101.557 2.6843 99.8728 1 97.7951 1C95.7174 1 94.0331 2.6843 94.0331 4.762C94.0331 6.83969 95.7174 8.524 97.7951 8.524Z" stroke="#B1B1B1" stroke-width="2" stroke-miterlimit="10"/>
<path d="M17.893 6.86601H15.058V4.11301C15.0783 3.99636 15.0729 3.87668 15.042 3.76236C15.0111 3.64804 14.9557 3.54185 14.8794 3.45124C14.8032 3.36063 14.7081 3.28778 14.6008 3.2378C14.4934 3.18782 14.3765 3.16193 14.258 3.16193C14.1396 3.16193 14.0227 3.18782 13.9153 3.2378C13.808 3.28778 13.7129 3.36063 13.6366 3.45124C13.5604 3.54185 13.5049 3.64804 13.4741 3.76236C13.4432 3.87668 13.4378 3.99636 13.458 4.11301V6.86601H10.614C10.4974 6.84573 10.3777 6.85121 10.2634 6.88206C10.1491 6.91291 10.0429 6.96839 9.95227 7.04461C9.86166 7.12083 9.78881 7.21594 9.73884 7.32329C9.68886 7.43063 9.66296 7.54761 9.66296 7.66602C9.66296 7.78442 9.68886 7.90139 9.73884 8.00874C9.78881 8.11608 9.86166 8.2112 9.95227 8.28741C10.0429 8.36363 10.1491 8.41911 10.2634 8.44997C10.3777 8.48082 10.4974 8.48629 10.614 8.46601H13.444V11.376C13.4768 11.5644 13.575 11.7352 13.7214 11.8583C13.8677 11.9814 14.0528 12.0489 14.244 12.0489C14.4353 12.0489 14.6204 11.9814 14.7667 11.8583C14.9131 11.7352 15.0113 11.5644 15.044 11.376V8.48602H17.877C18.0655 8.45326 18.2363 8.35505 18.3594 8.2087C18.4825 8.06235 18.55 7.87725 18.55 7.68601C18.55 7.49477 18.4825 7.30967 18.3594 7.16332C18.2363 7.01697 18.0655 6.91877 17.877 6.88601L17.893 6.86601Z" fill="#B1B1B1"/>
<path d="M99.6451 62.399H98.2911V61.088C98.2803 60.9938 98.2352 60.9069 98.1645 60.8438C98.0938 60.7807 98.0023 60.7458 97.9076 60.7458C97.8128 60.7458 97.7213 60.7807 97.6506 60.8438C97.5799 60.9069 97.5348 60.9938 97.5241 61.088V62.399H96.1791C96.0849 62.4098 95.998 62.4548 95.9349 62.5255C95.8718 62.5963 95.8369 62.6877 95.8369 62.7825C95.8369 62.8773 95.8718 62.9687 95.9349 63.0395C95.998 63.1102 96.0849 63.1552 96.1791 63.166H97.5241V64.541C97.5179 64.595 97.5232 64.6498 97.5396 64.7016C97.5561 64.7535 97.5833 64.8012 97.6195 64.8418C97.6557 64.8824 97.7001 64.9149 97.7497 64.9371C97.7994 64.9594 97.8532 64.9709 97.9076 64.9709C97.9619 64.9709 98.0157 64.9594 98.0654 64.9371C98.115 64.9149 98.1594 64.8824 98.1956 64.8418C98.2318 64.8012 98.259 64.7535 98.2755 64.7016C98.2919 64.6498 98.2972 64.595 98.2911 64.541V63.166H99.6361C99.7302 63.1552 99.8171 63.1102 99.8802 63.0395C99.9433 62.9687 99.9782 62.8773 99.9782 62.7825C99.9782 62.6877 99.9433 62.5963 99.8802 62.5255C99.8171 62.4548 99.7302 62.4098 99.6361 62.399H99.6451Z" fill="#747474"/>
<path d="M62.9171 58.17H52.9171C52.3648 58.17 51.9171 58.6177 51.9171 59.17C51.9171 59.7223 52.3648 60.17 52.9171 60.17H62.9171C63.4694 60.17 63.9171 59.7223 63.9171 59.17C63.9171 58.6177 63.4694 58.17 62.9171 58.17Z" fill="white"/>
</svg>
