<svg width="117" height="101" viewBox="0 0 117 101" fill="none" xmlns="http://www.w3.org/2000/svg">
<path d="M110.76 51.188L106.96 51.358C106.96 51.228 106.98 51.101 106.984 50.963C107.057 50.8821 107.107 50.7823 107.126 50.6748C107.146 50.5674 107.135 50.4566 107.095 50.355C106.345 47.732 106.933 44.885 105.776 42.322C105.738 42.3025 105.698 42.2854 105.658 42.271C105.758 42.109 105.858 41.939 105.946 41.765C105.982 41.733 106.025 41.706 106.061 41.67C106.046 41.8758 106.091 42.0816 106.191 42.262H108.166C112.392 42.262 115.303 39.746 115.413 36.006C115.513 32.649 112.313 29.975 108.185 29.967C103.051 29.967 97.9401 30.034 92.8171 29.967C88.0221 29.88 85.5731 25.622 87.6831 21.333C88.8281 18.963 90.8431 18.323 93.2121 18.106C94.9501 17.944 96.3721 17.178 96.5341 15.254C96.6721 13.754 94.9541 12.454 93.0431 12.414C92.4594 12.3665 91.8728 12.3665 91.2891 12.414C88.0621 12.884 85.4041 11.66 82.7581 9.94898C75.7551 5.41698 67.8831 3.56898 59.7121 3.22098C50.9739 2.69175 42.2811 4.83058 34.7861 9.35398C31.3687 11.4432 27.3608 12.3547 23.3761 11.949C21.8412 11.804 20.2944 12.0446 18.8761 12.649C18.0495 13.0719 17.3323 13.6808 16.781 14.428C16.2297 15.1751 15.8593 16.0399 15.6989 16.9545C15.5386 17.869 15.5927 18.8083 15.857 19.6984C16.1213 20.5885 16.5886 21.4051 17.2221 22.084C17.7351 22.641 19.0701 22.902 18.1221 24.3C15.3033 28.2944 13.1582 32.7237 11.7721 37.412L10.1571 37.53C7.08007 37.783 4.44207 39.975 4.44207 43.245C4.46247 44.6539 4.99458 46.0074 5.93918 47.053C6.88379 48.0986 8.17642 48.765 9.57607 48.928V49.228C9.46132 52.1956 9.58673 55.1676 9.95107 58.115C9.75799 61.019 10.0679 63.9345 10.8671 66.733C10.7741 66.7922 10.6765 66.8437 10.5751 66.887C9.46808 66.2761 8.21957 65.9679 6.95548 65.9936C5.69138 66.0192 4.45639 66.3777 3.37507 67.033C-0.664925 69.533 -1.30493 75.493 2.69607 78.364C5.54807 80.414 9.95907 80.449 13.3321 80.793C14.8174 80.943 16.3037 81.047 17.7911 81.105C18.0804 81.1445 18.372 81.1656 18.6641 81.168C18.8198 81.172 18.9756 81.164 19.1301 81.144H21.0691C22.0801 85.038 24.2691 88.905 27.4401 91.018H26.8121C24.7461 91.046 23.1471 92.361 23.1941 93.98C23.2411 95.599 24.6471 96.705 26.7491 96.717C29.8221 96.737 32.8981 96.776 35.9711 96.717C37.7171 96.6818 39.4531 96.9875 41.0821 97.617C48.8803 100.597 57.3256 101.472 65.5691 100.153C73.5691 98.834 81.0631 96.089 87.4141 90.793C88.7022 89.6922 90.368 89.1356 92.0591 89.241C95.4241 89.367 98.7931 89.241 102.159 89.288C103.336 89.344 104.487 88.9307 105.359 88.139C109.044 84.839 108.021 79.845 103.195 77.558C103.084 77.253 102.952 76.956 102.8 76.669L102.01 75.089C102.181 74.9015 102.341 74.7038 102.488 74.497C105.05 71.0377 106.815 67.0551 107.658 62.834C108.685 62.7946 109.71 62.7196 110.735 62.609C113.804 62.281 116.45 60.239 116.45 56.898C116.445 55.3887 115.844 53.9426 114.779 52.8735C113.713 51.8045 112.269 51.1988 110.76 51.188ZM85.3761 69.751C85.3131 69.751 85.2851 69.715 85.3051 69.66C85.1191 70.091 85.4351 68.416 85.3761 69.767V69.751Z" fill="#F26464" fill-opacity="0.31"/>
<path d="M79.917 3.16998H35.917C32.6033 3.16998 29.917 5.85627 29.917 9.16998V87.17C29.917 90.4837 32.6033 93.17 35.917 93.17H79.917C83.2307 93.17 85.917 90.4837 85.917 87.17V9.16998C85.917 5.85627 83.2307 3.16998 79.917 3.16998Z" fill="white"/>
<path d="M79.917 3.66998H35.917C32.8794 3.66998 30.417 6.13242 30.417 9.16998V87.17C30.417 90.2076 32.8794 92.67 35.917 92.67H79.917C82.9546 92.67 85.417 90.2076 85.417 87.17V9.16998C85.417 6.13242 82.9546 3.66998 79.917 3.66998Z" stroke="#585858" stroke-width="2"/>
<path d="M77.917 16.67H37.917C37.0886 16.67 36.417 17.3416 36.417 18.17V82.17C36.417 82.9984 37.0886 83.67 37.917 83.67H77.917C78.7454 83.67 79.417 82.9984 79.417 82.17V18.17C79.417 17.3416 78.7454 16.67 77.917 16.67Z" stroke="#585858" stroke-width="2"/>
<path d="M50.917 9.51801H65.526" stroke="#747474" stroke-width="2" stroke-linecap="round"/>
<path d="M52.8794 37.3726L50.0698 37.752L52.0796 39.9155L50.2134 41.1973L48.8086 38.5928L47.4038 41.1973L45.5273 39.9155L47.5474 37.752L44.7378 37.3726L45.4658 35.3013L48.0498 36.4087L47.6089 33.4658H50.0083L49.5674 36.4087L52.1309 35.3013L52.8794 37.3726ZM62.436 37.3726L59.6265 37.752L61.6362 39.9155L59.77 41.1973L58.3652 38.5928L56.9604 41.1973L55.084 39.9155L57.104 37.752L54.2944 37.3726L55.0225 35.3013L57.6064 36.4087L57.1655 33.4658H59.5649L59.124 36.4087L61.6875 35.3013L62.436 37.3726ZM71.9927 37.3726L69.1831 37.752L71.1929 39.9155L69.3267 41.1973L67.9219 38.5928L66.5171 41.1973L64.6406 39.9155L66.6606 37.752L63.8511 37.3726L64.5791 35.3013L67.1631 36.4087L66.7222 33.4658H69.1216L68.6807 36.4087L71.2441 35.3013L71.9927 37.3726Z" fill="#747474"/>
<path d="M57.917 71.67C54.5781 71.67 51.4391 70.3698 49.0782 68.0088C46.7172 65.6479 45.417 62.5089 45.417 59.17C45.417 55.8311 46.7172 52.6921 49.0782 50.3312C51.4391 47.9702 54.5781 46.67 57.917 46.67C61.2559 46.67 64.3949 47.9702 66.7558 50.3312C69.1168 52.6921 70.417 55.8311 70.417 59.17C70.417 62.5089 69.1168 65.6479 66.7558 68.0088C64.3949 70.3698 61.2559 71.67 57.917 71.67Z" fill="#F26464"/>
<path d="M57.917 47.17C54.7117 47.17 51.6982 48.4182 49.4317 50.6847C47.1652 52.9512 45.917 55.9647 45.917 59.17C45.917 62.3753 47.1652 65.3888 49.4317 67.6553C51.6982 69.9218 54.7117 71.17 57.917 71.17C61.1223 71.17 64.1358 69.9218 66.4023 67.6553C68.6688 65.3888 69.917 62.3753 69.917 59.17C69.917 55.9647 68.6688 52.9512 66.4023 50.6847C64.1358 48.4182 61.1223 47.17 57.917 47.17ZM57.917 46.17C65.0967 46.17 70.917 51.9903 70.917 59.17C70.917 66.3497 65.0967 72.17 57.917 72.17C50.7373 72.17 44.917 66.3497 44.917 59.17C44.917 51.9903 50.7373 46.17 57.917 46.17Z" fill="#747474"/>
<path d="M18.5171 50.148C18.5133 50.2915 18.4723 50.4316 18.3982 50.5546C18.3242 50.6776 18.2195 50.7794 18.0944 50.8499C17.9693 50.9204 17.8281 50.9572 17.6845 50.9569C17.5409 50.9566 17.3999 50.9191 17.2751 50.848L15.6311 49.876L13.9871 48.899C13.8615 48.8258 13.7574 48.721 13.685 48.5951C13.6125 48.4691 13.5745 48.3263 13.5745 48.181C13.5745 48.0357 13.6125 47.8929 13.685 47.7669C13.7574 47.641 13.8615 47.5362 13.9871 47.463L15.6531 46.526L17.3191 45.589C17.4462 45.5178 17.5898 45.4813 17.7355 45.4831C17.8812 45.4849 18.0239 45.525 18.1492 45.5994C18.2745 45.6737 18.378 45.7797 18.4495 45.9067C18.5209 46.0337 18.5576 46.1773 18.5561 46.323V48.232L18.5171 50.148Z" fill="#F26464" fill-opacity="0.8"/>
<path d="M97.795 8.524C99.8727 8.524 101.557 6.83969 101.557 4.762C101.557 2.6843 99.8727 1 97.795 1C95.7173 1 94.033 2.6843 94.033 4.762C94.033 6.83969 95.7173 8.524 97.795 8.524Z" stroke="#F26464" stroke-opacity="0.8" stroke-width="2" stroke-miterlimit="10"/>
<path d="M17.8932 6.86601H15.0582V4.11301C15.0785 3.99636 15.073 3.87668 15.0421 3.76236C15.0113 3.64804 14.9558 3.54185 14.8796 3.45124C14.8034 3.36063 14.7082 3.28778 14.6009 3.2378C14.4935 3.18782 14.3766 3.16193 14.2582 3.16193C14.1398 3.16193 14.0228 3.18782 13.9154 3.2378C13.8081 3.28778 13.713 3.36063 13.6368 3.45124C13.5605 3.54185 13.5051 3.64804 13.4742 3.76236C13.4434 3.87668 13.4379 3.99636 13.4582 4.11301V6.86601H10.6142C10.4975 6.84573 10.3778 6.85121 10.2635 6.88206C10.1492 6.91291 10.043 6.96839 9.9524 7.04461C9.86178 7.12083 9.78893 7.21594 9.73896 7.32329C9.68898 7.43063 9.66309 7.54761 9.66309 7.66602C9.66309 7.78442 9.68898 7.90139 9.73896 8.00874C9.78893 8.11608 9.86178 8.2112 9.9524 8.28741C10.043 8.36363 10.1492 8.41911 10.2635 8.44997C10.3778 8.48082 10.4975 8.48629 10.6142 8.46601H13.4442V11.376C13.4769 11.5644 13.5751 11.7352 13.7215 11.8583C13.8678 11.9814 14.0529 12.0489 14.2442 12.0489C14.4354 12.0489 14.6205 11.9814 14.7669 11.8583C14.9132 11.7352 15.0114 11.5644 15.0442 11.376V8.48602H17.8772C18.0656 8.45326 18.2364 8.35505 18.3595 8.2087C18.4826 8.06235 18.5501 7.87725 18.5501 7.68601C18.5501 7.49477 18.4826 7.30967 18.3595 7.16332C18.2364 7.01697 18.0656 6.91877 17.8772 6.88601L17.8932 6.86601Z" fill="#F26464" fill-opacity="0.8"/>
<path d="M97.458 64.213H96.104V62.902C96.0933 62.8078 96.0482 62.7209 95.9775 62.6578C95.9068 62.5947 95.8153 62.5598 95.7205 62.5598C95.6258 62.5598 95.5343 62.5947 95.4636 62.6578C95.3928 62.7209 95.3478 62.8078 95.337 62.902V64.213H93.992C93.8979 64.2237 93.811 64.2688 93.7479 64.3395C93.6848 64.4102 93.6499 64.5017 93.6499 64.5965C93.6499 64.6912 93.6848 64.7827 93.7479 64.8534C93.811 64.9241 93.8979 64.9692 93.992 64.9799H95.337V66.3549C95.3309 66.409 95.3362 66.4637 95.3526 66.5156C95.3691 66.5674 95.3963 66.6152 95.4325 66.6558C95.4687 66.6964 95.5131 66.7288 95.5627 66.7511C95.6124 66.7733 95.6662 66.7848 95.7205 66.7848C95.7749 66.7848 95.8287 66.7733 95.8783 66.7511C95.928 66.7288 95.9724 66.6964 96.0086 66.6558C96.0448 66.6152 96.072 66.5674 96.0885 66.5156C96.1049 66.4637 96.1102 66.409 96.104 66.3549V64.9799H97.449C97.5432 64.9692 97.6301 64.9241 97.6932 64.8534C97.7563 64.7827 97.7912 64.6912 97.7912 64.5965C97.7912 64.5017 97.7563 64.4102 97.6932 64.3395C97.6301 64.2688 97.5432 64.2237 97.449 64.213H97.458Z" fill="#F26464" fill-opacity="0.8"/>
<path d="M52.9587 54.0803L52.8272 54.2118C52.4367 54.6024 52.4367 55.2355 52.8272 55.6261L61.4617 64.2605C61.8522 64.6511 62.4854 64.6511 62.8759 64.2605L63.0074 64.129C63.398 63.7385 63.398 63.1053 63.0074 62.7148L54.373 54.0803C53.9824 53.6898 53.3493 53.6898 52.9587 54.0803Z" fill="white"/>
<path d="M63.0066 54.2116L62.8751 54.0801C62.4846 53.6896 61.8514 53.6896 61.4609 54.0801L52.8264 62.7146C52.4359 63.1051 52.4359 63.7383 52.8264 64.1288L52.9579 64.2603C53.3484 64.6508 53.9816 64.6508 54.3721 64.2603L63.0066 55.6258C63.3971 55.2353 63.3971 54.6021 63.0066 54.2116Z" fill="white"/>
</svg>
