<svg width="32" height="21" viewBox="0 0 32 21" fill="none" xmlns="http://www.w3.org/2000/svg">
<path d="M0.872131 13.7458L1.93884 14.4276C1.93884 14.4276 2.1568 13.8717 2.97564 14.037C3.79447 14.2024 7.1364 14.4616 7.1364 14.4616C7.1364 14.4616 8.3403 14.7995 8.89708 14.4082C9.45355 14.0168 21.7925 14.0353 21.7925 14.0353L23.5674 14.4819C23.5674 14.4819 24.1485 14.2797 24.5591 14.2643C24.9701 14.2488 28.4955 14.1714 28.4955 14.1714L29.1161 14.0634L30.5829 12.7679L27.6372 8.75574L6.01821 9.54051L1.62221 10.7834L0.872131 13.7458Z" fill="#050606"/>
<path d="M31.5589 13.1577H32.8213C32.8213 13.1577 32.9884 13.1487 32.9604 13.4673C32.932 13.7857 32.67 13.7435 32.67 13.7435H31.4491L31.5589 13.1577Z" fill="#E0E4E9"/>
<path d="M3.36342 9.32801L2.77519 9.25223C2.77519 9.25223 1.79173 9.40675 1.23803 9.88211C0.684637 10.3575 0.45218 11.2874 0.485476 11.4202C0.518772 11.5531 2.31213 10.8448 2.35622 10.7838C2.40061 10.7228 3.36342 9.32801 3.36342 9.32801Z" fill="#C5D6E3"/>
<path d="M8.6236 8.42374C8.6236 8.42374 8.86222 8.29 9.03424 8.23268C9.20597 8.17537 9.80776 8.08945 9.76953 8.13721C9.7313 8.18493 9.49268 8.29 9.54016 8.42374C9.58795 8.55741 8.6236 8.42374 8.6236 8.42374Z" fill="#5C6067"/>
<path d="M9.28223 8.43375C9.28223 8.43375 13.2287 6.22062 14.5658 5.75262L15.0794 5.77871L12.1093 7.41187L10.2469 8.64389L9.28223 8.43375Z" fill="#C5D6E3"/>
<path d="M31.3254 8.28734C31.3254 8.28734 31.8015 8.14352 31.8788 8.46449C31.9562 8.78549 31.9562 9.09542 32.0891 9.42755C32.222 9.75961 32.3105 9.95886 32.1998 10.1913C32.0891 10.4238 30.2517 9.96996 30.2517 9.96996C30.2517 9.96996 30.2406 8.30948 31.3254 8.28734Z" fill="#AE222F"/>
<path d="M8.30984 14.6055C9.34849 14.5126 21.2697 14.4862 23.2807 14.4824L23.2693 13.9231L8.30737 14.1824C8.30799 14.3459 8.3086 14.4865 8.30984 14.6055Z" fill="#9D9E9B"/>
<path d="M32.4023 10.7315C32.4023 10.623 32.2473 9.98762 32.2473 9.98762C32.2473 9.98762 32.0459 9.98013 31.4648 9.96462C30.8837 9.94911 30.7674 9.41487 30.6355 9.15914C30.5038 8.90337 31.5656 8.50903 31.6896 8.32304C31.8135 8.13701 29.8839 7.96054 29.4732 7.91402C29.0622 7.86753 27.8846 7.16578 26.3344 6.40636C24.7846 5.64684 22.8242 5.15039 19.0889 5.15039C15.3536 5.15039 14.3263 5.82063 14.3263 5.82063H14.7724C11.8199 7.17713 10.1455 8.34209 10.1455 8.34209C9.83567 8.43507 8.8744 8.32193 8.8744 8.32193C4.38715 8.77913 2.77476 9.25215 2.77476 9.25215C2.77476 9.25215 3.18418 9.43888 3.09909 9.56291C3.01369 9.68688 1.77125 10.5874 1.38403 10.9284C0.996506 11.2694 0.464697 11.2494 0.464697 11.2494C0.0592875 11.4341 -0.013779 11.762 0.0019441 11.9791C0.0173589 12.196 0.18014 13.2345 0.187848 13.374C0.195555 13.5135 -0.0214861 13.4979 0.0484971 13.7537C0.118172 14.0094 0.730448 14.3117 0.730448 14.3117L1.73642 14.4084C1.67568 14.1097 1.50365 13.1153 1.75522 12.4861C2.05427 11.7387 2.81946 10.2234 4.94424 10.2234C6.66206 10.2234 8.30621 11.3468 8.30621 13.7127C8.30621 13.8881 8.30652 14.0435 8.30714 14.1826L23.2691 13.9233L23.2617 13.5446C23.2617 13.5446 23.7198 10.1737 26.6652 10.3201C29.1942 10.4457 29.648 12.7011 29.348 14.0435C29.9017 13.9956 31.2737 13.8793 31.4648 13.8854C31.705 13.8931 31.8058 13.6917 31.8058 13.6917C33.1463 13.3042 32.6813 12.8625 32.6813 12.8625C32.9758 12.2736 32.9526 11.8861 32.9915 11.3359C33.03 10.7857 32.4023 10.7315 32.4023 10.7315Z" fill="#A8A8A3"/>
<path d="M26.6651 10.3203C23.7197 10.174 23.2615 13.5448 23.2615 13.5448L23.2803 14.483C23.4662 14.4826 23.5677 14.4824 23.5677 14.4824C23.5214 13.8547 23.5446 10.7213 26.6907 10.6868C29.5193 10.6558 29.1164 14.0639 29.1164 14.0639C29.1164 14.0639 29.2055 14.0561 29.3479 14.0438C29.6479 12.7013 29.1941 10.446 26.6651 10.3203Z" fill="#9D9E9B"/>
<path d="M4.94425 10.2231C2.81947 10.2231 2.05428 11.7384 1.75524 12.4857C1.50367 13.1149 1.6757 14.1093 1.73643 14.408L1.93929 14.4275C1.62914 12.7071 2.34994 10.2738 5.24052 10.514C8.13111 10.7543 8.18537 13.9858 8.18537 14.2492C8.18537 14.5127 8.24734 14.6135 8.24734 14.6135C8.25874 14.6107 8.28002 14.608 8.30961 14.6054C8.30745 14.3851 8.30622 14.0939 8.30622 13.7123C8.30622 11.3465 6.66208 10.2231 4.94425 10.2231Z" fill="#9D9E9B"/>
<path d="M10.663 8.7555C10.663 8.7555 14.5167 6.09533 15.079 5.99772C15.079 5.99772 17.6197 5.28796 19.6911 5.48509C21.7622 5.68218 25.5904 5.99615 25.7001 7.19743C25.8099 8.39877 25.6314 8.17923 25.6314 8.17923L10.663 8.7555Z" fill="#C5D6E3"/>
<path d="M18.6482 5.60458L18.072 8.50593L19.3071 8.44695L19.5127 5.60458H18.6482Z" fill="#313D49"/>
<path d="M7.378 13.4029C7.378 14.7502 6.28571 15.8425 4.93845 15.8425C3.59089 15.8425 2.4986 14.7502 2.4986 13.4029C2.4986 12.0555 3.59089 10.9633 4.93845 10.9633C6.28571 10.9633 7.378 12.0555 7.378 13.4029Z" fill="#26262C"/>
<path d="M3.10181 13.4023C3.10181 14.4201 3.92681 15.2452 4.9448 15.2452C5.96249 15.2452 6.78749 14.4201 6.78749 13.4023C6.78749 12.3845 5.96249 11.5594 4.9448 11.5594C3.92681 11.5594 3.10181 12.3845 3.10181 13.4023Z" fill="white"/>
<path d="M4.3048 12.1671L4.73149 12.6518C4.73149 12.6518 4.80486 12.7681 4.90598 12.7681C5.00679 12.7681 5.08017 12.6867 5.08017 12.6867L5.52627 12.1671C5.52627 12.1671 5.58824 12.0934 5.52627 12.0431C5.46431 11.9926 5.24665 11.919 4.94452 11.919C4.64208 11.919 4.19628 12.0004 4.3048 12.1671Z" fill="white"/>
<path d="M4.3048 14.6379L4.73118 14.1532C4.73118 14.1532 4.80486 14.0369 4.90567 14.0369C5.00649 14.0369 5.08017 14.1183 5.08017 14.1183L5.52597 14.6379C5.52597 14.6379 5.58824 14.7115 5.52597 14.7619C5.464 14.8123 5.24634 14.886 4.94421 14.886C4.64208 14.886 4.19628 14.8046 4.3048 14.6379Z" fill="white"/>
<path d="M6.19517 12.7866L5.71053 13.2131C5.71053 13.2131 5.5943 13.2868 5.5943 13.3876C5.5943 13.4885 5.67569 13.5621 5.67569 13.5621L6.19517 14.008C6.19517 14.008 6.26885 14.0701 6.31941 14.008C6.36966 13.946 6.44334 13.7283 6.44334 13.4262C6.44334 13.1239 6.36196 12.6781 6.19517 12.7866Z" fill="white"/>
<path d="M3.72364 12.7866L4.20828 13.2131C4.20828 13.2131 4.32451 13.2868 4.32451 13.3876C4.32451 13.4885 4.24312 13.5621 4.24312 13.5621L3.72364 14.008C3.72364 14.008 3.64996 14.07 3.5994 14.008C3.54915 13.9459 3.47546 13.7283 3.47546 13.4261C3.47546 13.1239 3.55686 12.678 3.72364 12.7866Z" fill="white"/>
<path d="M28.8365 13.4029C28.8365 14.7502 27.7442 15.8425 26.3969 15.8425C25.0497 15.8425 23.9574 14.7502 23.9574 13.4029C23.9574 12.0555 25.0497 10.9633 26.3969 10.9633C27.7442 10.9633 28.8365 12.0555 28.8365 13.4029Z" fill="#26262C"/>
<path d="M24.5596 13.4023C24.5596 14.4201 25.3849 15.2452 26.4026 15.2452C27.4203 15.2452 28.2453 14.4201 28.2453 13.4023C28.2453 12.3845 27.4203 11.5594 26.4026 11.5594C25.3849 11.5594 24.5596 12.3845 24.5596 13.4023Z" fill="white"/>
<path d="M25.7628 12.1671L26.1891 12.6518C26.1891 12.6518 26.2628 12.7681 26.3636 12.7681C26.4645 12.7681 26.5381 12.6867 26.5381 12.6867L26.9839 12.1671C26.9839 12.1671 27.0462 12.0934 26.9839 12.0431C26.922 11.9926 26.7043 11.919 26.4022 11.919C26.1 11.919 25.6539 12.0004 25.7628 12.1671Z" fill="white"/>
<path d="M25.7627 14.6379L26.1894 14.1532C26.1894 14.1532 26.2631 14.0369 26.3639 14.0369C26.4647 14.0369 26.5384 14.1183 26.5384 14.1183L26.9842 14.6379C26.9842 14.6379 27.0464 14.7115 26.9842 14.7619C26.9222 14.8123 26.7045 14.886 26.4024 14.886C26.1 14.886 25.6542 14.8046 25.7627 14.6379Z" fill="white"/>
<path d="M27.6534 12.7866L27.1687 13.2131C27.1687 13.2131 27.0522 13.2868 27.0522 13.3876C27.0522 13.4885 27.1336 13.5621 27.1336 13.5621L27.6534 14.008C27.6534 14.008 27.727 14.0701 27.7773 14.008C27.8275 13.946 27.9015 13.7283 27.9015 13.4262C27.9015 13.1239 27.8198 12.6781 27.6534 12.7866Z" fill="white"/>
<path d="M25.1824 12.7866L25.6674 13.2131C25.6674 13.2131 25.7836 13.2868 25.7836 13.3876C25.7836 13.4885 25.7022 13.5621 25.7022 13.5621L25.1824 14.008C25.1824 14.008 25.1088 14.07 25.0585 14.008C25.0079 13.9459 24.9343 13.7283 24.9343 13.4261C24.9343 13.1239 25.0157 12.678 25.1824 12.7866Z" fill="white"/>
<path d="M25.4847 8.12391L18.7018 8.37693L10.8391 8.73499C11.5984 8.20579 14.4443 6.31699 15.2918 6.00083C16.2799 5.63217 19.2972 5.61003 19.623 5.62634C19.9486 5.64259 23.3892 5.74035 24.9334 6.53816C24.9334 6.53816 25.9339 6.79441 25.4847 8.12391ZM24.3286 6.11419C24.3286 6.11419 22.3228 5.37308 19.0965 5.46073C19.0965 5.46073 16.3847 5.44207 15.1 5.88824C15.1 5.88824 13.1143 6.63509 10.3196 8.86617H10.7586L10.9072 8.85109L25.9311 8.25555C25.9246 8.11605 25.9514 7.85548 25.9101 7.54937C25.8253 6.92001 25.6055 6.42705 24.3286 6.11419Z" fill="#F1F6F9"/>
<path d="M19.4236 5.48423C17.9382 5.48423 16.3718 5.60274 15.5255 5.77911C14.5997 5.9722 12.8671 6.98982 10.6473 8.64448L10.619 8.66551C10.0761 9.07024 9.96075 9.26801 9.79767 10.0764C9.63674 10.8733 9.85408 13.4091 9.87875 13.6905L23.2616 13.5445C23.4752 11.0143 25.5713 10.4072 25.7631 10.357C25.9234 9.95755 25.9428 7.91986 25.8488 7.33986C25.7498 6.73033 25.477 6.40502 23.2801 5.84783C22.0953 5.54728 20.5288 5.48423 19.4236 5.48423ZM9.8288 13.746L9.82634 13.7208C9.82387 13.6927 9.57261 10.9132 9.74371 10.0655C9.9105 9.23946 10.0286 9.037 10.5863 8.62154L10.6143 8.60049C12.8729 6.91713 14.5673 5.92293 15.5144 5.72541C16.3638 5.54829 17.9348 5.42935 19.4236 5.42935C20.5319 5.42935 22.1033 5.49268 23.2936 5.79462C25.522 6.35982 25.8001 6.69688 25.9028 7.33111C26.0011 7.93771 25.9804 10.0065 25.8081 10.3915L25.8026 10.404L25.789 10.407C25.7665 10.4123 23.5218 10.9553 23.314 13.5739L23.3121 13.5989L9.8288 13.746Z" fill="#1C1C1C"/>
<path d="M2.97601 11.0821L1.59392 11.0886C1.59392 11.0886 1.53719 11.3558 1.86738 11.3764C2.19695 11.397 2.63627 11.4051 2.63627 11.4051C2.63627 11.4051 2.83697 11.1827 2.97601 11.0821Z" fill="#BC4A26"/>
<path d="M23.7419 11.5165C23.7437 11.6121 20.7027 11.6669 16.9513 11.7379C13.2 11.809 10.159 11.8695 10.1574 11.7739C10.1556 11.6782 13.2071 11.5769 16.9584 11.5059C20.7098 11.4348 23.74 11.4209 23.7419 11.5165Z" fill="#9D9E9B"/>
<path d="M18.44 13.6282C18.2141 11.9865 18.6796 8.33671 18.6845 8.30002L19.0428 5.45352L19.097 5.46043L18.7388 8.30699C18.7341 8.34368 18.2695 11.9862 18.4946 13.6207L18.44 13.6282Z" fill="#1C1C1C"/>
<path d="M16.2504 9.47959C16.2504 9.47959 16.2362 9.26733 16.6043 9.17388C16.9721 9.08044 17.077 9.07196 17.1987 9.07196C17.3205 9.07196 18.0876 9.12292 18.0934 9.406C18.099 9.68908 17.5243 9.78249 17.3008 9.79948C17.077 9.81647 16.2362 9.84196 16.2504 9.47959Z" fill="#9D9E9B"/>
<path d="M23.4954 9.3144C23.4954 9.3144 23.4812 9.10211 23.849 9.00872C24.2171 8.91528 24.3219 8.9068 24.4437 8.9068C24.5651 8.9068 25.3325 8.95773 25.338 9.24081C25.3436 9.52392 24.7692 9.61733 24.5454 9.63432C24.3219 9.6513 23.4812 9.6768 23.4954 9.3144Z" fill="#9D9E9B"/>
<path d="M17.7837 9.38614C17.7852 9.45437 17.7313 9.51091 17.6631 9.51248L16.6482 9.53619C16.5801 9.53779 16.5234 9.48381 16.5218 9.41565L16.5212 9.38821C16.5197 9.32005 16.5736 9.2635 16.6418 9.26187L17.6567 9.23816C17.7248 9.23659 17.7815 9.29057 17.7831 9.35871L17.7837 9.38614Z" fill="#DBE3F1"/>
<path d="M25.0279 9.22101C25.0294 9.28918 24.9755 9.34575 24.9073 9.34729L23.8921 9.37103C23.824 9.3726 23.7676 9.31865 23.766 9.25049L23.7651 9.22302C23.7636 9.15485 23.8175 9.09831 23.8857 9.09674L24.9009 9.073C24.969 9.0714 25.0254 9.12541 25.0273 9.19355L25.0279 9.22101Z" fill="#DBE3F1"/>
</svg>
