<svg width="32" height="21" viewBox="0 0 32 21" fill="none" xmlns="http://www.w3.org/2000/svg">
<path d="M0 13.5262C0 13.9674 0.0968906 14.4643 0.662688 14.5609C1.22865 14.6576 2.33292 14.7542 2.67793 14.7542H30.0486C30.5731 14.7542 31.3461 14.3124 31.6911 13.719C32.0361 13.1255 31.9533 12.6561 31.9533 12.1178C31.9533 11.5795 31.3736 10.9032 31.3736 10.641V8.79142C31.3736 8.51531 31.0349 8.01858 30.6384 7.67357C30.2418 7.3284 27.2191 4.6508 26.3495 4.44376C25.4799 4.23672 17.571 3.97436 16.5633 4.00202C15.5558 4.02968 14.769 4.48516 14.5757 4.56798C14.3826 4.6508 8.99959 7.72873 8.87537 7.76997C8.75114 7.81138 5.54882 8.34968 4.05814 8.72235C2.56745 9.09502 1.53159 9.2739 0.718012 10.2821C0.0828144 11.0689 0 12.5329 0 13.5262Z" fill="#FDB824"/>
<path d="M18.5947 7.84616C18.6929 7.83953 18.73 7.76119 18.7456 7.70438C18.7612 7.6474 19.2335 4.92475 19.2491 4.83166C19.2647 4.73841 19.3149 4.62545 19.1974 4.62578V4.62512C18.5361 4.62645 17.9159 4.63241 17.4154 4.64019C17.1256 4.6445 15.9454 4.88864 15.2104 5.29229C14.4754 5.6961 12.2704 7.16607 11.9082 7.45593C11.5458 7.74562 11.6079 8.25295 12.2601 8.25295C12.5674 8.25295 15.5315 8.05519 18.5947 7.84616Z" fill="#212B32"/>
<path d="M25.9553 6.97894C25.7896 6.53373 24.8141 5.00412 24.1643 4.82573C23.6362 4.68064 21.7573 4.63244 19.9614 4.62515C19.8839 4.62482 19.8476 4.68594 19.8372 4.77389C19.8269 4.86184 19.6508 7.51725 19.6561 7.64147C19.6611 7.76387 19.7666 7.76569 19.7694 7.76569C22.8028 7.55783 25.6126 7.36188 25.6757 7.36188C25.8849 7.36188 26.0232 7.16147 25.9553 6.97894Z" fill="#212B32"/>
<path d="M27.9858 10.624C26.2592 10.624 24.8595 12.0234 24.8595 13.7503C24.8595 14.1135 24.9246 14.461 25.0385 14.7855H30.0461C30.3384 14.7855 30.7078 14.648 31.0374 14.4237C31.0851 14.2066 31.1121 13.9818 31.1121 13.7503C31.1121 12.0234 29.7123 10.624 27.9858 10.624Z" fill="#D89428"/>
<path d="M8.57338 14.7855C8.68733 14.461 8.75259 14.1135 8.75259 13.7503C8.75259 12.0234 7.35284 10.624 5.6263 10.624C3.89975 10.624 2.5 12.0234 2.5 13.7503C2.5 14.1135 2.56509 14.461 2.67905 14.7855H8.57338Z" fill="#D89428"/>
<path d="M8.28434 13.7734C8.28434 15.2369 7.09776 16.4235 5.63424 16.4235C4.17055 16.4235 2.98413 15.2369 2.98413 13.7734C2.98413 12.3095 4.17055 11.1233 5.63424 11.1233C7.09776 11.1233 8.28434 12.3095 8.28434 13.7734Z" fill="#212B32"/>
<path d="M7.43498 13.6872C7.43498 14.6874 6.62405 15.4984 5.6238 15.4984C4.62339 15.4984 3.81262 14.6874 3.81262 13.6872C3.81262 12.6868 4.62339 11.876 5.6238 11.876C6.62405 11.876 7.43498 12.6868 7.43498 13.6872Z" fill="white"/>
<path d="M30.6437 13.7734C30.6437 15.2369 29.4571 16.4235 27.9936 16.4235C26.5299 16.4235 25.3435 15.2369 25.3435 13.7734C25.3435 12.3095 26.5299 11.1233 27.9936 11.1233C29.4571 11.1233 30.6437 12.3095 30.6437 13.7734Z" fill="#212B32"/>
<path d="M29.7944 13.6872C29.7944 14.6874 28.9834 15.4984 27.9832 15.4984C26.9828 15.4984 26.172 14.6874 26.172 13.6872C26.172 12.6868 26.9828 11.876 27.9832 11.876C28.9834 11.876 29.7944 12.6868 29.7944 13.6872Z" fill="white"/>
<path d="M26.2864 8.96914C26.156 9.63597 25.6141 10.2958 24.9863 11.0597C24.775 11.317 24.5567 11.583 24.3377 11.868C23.4014 13.0876 23.3022 13.686 23.2941 13.8404C23.2841 14.0255 23.179 14.1117 22.9627 14.1117H18.7697C18.769 13.9349 18.7626 13.6997 18.7548 13.4039C18.7357 12.7002 18.7071 11.6365 18.7286 10.3444C18.7591 8.52077 19.2432 7.85957 19.2482 7.85311L19.256 7.84284L19.2565 7.83009C19.359 5.77129 19.73 4.59116 19.7673 4.38777C21.6716 4.43862 23.7388 4.5105 24.0434 4.55638C24.58 4.63737 24.9675 5.10561 25.7242 6.15456C26.4528 7.16524 26.4795 7.98065 26.2864 8.96914ZM9.99502 14.1117C9.79726 14.1117 9.78119 13.9961 9.78119 13.8564V12.697C9.78119 12.4128 9.73233 12.1309 9.67601 11.8044C9.59717 11.3486 9.49912 10.7811 9.50508 9.99191C9.51519 8.66653 10.1698 8.14214 11.2369 7.3963C12.2895 6.6604 15.6103 4.73626 15.6439 4.71688C15.9082 4.56317 16.4078 4.37949 16.879 4.3394C16.9264 4.33526 17.0319 4.33327 17.1925 4.33327C17.6681 4.33327 18.7114 4.36011 19.6836 4.38561C19.6401 4.62611 19.2752 5.79978 19.1745 7.81369C19.1082 7.90827 18.6751 8.59233 18.6458 10.3429C18.6243 11.6368 18.6529 12.7016 18.672 13.4061C18.6799 13.7012 18.6862 13.9359 18.6869 14.1117H9.99502ZM24.0557 4.47456C23.5354 4.39588 18.4982 4.25046 17.1925 4.25046C17.0272 4.25046 16.9224 4.25261 16.8722 4.25692C16.3879 4.29799 15.8743 4.48715 15.6022 4.64532C15.5689 4.66454 12.245 6.5905 11.1894 7.32822C10.0967 8.09212 9.43237 8.65245 9.42227 9.99125C9.41614 10.7879 9.51486 11.3594 9.59436 11.8187C9.65018 12.1413 9.69838 12.4199 9.69838 12.697V13.8564C9.69838 13.9661 9.69837 14.1945 9.99502 14.1945H22.9627C23.2894 14.1945 23.3681 14.0043 23.3766 13.8447C23.3822 13.7392 23.4577 13.1498 24.4033 11.9185C24.6215 11.6345 24.8394 11.3691 25.0503 11.1124C25.685 10.3396 26.2334 9.67224 26.3675 8.98504C26.5222 8.19332 26.6181 7.2527 25.7911 6.10619C25.0206 5.03754 24.6236 4.56019 24.0557 4.47456Z" fill="#F68C1E"/>
<path d="M9.2272 8.04735C9.34115 8.13016 9.58447 8.11459 9.7708 8.00594C9.95714 7.89712 14.6362 4.96246 14.6983 4.92618C14.7605 4.89008 14.7707 4.78656 14.7293 4.72958C14.7108 4.70407 14.6472 4.66184 14.5827 4.62308L14.5723 4.62788C14.386 4.70772 9.37494 7.57198 8.90637 7.81314C8.9925 7.87608 9.14736 7.98921 9.2272 8.04735Z" fill="#212B32"/>
<path d="M0.925051 13.5902V12.9966C0.925051 12.7221 0.702442 12.4997 0.428156 12.4997H0.038921C0.00844478 12.8676 0 13.2245 0 13.5354C0 13.7209 0.0178861 13.9158 0.0796667 14.0871H0.428156C0.702442 14.0871 0.925051 13.8645 0.925051 13.5902Z" fill="#212B32"/>
<path d="M0.266614 11.9228C0.295931 11.7413 0.460072 10.794 0.812039 10.449C1.16401 10.1038 2.4546 9.57927 2.56491 9.62763C2.67539 9.676 2.19225 10.6628 1.8956 11.0839C1.59879 11.5049 0.226366 12.1765 0.266614 11.9228Z" fill="white"/>
<path d="M30.6406 9.24561V10.1359C30.6406 10.4102 30.8631 10.6328 31.1375 10.6328H31.3759V8.83153C31.3759 8.80636 31.3702 8.77737 31.3646 8.74872H31.1375C30.8631 8.74872 30.6406 8.97116 30.6406 9.24561Z" fill="#F68C1E"/>
<path d="M30.6434 7.63411C30.3656 7.39229 28.799 6.00612 27.5866 5.12628C27.5533 5.20396 27.5219 5.31593 27.576 5.39113C27.6656 5.51535 30.5781 7.95146 30.7023 8.02036C30.777 8.06194 30.9039 8.05266 30.998 8.00314C30.8915 7.87279 30.7712 7.74525 30.6434 7.63411Z" fill="#212B32"/>
</svg>
