<svg width="32" height="21" viewBox="0 0 32 21" fill="none" xmlns="http://www.w3.org/2000/svg">
<g clip-path="url(#clip0_644_707)">
<path d="M23.1913 13.789L23.5957 14.0284C23.5957 14.0284 23.9516 13.8188 24.1612 13.9085C24.3705 13.9983 28.096 13.8884 28.096 13.8884C28.096 13.8884 28.8677 13.9912 29 13.521C29.132 13.0505 29.4727 9.77439 25.8696 10.4272C22.2665 11.08 23.114 13.1166 23.1913 13.789Z" fill="#030404"/>
<path d="M3.51672 13.646L4.2425 14.1994C4.2425 14.1994 4.77325 13.9988 4.90554 14.0429C5.03784 14.087 8.79623 14.3615 8.79623 14.3615C8.79623 14.3615 9.79934 14.455 10.086 14.1994C10.3726 13.9438 8.85151 9.68852 6.68008 10.1078C4.50865 10.5267 3.51672 13.646 3.51672 13.646Z" fill="#030404"/>
<path d="M1.83522 11.0596L1.67932 10.6006C1.67932 10.6006 2.5492 8.98875 4.14765 9.17012C5.74579 9.35117 1.83522 11.0596 1.83522 11.0596Z" fill="#CBCDCC"/>
<path d="M28.182 4.86664L29.9876 8.84832H30.8214C30.6193 7.85453 30.0093 6.24832 28.182 4.86664Z" fill="#F15B64"/>
<path d="M29.9874 8.84827L30.3843 9.72125L30.7126 9.77373C30.7126 9.77373 30.852 9.77808 30.8744 9.75696C30.9076 9.72497 30.9359 9.40727 30.8213 8.84827H29.9874Z" fill="#EF3A27"/>
<path d="M6.52429 8.43879L6.68516 8.14935C6.68516 8.14935 12.0094 4.63568 14.1734 4.69997C16.3373 4.76425 7.10286 9.54221 6.52429 8.43879Z" fill="#788D9F"/>
<path d="M30.9354 12.1597C30.9354 12.1597 30.8854 11.9535 30.9167 11.3945H28.7226C28.3739 11.3945 27.9499 11.1265 27.9499 10.8814C27.9499 10.6361 28.0819 10.6802 28.0819 10.6802H30.7822V9.75347L30.645 9.73701C30.645 9.73701 30.6633 9.18546 30.4605 8.23639C30.2577 7.28732 29.3726 6.10285 28.8698 5.36465C28.3667 4.62645 28.0338 4.68328 26.7114 4.48856C25.3891 4.29384 19.686 4.20471 19.686 4.20471C19.686 4.20471 16.222 4.31838 14.6077 4.55347C12.9934 4.78887 11.3304 5.68111 10.7462 5.99757C10.1621 6.31372 7.85366 8.06248 7.85366 8.06248C7.73503 8.13639 6.85832 8.06248 6.85832 8.06248C5.74465 8.14012 3.3695 9.2277 3.3695 9.2277C3.44 9.22024 3.79093 9.29788 3.79093 9.29788C4.07229 9.4718 3.62043 9.76776 3.46142 9.88981C3.30211 10.0122 2.4872 10.4817 2.20987 10.5743C1.93254 10.6668 1.67881 10.6004 1.67881 10.6004C1.57881 10.7187 1.42322 11.2737 1.42322 11.2737C1.42322 11.2737 1.19993 11.382 1.07788 11.5942L4.03099 11.5563C4.03099 11.5563 4.30677 11.5395 4.27851 11.6687C4.25025 11.7982 4.05335 12.1864 3.68223 12.2143C3.36732 12.2383 1.608 12.246 1.0813 12.2476C1.15335 12.4066 1.24807 12.5035 1.24807 12.5035V12.942C1.12384 13.0864 1.14372 13.2765 1.14372 13.2765C1.29682 14.1942 4.24279 14.1991 4.24279 14.1991C3.98534 12.4389 4.50801 10.8162 6.77944 10.8162C8.83192 10.8162 9.26143 12.7696 9.32509 13.3917L23.6394 13.3277C23.7751 12.4078 24.3034 10.906 26.3052 10.8892C29.1934 10.8647 28.6881 13.8258 28.6881 13.8258C28.6881 13.8258 30.1788 13.5808 30.6819 13.3131C31.1847 13.0454 30.9354 12.1597 30.9354 12.1597Z" fill="#A71E22"/>
<path d="M4.27857 11.6686C4.30683 11.5394 4.03105 11.5562 4.03105 11.5562L1.07794 11.5941C1.03571 11.6674 1.00558 11.7528 1.00093 11.8506C0.993473 12.0043 1.03198 12.14 1.08074 12.2475C1.60745 12.2459 3.36739 12.2382 3.68229 12.2143C4.05341 12.1863 4.25031 11.7981 4.27857 11.6686Z" fill="#2B2D32"/>
<path d="M9.33476 13.5413C9.33476 13.8739 9.51333 14.3609 9.51333 14.3609L23.596 14.0283C23.596 14.0283 23.5817 13.7764 23.6273 13.4158L9.33228 13.4798C9.33383 13.504 9.33476 13.5258 9.33476 13.5413Z" fill="#9A1C1F"/>
<path d="M9.33209 13.4804L23.6271 13.4165C23.6309 13.3876 23.6349 13.3581 23.6392 13.3279L9.32495 13.3919C9.32837 13.4258 9.33054 13.455 9.33209 13.4804Z" fill="#B92025"/>
<path d="M9.61019 11.9273L22.9385 11.5866C22.9385 11.5866 23.563 11.6354 23.7416 11.1649C23.7416 11.1649 23.8065 11.0351 23.4009 11.0431C22.9953 11.0512 9.49652 11.5217 9.49652 11.5217C9.49652 11.5217 9.31019 11.7326 9.61019 11.9273Z" fill="#27272D"/>
<path d="M18.266 9.34017C18.266 9.48085 17.4616 9.49607 16.4691 9.49607C15.4768 9.49607 14.6725 9.50414 14.6725 9.34017C14.6725 9.18427 15.4768 9.18427 16.4691 9.18427C17.4616 9.18427 18.266 9.19948 18.266 9.34017Z" fill="#C1B8BD"/>
<path d="M27.8936 10.8606C27.8936 11.1059 28.3743 11.4252 28.7231 11.4252H30.9172C30.9184 11.3631 30.92 11.3786 30.9215 11.3531C30.9622 10.7609 30.7755 10.6488 30.7755 10.6488H28.0824C28.0824 10.6488 27.8936 10.6156 27.8936 10.8606Z" fill="#2B2D32"/>
<path d="M7.82166 8.84365L16.4822 8.34675L27.7959 7.8865C27.7959 7.8865 28.9226 7.90234 29.0018 7.55327C29.081 7.20452 28.5204 5.76073 28.1819 5.41166C27.8437 5.06259 27.9071 5.03091 27.7009 4.96756C27.4946 4.90389 23.5282 4.63433 21.8782 4.61849C20.2282 4.60265 15.1356 4.50731 13.5807 5.04675C12.026 5.58619 9.28128 7.08775 7.82166 8.84365Z" fill="#242428"/>
<path d="M8.28113 8.60383C8.28113 8.60383 10.4675 6.66594 11.1529 6.42029L10.933 8.4383L8.28113 8.60383Z" fill="#788D9F"/>
<path d="M11.4056 6.20709L11.2438 8.39964L15.8618 8.14094L16.3407 4.80988C16.3407 4.80988 13.2683 4.79684 11.4056 6.20709Z" fill="#788D9F"/>
<path d="M17.5369 4.80923L17.3751 8.07538L22.9248 7.88812L22.4397 4.75085C22.4397 4.75085 18.6751 4.64091 17.5369 4.80923Z" fill="#788D9F"/>
<path d="M23.6007 4.7879L24.0628 7.69846H28.0352C28.0352 7.69846 28.5193 7.65965 28.6551 7.49132C28.7911 7.32331 28.7457 6.91368 28.6035 6.63542C28.4613 6.35716 27.9954 5.16181 27.6203 5.09722C27.2451 5.03262 23.6007 4.7879 23.6007 4.7879Z" fill="#788D9F"/>
<path d="M16.3175 13.3637C16.2427 12.8293 16.4504 8.52833 16.4594 8.34541V8.34354L16.9852 4.31L17.0302 4.3159L16.5048 8.34851C16.5007 8.4336 16.2886 12.8299 16.3625 13.3572L16.3175 13.3637Z" fill="#1B1A20"/>
<path d="M23.1962 13.3415L23.1593 13.3148C23.7562 12.4869 24.0214 9.97599 24.0431 9.33934C24.0652 8.68934 23.6251 8.07536 23.6207 8.06946L23.6173 8.0648L23.6164 8.05921L23.1332 4.70703L22.9049 4.32536L22.944 4.30176L23.177 4.6915L23.6608 8.04741C23.7021 8.10642 24.1102 8.7058 24.0885 9.34089C24.0667 9.98065 23.7993 12.5049 23.1962 13.3415Z" fill="#1B1A20"/>
<path d="M24.0605 9.22101C24.0484 9.22101 24.0648 9.18995 24.0636 9.14896C24.0623 9.10703 24.0276 9.08002 24.0583 9.07598L30.4512 8.87939H30.4537C30.4946 8.87939 30.5282 8.91324 30.5294 8.95455C30.5307 8.99616 30.4978 9.0266 30.4558 9.02784L24.063 9.22101H24.0605Z" fill="#1B1A20"/>
<path d="M3.87698 9.50062L3.86829 9.4559C3.89624 9.45062 6.67947 8.92391 7.82015 8.8208L7.82419 8.86615C6.68568 8.96894 3.90493 9.49534 3.87698 9.50062Z" fill="#1B1A20"/>
<path d="M9.52905 9.06344L10.2496 8.11003C10.2496 8.11003 10.4654 7.46313 11.0042 7.40661C11.5433 7.34978 12.2241 7.35537 12.2638 7.86034C12.3036 8.36531 12.071 8.43922 11.8496 8.43363C11.6284 8.42773 10.7433 8.5299 10.7433 8.5299L10.8169 8.92711C10.8169 8.92711 9.59148 9.27897 9.52905 9.06344Z" fill="#A71E22"/>
<path d="M9.03569 13.5214C9.03569 14.7732 8.02078 15.7881 6.76891 15.7881C5.51674 15.7881 4.50183 14.7732 4.50183 13.5214C4.50183 12.2692 5.51674 11.2543 6.76891 11.2543C8.02078 11.2543 9.03569 12.2692 9.03569 13.5214Z" fill="#26262C"/>
<path d="M5.06128 13.5209C5.06128 14.4666 5.82805 15.2333 6.77401 15.2333C7.71967 15.2333 8.48613 14.4666 8.48613 13.5209C8.48613 12.5749 7.71967 11.8082 6.77401 11.8082C5.82805 11.8082 5.06128 12.5749 5.06128 13.5209Z" fill="white"/>
<path d="M6.17993 12.3728L6.57621 12.8234C6.57621 12.8234 6.64453 12.9315 6.73832 12.9315C6.83211 12.9315 6.90043 12.8557 6.90043 12.8557L7.31472 12.3728C7.31472 12.3728 7.37248 12.3044 7.31472 12.2579C7.25726 12.211 7.05509 12.1423 6.77434 12.1423C6.49329 12.1423 6.079 12.2181 6.17993 12.3728Z" fill="white"/>
<path d="M6.17984 14.6694L6.57612 14.2188C6.57612 14.2188 6.64475 14.1107 6.73854 14.1107C6.83202 14.1107 6.90065 14.1865 6.90065 14.1865L7.31494 14.6694C7.31494 14.6694 7.3727 14.7377 7.31494 14.7846C7.25749 14.8315 7.055 14.8998 6.77426 14.8998C6.49351 14.8998 6.07922 14.8244 6.17984 14.6694Z" fill="white"/>
<path d="M7.93595 12.9489L7.48564 13.3451C7.48564 13.3451 7.37756 13.4134 7.37756 13.5072C7.37756 13.601 7.45334 13.6693 7.45334 13.6693L7.93595 14.0839C7.93595 14.0839 8.00458 14.1414 8.05117 14.0839C8.09837 14.0262 8.1667 13.824 8.1667 13.5433C8.1667 13.2622 8.09092 12.8479 7.93595 12.9489Z" fill="white"/>
<path d="M5.63993 12.9489L6.09024 13.3451C6.09024 13.3451 6.19831 13.4134 6.19831 13.5072C6.19831 13.601 6.12254 13.6693 6.12254 13.6693L5.63993 14.0839C5.63993 14.0839 5.57129 14.1414 5.5244 14.0839C5.47751 14.0262 5.40918 13.824 5.40918 13.5433C5.40918 13.2622 5.48496 12.8479 5.63993 12.9489Z" fill="white"/>
<path d="M28.3899 13.5214C28.3899 14.7732 27.375 15.7881 26.1232 15.7881C24.871 15.7881 23.8561 14.7732 23.8561 13.5214C23.8561 12.2692 24.871 11.2543 26.1232 11.2543C27.375 11.2543 28.3899 12.2692 28.3899 13.5214Z" fill="#26262C"/>
<path d="M24.4155 13.5209C24.4155 14.4666 25.1823 15.2333 26.1283 15.2333C27.0739 15.2333 27.8404 14.4666 27.8404 13.5209C27.8404 12.5749 27.0739 11.8082 26.1283 11.8082C25.1823 11.8082 24.4155 12.5749 24.4155 13.5209Z" fill="white"/>
<path d="M25.5341 12.3728L25.9307 12.8234C25.9307 12.8234 25.999 12.9315 26.0928 12.9315C26.1863 12.9315 26.2549 12.8557 26.2549 12.8557L26.6692 12.3728C26.6692 12.3728 26.727 12.3044 26.6692 12.2579C26.6117 12.211 26.4092 12.1423 26.1288 12.1423C25.8478 12.1423 25.4335 12.2181 25.5341 12.3728Z" fill="white"/>
<path d="M25.5341 14.6694L25.9304 14.2188C25.9304 14.2188 25.999 14.1107 26.0928 14.1107C26.1863 14.1107 26.2549 14.1865 26.2549 14.1865L26.6692 14.6694C26.6692 14.6694 26.727 14.7377 26.6692 14.7846C26.6114 14.8315 26.4092 14.8998 26.1285 14.8998C25.8478 14.8998 25.4335 14.8244 25.5341 14.6694Z" fill="white"/>
<path d="M27.2902 12.9489L26.8399 13.3451C26.8399 13.3451 26.7318 13.4134 26.7318 13.5072C26.7318 13.601 26.8073 13.6693 26.8073 13.6693L27.2902 14.0839C27.2902 14.0839 27.3588 14.1414 27.4054 14.0839C27.4523 14.0262 27.5209 13.824 27.5209 13.5433C27.5209 13.2622 27.4452 12.8479 27.2902 12.9489Z" fill="white"/>
<path d="M24.9942 12.9489L25.4445 13.3451C25.4445 13.3451 25.5526 13.4134 25.5526 13.5072C25.5526 13.601 25.4768 13.6693 25.4768 13.6693L24.9942 14.0839C24.9942 14.0839 24.9255 14.1414 24.8786 14.0839C24.8317 14.0262 24.7634 13.824 24.7634 13.5433C24.7634 13.2622 24.8392 12.8479 24.9942 12.9489Z" fill="white"/>
</g>
<defs>
<clipPath id="clip0_644_707">
<rect width="32" height="21" fill="white"/>
</clipPath>
</defs>
</svg>
